<mxfile host="65bd71144e">
    <diagram id="kVbBmZFfezoNfobsdYjT" name="Structure">
        <mxGraphModel dx="4670" dy="4360" grid="1" gridSize="10" guides="1" tooltips="1" connect="1" arrows="1" fold="1" page="1" pageScale="1" pageWidth="4681" pageHeight="3300" background="none" math="0" shadow="1">
            <root>
                <mxCell id="0"/>
                <mxCell id="1" parent="0"/>
                <mxCell id="8" value="" style="edgeStyle=none;hachureGap=4;html=1;fontFamily=Architects Daughter;fontSource=https%3A%2F%2Ffonts.googleapis.com%2Fcss%3Ffamily%3DArchitects%2BDaughter;fontSize=40;sketch=1;curveFitting=1;jiggle=2;" parent="1" source="6" target="7" edge="1">
                    <mxGeometry relative="1" as="geometry"/>
                </mxCell>
                <mxCell id="6" value="&lt;h1 style=&quot;font-size: 59px;&quot;&gt;&lt;font style=&quot;font-size: 59px;&quot;&gt;ft_transcendence&lt;/font&gt;&lt;/h1&gt;" style="text;html=1;strokeColor=#001DBC;fillColor=#0050ef;align=center;verticalAlign=middle;whiteSpace=wrap;rounded=1;fontColor=#ffffff;fontSize=59;horizontal=1;labelBorderColor=none;spacing=2;sketch=1;curveFitting=1;jiggle=2;" parent="1" vertex="1">
                    <mxGeometry x="2037.5" y="70" width="565" height="120" as="geometry"/>
                </mxCell>
                <mxCell id="10" value="" style="edgeStyle=none;hachureGap=4;html=1;fontFamily=Helvetica;fontSize=40;fontColor=#FFFFFF;sketch=1;curveFitting=1;jiggle=2;strokeWidth=6;endSize=20;startSize=20;" parent="1" source="7" target="9" edge="1">
                    <mxGeometry relative="1" as="geometry"/>
                </mxCell>
                <mxCell id="12" value="" style="edgeStyle=none;hachureGap=4;html=1;fontFamily=Helvetica;fontSize=40;fontColor=#FFFFFF;sketch=1;curveFitting=1;jiggle=2;strokeWidth=6;endSize=20;startSize=20;" parent="1" source="7" target="11" edge="1">
                    <mxGeometry relative="1" as="geometry"/>
                </mxCell>
                <mxCell id="28" style="edgeStyle=none;sketch=1;hachureGap=4;jiggle=2;curveFitting=1;html=1;exitX=0.25;exitY=1;exitDx=0;exitDy=0;fontFamily=Verdana;fontSize=16;strokeWidth=6;endSize=20;startSize=20;" parent="1" source="7" target="18" edge="1">
                    <mxGeometry relative="1" as="geometry"/>
                </mxCell>
                <mxCell id="29" style="edgeStyle=none;sketch=1;hachureGap=4;jiggle=2;curveFitting=1;html=1;exitX=0;exitY=1;exitDx=0;exitDy=0;entryX=1;entryY=0;entryDx=0;entryDy=0;fontFamily=Verdana;fontSize=16;strokeWidth=6;endSize=20;startSize=20;" parent="1" source="7" target="16" edge="1">
                    <mxGeometry relative="1" as="geometry"/>
                </mxCell>
                <mxCell id="7" value="&lt;h1 style=&quot;font-size: 40px;&quot;&gt;&lt;font face=&quot;Helvetica&quot; style=&quot;font-size: 40px;&quot;&gt;Docker&lt;/font&gt;&lt;/h1&gt;" style="text;html=1;strokeColor=#B09500;fillColor=#e3c800;align=center;verticalAlign=middle;whiteSpace=wrap;rounded=1;fontColor=#FFFFFF;fontSize=40;horizontal=1;labelBorderColor=none;spacing=2;hachureGap=4;fontFamily=Architects Daughter;fontSource=https%3A%2F%2Ffonts.googleapis.com%2Fcss%3Ffamily%3DArchitects%2BDaughter;sketch=1;curveFitting=1;jiggle=2;" parent="1" vertex="1">
                    <mxGeometry x="2130" y="240" width="380" height="70" as="geometry"/>
                </mxCell>
                <mxCell id="19" value="" style="edgeStyle=none;hachureGap=4;html=1;fontFamily=Architects Daughter;fontSource=https%3A%2F%2Ffonts.googleapis.com%2Fcss%3Ffamily%3DArchitects%2BDaughter;fontSize=16;fontColor=#FF0000;sketch=1;curveFitting=1;jiggle=2;startArrow=classic;startFill=1;strokeWidth=6;endSize=20;startSize=20;strokeColor=#33FF33;rounded=0;" parent="1" source="9" target="18" edge="1">
                    <mxGeometry relative="1" as="geometry"/>
                </mxCell>
                <mxCell id="30" style="edgeStyle=none;sketch=1;hachureGap=4;jiggle=2;curveFitting=1;html=1;exitX=1;exitY=0.5;exitDx=0;exitDy=0;entryX=0;entryY=0.5;entryDx=0;entryDy=0;fontFamily=Verdana;fontSize=16;startArrow=classic;startFill=1;strokeWidth=6;endSize=20;startSize=20;strokeColor=#33FF33;rounded=0;" parent="1" source="9" target="11" edge="1">
                    <mxGeometry relative="1" as="geometry"/>
                </mxCell>
                <mxCell id="40" style="edgeStyle=none;curved=1;sketch=1;hachureGap=4;jiggle=2;curveFitting=1;html=1;strokeColor=default;fontFamily=Architects Daughter;fontSource=https%3A%2F%2Ffonts.googleapis.com%2Fcss%3Ffamily%3DArchitects%2BDaughter;fontSize=16;strokeWidth=6;endSize=20;startSize=20;" parent="1" source="9" target="39" edge="1">
                    <mxGeometry relative="1" as="geometry"/>
                </mxCell>
                <mxCell id="9" value="&lt;h1 style=&quot;font-size: 40px;&quot;&gt;&lt;font face=&quot;Helvetica&quot; style=&quot;font-size: 40px;&quot;&gt;Server&lt;/font&gt;&lt;/h1&gt;&lt;div&gt;&lt;font color=&quot;#ff0000&quot; face=&quot;Helvetica&quot;&gt;à définir (nginx)&lt;/font&gt;&lt;/div&gt;" style="text;html=1;strokeColor=#B09500;fillColor=#e3c800;align=center;verticalAlign=middle;whiteSpace=wrap;rounded=1;fontColor=#FFFFFF;fontSize=40;horizontal=1;labelBorderColor=none;spacing=2;hachureGap=4;fontFamily=Architects Daughter;fontSource=https%3A%2F%2Ffonts.googleapis.com%2Fcss%3Ffamily%3DArchitects%2BDaughter;sketch=1;curveFitting=1;jiggle=2;" parent="1" vertex="1">
                    <mxGeometry x="2370" y="480" width="380" height="230" as="geometry"/>
                </mxCell>
                <mxCell id="34" value="" style="edgeStyle=none;sketch=1;hachureGap=4;jiggle=2;curveFitting=1;html=1;fontFamily=Verdana;fontSize=20;endSize=20;strokeWidth=6;startSize=20;rounded=0;" parent="1" source="11" target="33" edge="1">
                    <mxGeometry relative="1" as="geometry"/>
                </mxCell>
                <mxCell id="11" value="&lt;h1 style=&quot;font-size: 40px;&quot;&gt;&lt;font face=&quot;Helvetica&quot; style=&quot;font-size: 40px;&quot;&gt;Database&lt;/font&gt;&lt;/h1&gt;&lt;div&gt;&lt;font face=&quot;Helvetica&quot;&gt;PostgreSQL&lt;/font&gt;&lt;/div&gt;" style="text;html=1;strokeColor=#B09500;fillColor=#e3c800;align=center;verticalAlign=middle;whiteSpace=wrap;rounded=1;fontColor=#FFFFFF;fontSize=40;horizontal=1;labelBorderColor=none;spacing=2;hachureGap=4;fontFamily=Architects Daughter;fontSource=https%3A%2F%2Ffonts.googleapis.com%2Fcss%3Ffamily%3DArchitects%2BDaughter;sketch=1;curveFitting=1;jiggle=2;" parent="1" vertex="1">
                    <mxGeometry x="2960" y="485" width="380" height="220" as="geometry"/>
                </mxCell>
                <mxCell id="27" style="edgeStyle=none;sketch=1;hachureGap=4;jiggle=2;curveFitting=1;html=1;exitX=1;exitY=0.5;exitDx=0;exitDy=0;entryX=0;entryY=0.5;entryDx=0;entryDy=0;fontFamily=Verdana;fontSize=16;startArrow=classic;startFill=1;strokeWidth=6;endSize=20;startSize=20;strokeColor=#33FF33;rounded=0;" parent="1" source="16" target="18" edge="1">
                    <mxGeometry relative="1" as="geometry"/>
                </mxCell>
                <mxCell id="32" value="" style="edgeStyle=none;sketch=1;hachureGap=4;jiggle=2;curveFitting=1;html=1;fontFamily=Verdana;fontSize=16;endSize=20;startSize=20;strokeWidth=6;" parent="1" source="16" target="31" edge="1">
                    <mxGeometry relative="1" as="geometry"/>
                </mxCell>
                <mxCell id="16" value="&lt;h1 style=&quot;font-size: 40px;&quot;&gt;&lt;font face=&quot;Helvetica&quot; style=&quot;font-size: 40px;&quot;&gt;Frontend&lt;/font&gt;&lt;/h1&gt;&lt;div&gt;&lt;font face=&quot;Helvetica&quot;&gt;react.js&lt;/font&gt;&lt;/div&gt;" style="text;html=1;strokeColor=#B09500;fillColor=#e3c800;align=center;verticalAlign=middle;whiteSpace=wrap;rounded=1;fontColor=#FFFFFF;fontSize=40;horizontal=1;labelBorderColor=none;spacing=2;hachureGap=4;fontFamily=Architects Daughter;fontSource=https%3A%2F%2Ffonts.googleapis.com%2Fcss%3Ffamily%3DArchitects%2BDaughter;sketch=1;curveFitting=1;jiggle=2;" parent="1" vertex="1">
                    <mxGeometry x="1130" y="480" width="380" height="230" as="geometry"/>
                </mxCell>
                <mxCell id="25" value="" style="edgeStyle=none;sketch=1;hachureGap=4;jiggle=2;curveFitting=1;html=1;fontFamily=Verdana;fontSize=16;endSize=20;startSize=20;strokeWidth=6;strokeColor=default;curved=1;" parent="1" source="18" target="24" edge="1">
                    <mxGeometry relative="1" as="geometry"/>
                </mxCell>
                <mxCell id="18" value="&lt;h1 style=&quot;font-size: 40px;&quot;&gt;&lt;span style=&quot;font-family: Helvetica; background-color: initial;&quot;&gt;Backend&lt;/span&gt;&lt;/h1&gt;&lt;h1 style=&quot;font-size: 40px;&quot;&gt;&lt;span style=&quot;font-family: Helvetica; background-color: initial; font-weight: normal;&quot;&gt;nest.js&lt;/span&gt;&lt;br&gt;&lt;/h1&gt;" style="text;html=1;strokeColor=#B09500;fillColor=#e3c800;align=center;verticalAlign=middle;whiteSpace=wrap;rounded=1;fontColor=#FFFFFF;fontSize=40;horizontal=1;labelBorderColor=none;spacing=2;hachureGap=4;fontFamily=Architects Daughter;fontSource=https%3A%2F%2Ffonts.googleapis.com%2Fcss%3Ffamily%3DArchitects%2BDaughter;sketch=1;curveFitting=1;jiggle=2;arcSize=26;" parent="1" vertex="1">
                    <mxGeometry x="1730" y="485" width="380" height="230" as="geometry"/>
                </mxCell>
                <mxCell id="20" value="" style="whiteSpace=wrap;html=1;hachureGap=4;fontFamily=Architects Daughter;fontSource=https%3A%2F%2Ffonts.googleapis.com%2Fcss%3Ffamily%3DArchitects%2BDaughter;fontSize=20;fillColor=#a20025;fontColor=#ffffff;strokeColor=#6F0000;sketch=1;curveFitting=1;jiggle=2;" parent="1" vertex="1">
                    <mxGeometry x="140" y="140" width="820" height="1470" as="geometry"/>
                </mxCell>
                <mxCell id="21" value="&lt;pre&gt;Définir le nombres de conteneurs pour les différents services!&lt;/pre&gt;&lt;pre&gt;&lt;ol&gt;&lt;li style=&quot;text-align: left;&quot;&gt;oauth api 42 https://api.intra.42.fr/apidoc&lt;/li&gt;&lt;li style=&quot;text-align: left;&quot;&gt;two factor authentication&lt;/li&gt;&lt;li style=&quot;text-align: left;&quot;&gt;library for hash paswords&lt;/li&gt;&lt;li style=&quot;text-align: left;&quot;&gt;how to do a matchmakin system for the game&lt;/li&gt;&lt;li style=&quot;text-align: left;&quot;&gt;what library exists for tchating&lt;/li&gt;&lt;/ol&gt;&lt;/pre&gt;" style="text;strokeColor=none;align=center;fillColor=none;html=1;verticalAlign=top;whiteSpace=wrap;rounded=0;sketch=1;hachureGap=4;jiggle=2;curveFitting=1;fontFamily=Architects Daughter;fontSource=https%3A%2F%2Ffonts.googleapis.com%2Fcss%3Ffamily%3DArchitects%2BDaughter;fontSize=20;horizontal=1;" parent="1" vertex="1">
                    <mxGeometry x="160" y="175" width="760" height="360" as="geometry"/>
                </mxCell>
                <mxCell id="24" value="" style="whiteSpace=wrap;html=1;fontSize=40;fontFamily=Architects Daughter;fillColor=#60a917;strokeColor=#2D7600;fontColor=#ffffff;gradientColor=none;rounded=1;labelBorderColor=none;spacing=2;hachureGap=4;fontSource=https%3A%2F%2Ffonts.googleapis.com%2Fcss%3Ffamily%3DArchitects%2BDaughter;sketch=1;curveFitting=1;jiggle=2;" parent="1" vertex="1">
                    <mxGeometry x="1640" y="890" width="550" height="545" as="geometry"/>
                </mxCell>
                <mxCell id="26" value="Mécanique du jeu pong.&lt;br&gt;&lt;br&gt;Mécanique d'authentification avec api et hashage de mot de passe.&lt;br&gt;&lt;br&gt;Mécanique du tchat&lt;br&gt;" style="text;strokeColor=none;align=center;fillColor=none;html=1;verticalAlign=top;whiteSpace=wrap;rounded=0;sketch=1;hachureGap=4;jiggle=2;curveFitting=1;fontFamily=Verdana;fontSize=20;" parent="1" vertex="1">
                    <mxGeometry x="1680" y="907.5" width="490" height="510" as="geometry"/>
                </mxCell>
                <mxCell id="wCsdgcVGhpE5H2-eoxNX-42" style="edgeStyle=none;curved=1;sketch=1;hachureGap=4;jiggle=2;curveFitting=1;html=1;exitX=0.5;exitY=1;exitDx=0;exitDy=0;strokeColor=default;strokeWidth=6;fontFamily=Architects Daughter;fontSource=https%3A%2F%2Ffonts.googleapis.com%2Fcss%3Ffamily%3DArchitects%2BDaughter;fontSize=37;startSize=20;endSize=20;" parent="1" source="31" edge="1">
                    <mxGeometry relative="1" as="geometry">
                        <mxPoint x="1320" y="1530" as="targetPoint"/>
                    </mxGeometry>
                </mxCell>
                <mxCell id="31" value="&lt;pre style=&quot;font-size: 20px;&quot;&gt;Création de du design du site monopage&lt;/pre&gt;&lt;pre style=&quot;font-size: 20px;&quot;&gt;avec page de login.&lt;/pre&gt;" style="text;html=1;strokeColor=#2D7600;fillColor=#60a917;align=center;verticalAlign=top;whiteSpace=wrap;rounded=1;fontColor=#ffffff;fontSize=20;horizontal=1;labelBorderColor=none;spacing=2;hachureGap=4;fontFamily=Architects Daughter;fontSource=https%3A%2F%2Ffonts.googleapis.com%2Fcss%3Ffamily%3DArchitects%2BDaughter;sketch=1;curveFitting=1;jiggle=2;" parent="1" vertex="1">
                    <mxGeometry x="1060" y="890" width="520" height="540" as="geometry"/>
                </mxCell>
                <mxCell id="33" value="&lt;pre style=&quot;font-size: 20px;&quot;&gt;&lt;br&gt;&lt;/pre&gt;" style="text;html=1;strokeColor=#2D7600;fillColor=#60a917;align=center;verticalAlign=top;whiteSpace=wrap;rounded=1;fontColor=#ffffff;fontSize=40;horizontal=1;labelBorderColor=none;spacing=2;hachureGap=4;fontFamily=Verdana;sketch=1;curveFitting=1;jiggle=2;" parent="1" vertex="1">
                    <mxGeometry x="2895" y="890" width="510" height="550" as="geometry"/>
                </mxCell>
                <mxCell id="39" value="&lt;pre style=&quot;font-size: 20px;&quot;&gt;&lt;br&gt;&lt;/pre&gt;" style="text;html=1;strokeColor=#2D7600;fillColor=#60a917;align=center;verticalAlign=top;whiteSpace=wrap;rounded=1;fontColor=#ffffff;fontSize=40;horizontal=1;labelBorderColor=none;spacing=2;hachureGap=4;fontFamily=Verdana;sketch=1;curveFitting=1;jiggle=2;" parent="1" vertex="1">
                    <mxGeometry x="2300" y="890" width="510" height="550" as="geometry"/>
                </mxCell>
                <UserObject label="Frontend" link="data:page/id,db3UW5o8uzbsHJE9ypJ6" id="ooqMGy5WdNG-MSYMhVbF-40">
                    <mxCell style="fontColor=#ffffff;fontStyle=4;rounded=1;overflow=hidden;spacing=10;sketch=1;hachureGap=4;jiggle=2;curveFitting=1;fontFamily=Architects Daughter;fontSource=https%3A%2F%2Ffonts.googleapis.com%2Fcss%3Ffamily%3DArchitects%2BDaughter;fontSize=37;fillColor=#6a00ff;strokeColor=#3700CC;" parent="1" vertex="1">
                        <mxGeometry x="1140" y="1600" width="360" height="80" as="geometry"/>
                    </mxCell>
                </UserObject>
                <mxCell id="wCsdgcVGhpE5H2-eoxNX-40" value="DRAWIO" style="text;strokeColor=#b85450;align=center;fillColor=#f8cecc;html=1;verticalAlign=middle;whiteSpace=wrap;rounded=0;sketch=1;hachureGap=4;jiggle=2;curveFitting=1;fontFamily=Architects Daughter;fontSource=https%3A%2F%2Ffonts.googleapis.com%2Fcss%3Ffamily%3DArchitects%2BDaughter;fontSize=37;fontStyle=4;" parent="1" vertex="1">
                    <mxGeometry x="1235" y="1560" width="170" height="30" as="geometry"/>
                </mxCell>
                <mxCell id="wCsdgcVGhpE5H2-eoxNX-45" style="edgeStyle=none;curved=1;sketch=1;hachureGap=4;jiggle=2;curveFitting=1;html=1;exitX=0.5;exitY=1;exitDx=0;exitDy=0;strokeColor=default;strokeWidth=6;fontFamily=Architects Daughter;fontSource=https%3A%2F%2Ffonts.googleapis.com%2Fcss%3Ffamily%3DArchitects%2BDaughter;fontSize=37;startSize=20;endSize=20;" parent="1" edge="1">
                    <mxGeometry relative="1" as="geometry">
                        <mxPoint x="1915" y="1430" as="sourcePoint"/>
                        <mxPoint x="1915" y="1530" as="targetPoint"/>
                    </mxGeometry>
                </mxCell>
                <mxCell id="wCsdgcVGhpE5H2-eoxNX-46" value="DRAWIO" style="text;strokeColor=#b85450;align=center;fillColor=#f8cecc;html=1;verticalAlign=middle;whiteSpace=wrap;rounded=0;sketch=1;hachureGap=4;jiggle=2;curveFitting=1;fontFamily=Architects Daughter;fontSource=https%3A%2F%2Ffonts.googleapis.com%2Fcss%3Ffamily%3DArchitects%2BDaughter;fontSize=37;fontStyle=4;" parent="1" vertex="1">
                    <mxGeometry x="1830" y="1560" width="170" height="30" as="geometry"/>
                </mxCell>
                <UserObject label="Backend" link="data:page/id,FnkjyvJ4f86FPR9UOOV4" id="wCsdgcVGhpE5H2-eoxNX-47">
                    <mxCell style="fontColor=#ffffff;fontStyle=4;rounded=1;overflow=hidden;spacing=10;sketch=1;hachureGap=4;jiggle=2;curveFitting=1;fontFamily=Architects Daughter;fontSource=https%3A%2F%2Ffonts.googleapis.com%2Fcss%3Ffamily%3DArchitects%2BDaughter;fontSize=37;fillColor=#6a00ff;strokeColor=#3700CC;" parent="1" vertex="1">
                        <mxGeometry x="1735" y="1600" width="360" height="80" as="geometry"/>
                    </mxCell>
                </UserObject>
                <mxCell id="wCsdgcVGhpE5H2-eoxNX-48" style="edgeStyle=none;curved=1;sketch=1;hachureGap=4;jiggle=2;curveFitting=1;html=1;exitX=0.5;exitY=1;exitDx=0;exitDy=0;strokeColor=default;strokeWidth=6;fontFamily=Architects Daughter;fontSource=https%3A%2F%2Ffonts.googleapis.com%2Fcss%3Ffamily%3DArchitects%2BDaughter;fontSize=37;startSize=20;endSize=20;" parent="1" edge="1">
                    <mxGeometry relative="1" as="geometry">
                        <mxPoint x="2560" y="1435" as="sourcePoint"/>
                        <mxPoint x="2560" y="1535" as="targetPoint"/>
                    </mxGeometry>
                </mxCell>
                <mxCell id="wCsdgcVGhpE5H2-eoxNX-49" value="DRAWIO" style="text;strokeColor=#b85450;align=center;fillColor=#f8cecc;html=1;verticalAlign=middle;whiteSpace=wrap;rounded=0;sketch=1;hachureGap=4;jiggle=2;curveFitting=1;fontFamily=Architects Daughter;fontSource=https%3A%2F%2Ffonts.googleapis.com%2Fcss%3Ffamily%3DArchitects%2BDaughter;fontSize=37;fontStyle=4;" parent="1" vertex="1">
                    <mxGeometry x="2475" y="1565" width="170" height="30" as="geometry"/>
                </mxCell>
                <UserObject label="Server" link="data:page/id,dDpA58bLws05LAVD23_D" id="wCsdgcVGhpE5H2-eoxNX-50">
                    <mxCell style="fontColor=#ffffff;fontStyle=4;rounded=1;overflow=hidden;spacing=10;sketch=1;hachureGap=4;jiggle=2;curveFitting=1;fontFamily=Architects Daughter;fontSource=https%3A%2F%2Ffonts.googleapis.com%2Fcss%3Ffamily%3DArchitects%2BDaughter;fontSize=37;fillColor=#6a00ff;strokeColor=#3700CC;" parent="1" vertex="1">
                        <mxGeometry x="2380" y="1605" width="360" height="80" as="geometry"/>
                    </mxCell>
                </UserObject>
                <mxCell id="wCsdgcVGhpE5H2-eoxNX-51" style="edgeStyle=none;curved=1;sketch=1;hachureGap=4;jiggle=2;curveFitting=1;html=1;exitX=0.5;exitY=1;exitDx=0;exitDy=0;strokeColor=default;strokeWidth=6;fontFamily=Architects Daughter;fontSource=https%3A%2F%2Ffonts.googleapis.com%2Fcss%3Ffamily%3DArchitects%2BDaughter;fontSize=37;startSize=20;endSize=20;" parent="1" edge="1">
                    <mxGeometry relative="1" as="geometry">
                        <mxPoint x="3150" y="1435" as="sourcePoint"/>
                        <mxPoint x="3150" y="1535" as="targetPoint"/>
                    </mxGeometry>
                </mxCell>
                <mxCell id="wCsdgcVGhpE5H2-eoxNX-52" value="DRAWIO" style="text;strokeColor=#b85450;align=center;fillColor=#f8cecc;html=1;verticalAlign=middle;whiteSpace=wrap;rounded=0;sketch=1;hachureGap=4;jiggle=2;curveFitting=1;fontFamily=Architects Daughter;fontSource=https%3A%2F%2Ffonts.googleapis.com%2Fcss%3Ffamily%3DArchitects%2BDaughter;fontSize=37;fontStyle=4;" parent="1" vertex="1">
                    <mxGeometry x="3065" y="1565" width="170" height="30" as="geometry"/>
                </mxCell>
                <UserObject label="Database" link="data:page/id,hwZKizbyYwxqMcTtzIBE" id="wCsdgcVGhpE5H2-eoxNX-53">
                    <mxCell style="fontColor=#ffffff;fontStyle=4;rounded=1;overflow=hidden;spacing=10;sketch=1;hachureGap=4;jiggle=2;curveFitting=1;fontFamily=Architects Daughter;fontSource=https%3A%2F%2Ffonts.googleapis.com%2Fcss%3Ffamily%3DArchitects%2BDaughter;fontSize=37;fillColor=#6a00ff;strokeColor=#3700CC;" parent="1" vertex="1">
                        <mxGeometry x="2970" y="1605" width="360" height="80" as="geometry"/>
                    </mxCell>
                </UserObject>
                <mxCell id="206" value="" style="shape=stencil(lVvZchw3DPwavbJ4gNez4/yHqyxHqiiWS1auvw+YLc4OGzs92jcdwCwHBBqNYx/Sp59PX348PkT/8/3t9ffHv5+/vj89pF8eYnz+/vT49vyuPz2kzw/p07fXt8ff3l7//P718vuPL0Ny/PTH61/jCf9c9KprMpSi//fyh+hi+/8Pv17EX56/78SbC2kRF1cSE09xES+ueireF/HuAhcvi3gIrkV6+LrKi+vk+dX1tso3J5XJ1/Vt1ZiZnKc6WY2p5mmdyYe8yKfgMj2PX8+Tikvktorr6/PFu0acQeXX50t2MVP51Z6i90uer+df5bPak9onrr6c87Twkf1X/8l643LH/ebueqH+A97P76u56Ff5RO2v3gjyxXly/ubKap/SqP2b62s4Vu8Ked+O/lkjfX53EZ6v70vuqzsB+ewyed/ualjlq0vEPzveV+3Twjflg3d+BZQWnJCAV4W4nqgll4hHqIKsR2o8xFShwJE0ivg7tNWobXOT2wphYvIG0sGlQBXiCnM90jBTBb9aqQtXyDOr7BQaM2t3BRSyS8RKmubANVShkVBQZK7w0oW6RtIjNVRg4CIGLbriGbFS1gMEVGjkpYtgfu2N5uOq8GYUIgNswz5UgcVDiwgBfTPDbYWMAaQvXRlGlnmvu3uIxL1bwQBS966ME5Xpm5uC5zBs8qbGND1SnRixKQgFAVUoq7c2hQX2Cc35VWFcJXsHzVWQGxTIiHurApARTQ6ekTvF6tVK6o6eob1HLls69VZVgJgu6ktMIbiyRlzJ/EgBb1oZAGOc6mpx9SWlGJV9QpzP+yCHUQVwjdxm1jtSADBW4AknnwBHklMF+IToPLsHgxrZT2p5pJDWIynaehIP4x6AOuczswITkMR9ySps3vVBBU0xZ760WinVmQAOrQQKmdYXqpDXi0uJR1zEpKh5NXEFAGMldZnddEIgG6ydvUNyAQrmwkllwho4nsR0QiCLgcdDQmwNJzetR1rfIVSaslQBfEkpV+dmRYU08fzwHVbXCJGySlXI8NJ+0v1DBchx8wmHRlo/gPOx8fz1lTMlfMORwLdpM0LzG8aza+T8o7IoIC+s2O6YcBOlxLUg/0wzn96WN6kqUU5SGmJwnBz8iK1i2NAaoHishrm8ZrESUZ5AkeYkkTveV+p0r509CVHVfJHQHxj4pjZ7UVd51pxSaC54fhZf0RC2RO9rdA7X52vWZ/J+9vau8rTsNJxWqP8Hsc9nrU2FG8h+QhN4xbJZqPtExHShaSkghxJannrXUbwQLDFdCJk57UDcAy9wndyUn3GxAyoSiB67uFsKPxDPCAu0vYGoHGl2D9gXiC7QW4WOVKSZ3TIB2pwXLGgibY/JfYAmWLYm6gQ3xCu5VXMYoYYUZGFCk7kxpNDOh7kmoVBmnICPFYyLCSVfxoGFtnlMeGjpT5HABF+5L7QDjVVBF6sclgqIs1c1oBdnp/FjkMqD707xipbhSDDSB5omspalWBxj4afpL+F5GHYMN0PwiDx9G3rGavAxfAC+TmMqbWzmKl+IfZTehA7yrFKUiEEbaG9T6RnQFS03iD3z5i1X+UycU+kl1Mae3q/SV6h/PL2vQY87yDN6WcxwyfPeb8Ryw9NWVy0IDZ63KD12WE7k00T4nTyxT6uTfe7kWQ3tcbjK7dnF2pPR0W6H27y87dhKT/PCD/DHIH+eXYGjD8BpGm3VD3lopFMHVfkCAez5NLDj+DZE3hHrBiJkTiyPFKA5dNb2aDPx7xsrzKgNjRQ6rcpUAUYsA+fYNRhcPMnwYygEHLVQT1IF6HIr1tPuqk1NnWKpKgQodQPv3ZQ5jNg1GhP7hDK75rtWJhv9qgJWx3WO144U4OLS5r+HClBfhtn3PjwSFLyJsq3x0kBzM22BDLNCUVppEh8jTNt4Z+9gbnq09hkIVBwuZ6FtqKEARyocl+r896bAR46q4GHN4iQ1lNk42BROXtpMcseiCLvpjLhU8uxWHikkUKg0ffaEqFE6LbF6wvRT+e6EHXVV3qC007eaaTmhCuB8tXFv9cgxlKWwyk8V4EhjMMtnlDDqGjzlZEYJawQnzufnasWmEDnR8LMRtSkIb4x7s3ewwcJtKtYQvTWJMeRrxWyY8CzaIhYjgz6x5njFEN3xp9saAcvHzgetRTBRjzPxigEXQDrlPwOsAyow7qAZCmrUwYiIM2laBnAdBIc1jcVsfG6LArdpa0OcOVkxCYIxqgo05JBVKp5ncm8ZaevYF2FzBKybu9CGZMYUOranmB/h0uRYz6JLmbjD1ugSbca6uVWaPzOOcBtfyswYN40XMhnTQuNLlnm2wzaQ7xRcBJlh5f5gxlCadVh7T+YazC6tsUmpILuont5XMkuo7aSJDHl5LJXS8wBsDS5CO7e4tMr3GEzfovBC3siPpV5+nvV+x9IwbVRD/CpDZfWUuV/plD6K6Q7nudb8MfuPpW16fqCzYymc2h+Y4Ki96PvCmHEstdPz26V5bn+oQcZSPn0+zCFGRqD+36DmDzQNi21zsDGmzH7A5s50X8uI81mBTOjbNYnpuwK75C1uc1XhBKlMh5WVoxnpDC93t9XvqzhPE+YwrNooOFwPtLovuPMWKIupmIMCHdRVhJwwc+qBeMGzs+Kwzrnc1QnYwOjOLwydiusP1+8mfXt+ebl8tWn/f/wuk/7p8j2o9Pk/);lineShape=1;" vertex="1" parent="1">
                    <mxGeometry x="423.521190802815" y="2105.733571563919" width="467.09657612011654" height="826.2187745003257" as="geometry"/>
                </mxCell>
                <mxCell id="207" value="X" style="shape=stencil(nVvZchw3DPwavbJIELyeHec/XGU5VsWxXLJy/X3AqLg7bOz0OnmTdhszJHE1AO5Dfvf984dvjw8Sv7++PP/6+OfTx9fPD/mnB5Gnr58fX55e7a+H/P4hv/v0/PL4y8vz718/vv3/7cNEzr9+e/5jPuGvN7kkIeqUkvj32yc5xPjvBz+/4b88fQW8bHgNPRN8CmNs+BqKcnze8D2UQfF1X799Io0KpLoLaFD2hhhq2wX6esSZQNqPSC6HfFNghJp2fL2Dj/uCsr2R6MxOcF9P1pDTOb6FsZ9Q7kELw5ddZSpBKF7AhEroRAMV16NjvfEE3/qGLzlkYhJmkYC3FXaG132/NS2NnOBz3PEamjB8Apfp65MTfNztp6W1o5t4O23A23qIQZdQy45vd54P9tZjiERfJehuz11CIudZljYveL2Dl91+ellB5gQP/tV7aOT5Gsau32ExhpyPhgr4TP1L0d6GnRjxXw2y289odD1mn7v9jxqExei4lntY0GBJo4TmBFgWsIBZOwokorLsovowmyYCGtfXB4HMnCCuPHcQiERrNWIYMjV3FhYjplYTqERv5oYjoUAhhmp+Ap48LY9Elj5C86ZKTM++Tu4NLB2bqaEzSBgs+Zntw7FGyhBMTbIL9EY3PU/dxQslejCBuDtczzTg2RbLvul+0f1tgRQahOxKU6CdSdttqQmNMaZpMA1LOkLeYDERsn7Ni+rdFrBT35laGctDbgvU5ZAXAR41TE0Q+EpaqejMH/K+JG00kJleC1ARXeTttoCEDlwnrex7JpCAjw+a/HtC9pgrzVYmAC5qdJA5kNkmGF+W5SFnAnCsRlAZwesu8hnHpQzSrHXX9ExiXAD2YHVOJ3swgbGTAElL96eb3t+QBjeNS9g61BUsCJjA2BWXjPkxB0oh78dqpY6wN6SgUBsJjXzT+PbYOqsl5kDiuBWN9t4d2rLeM3zZtWBkkUUxwRSa+fod9ck0YLSOqcHMjjhnK8jFDE/Ox6J6xfWw59exKMhh/eT5ta1Edi33WWarLtkqLU2tcuoR8ay0aGu5Vzwr7YrieeoykDOWB26v1OstX7SBeBLpLF10fH4lHmmVdC6IJ/afB5JOpRQyt1U5XfGN6MtSBdSOuhLcbbxgsrFiiaxHBrKKQv191vqIV7L+6d5AQqi/W9CP0BugyTU5Sl4oKTI8xAdemqaK9lCofn3lVXh3zNXWuh5whhfULyvF5/MxHrLzn+vHeBjZebpaVhZTODv/lAHPaPLUbwF8Zs/vq7NyxTNGapxBEc/8y/ADz5PpVyJS5Eyfb3igEMr969KJPPg765UaR3L+y1oPHeNzWQH4DJ+cf3H/xZqD433vkNY0qWB72/bL9Ot6Y8rjg+t18fw4/RH5Dz3PstLVwd6Yv1Tsy8hK+Gd4yI9C87Xpq6K/U3/8j3izZ+zN02psHgfiWSt/9m6BcdMekeXHBFUGbcXmhPE/Uf+y/A72luiowPOHtA7gB/lJol0Gz3/SMvAf5FdpBbwf5G+XmumUHyriib6Mfwrql+Ib9p4SH0UkjD9pFUxn/Dzi+imfr1g380re6ouigGf51+oX4BuRFpxWH4kAnp3PbJHi81kfedZ3A/C0Jtc1LT3gWf1YV9fhiqddhY71rPBeTff8jdlzd3y18vU3nO00Wp8aHvjhJeGfnU8D/028ZVGxIE+Za6xiRZuUdoK6azhbkqpsz+r6NJ0G3a5odHJnoJtXEXVoTjFaMPuWQHOV6zlj3JoNNraHC+88tPAia39lnGrlyI81u0anUC7aM+aCOfdmzSPFZJZ5l90EINrlvvzpzJag3NM7HeqC/qDK9VDXBOjQ0qYdLfNoqBB5CrcQA/chSqHjwj6wZ1AuVc5NgRHRvGumpjEEs0JttA02p1i7eVsiYq3UobjpVtctj9sCBYlFG3xMVbFSnL1MNuJpbmyufNMd76XMbMT2MILAmMpUyU7J2N3uDyPx8j5GzJ93Zp6juWG7hVuuCN13bZ+wwDQHlm7QSwdb48Z0m4Y+xenFnG6zCznuRs4oNCvOUbJ7A5tu14i8ZE7oWSM23lgSS6Ma3bC60laFlS4aUYD13iS7+Xmj8d7yOJKTThU37441FGj0JlUGUxqrP3V7z66aipxPRjdu71Rt3t0q9WjX/pmWSiKxGxXO2TjrPzhfi/wmCZbvkyAzm8Dnz4TK6nHkSV15/Y6prfM8knH8NeeMxJEz0vl59Yr157Gd1pTWXxnH0/PqGKvH0X7m1TR6dQnaFZWvRxeTuOB5ferGO/PqHsUDO5pXAykeEpqOO1e1oB07rzYSfRU3LhNKKwpmDiOcmc3XsB1lFJjdXXXlvrH4Qa9yJihE+E2whjPv2e9iuRWvNt6bkbsh/B26jAR+hnjG+PFaTafu2FdwvVbXyiidqw7oHbaBmxVafAyMJcKZFt5RksU3T+AN4awxM5A+CD33FF09SuOy4V1fjM7hHDsRfg0+YcUhPM8l38dhfWTDQ+ARTmXSSiOHPhHDu2v8wuea/+NnAhxvf1x/k/Dp6cuXt580HL/H3zDYR2+/f8jv/wE=);lineShape=1;" vertex="1" parent="1">
                    <mxGeometry x="1426.3106437549704" y="2096.081560170869" width="573.0168279799022" height="808.7568445895033" as="geometry"/>
                </mxCell>
                <mxCell id="210" value="" style="shape=stencil(lVnZktNIEPwav1b0fTyz8B9EMDAOZmeIYWCXvye13pbVKSsdvNlyVbvrysoqneK7748fvz2cgvv+9vry9eGf86e3x1P86xTC+fnx4fX8hk+n+P4U331+eX348vry4/nT5fu3j4vk8unvl5/LCf9e9Hyz5het4H5dngRvPv335MNF4en8vFUoVsOsUK04oZDNx0khJovqH5IFUuhW1T8E621SSMVSFwre6mx0TuaUgrM8KxRvrR0rdGt5lu/DCwfypU7yNUuTV4cM+QaTqrxPmeWLdW1wnRV6HE9uK1iYQ9CzNWEwHDrLt25dJYWF+T4V8sJBwfwcgBosC4Oj5TnnCjJC3AdJPVcBMqgJ+TJuu6YoAiz80yzP58cyUuogwJ3KuMmEQAmQg+DipIuMqhKFLRWiuTlkSKr/L3lU95TUSCERMly4zzcCcCj5anH2EYBLhCwCVgpb7IQBCBFVMdK8CoXkGIdwpawU0iiqNS2yRZFGqZsjH0WLIo9yND/bkL3E0lw5L3KTlQzk9HOYS5ZYikpMiWtZxaHU4ZNVAeUXjhWW8+Z/aFGmxoLOc/W0Nqy6reBGta/46C0KPEW/aHMcgNheGF398MmmJXgRaRjNPSfJ+sTPbcbsxdECY2odkLtJjSKMbo5RHvmbhQ0tjPNWBWdJwerOhugHebitUEYirCWKdFQKzdyM3B4wo2zoFuZcAjYrHOuOcXKN5G35HdR7iUp9Vw1O4jCYQagkH9X5iRmkGy67LV8YYSCvWuHq76u8alS9Maj6AZq35TunhOaC3uG+HLAmyqDvaj/ek6cAwMOKnDYuszzYz1EA+mxw0QEDMSD2a0ElRLTO8k4ldBgDx/X+Rd3HM7nTQIcCI7acRgCP5AmFouxPkCd7g/an54LXIxr807hgkvIneNOuIFX+ZG5mTvsHFMGRfFAF3MZ1r/JVAVC3RJA7posjeSKOYbDtQ3muR1kvfypfuSmBbMtpsYwGsSq0exEus4eC5o1IoUomIKmUj3Y5ndaR7bDtURFjJhRZ1KolQi0AsUgLtG7qY6VJdg1yQEaDN3ph9MISaQwPFtWVPCMFajso3tgszv+A2KvUgIl0JVSrolAg30QD7zFToC8RzSKTD6SPZn1YpThXLrwxqlEC9n5oATNV2wfQykgdx8kenvbzfhxTydFoR9madJPFIJepiVS5IYhuV6Kad6Gr0vwLXFI7gissbmAmaAUKHKhsF8kXdlTWF9kafB+db7UhyD2Nr9yrQtfbx8LTJuKgatrncd5m+6ji4BOjd8YRAmZ8ZC8tI7FaxsWBpJuJWW7X4hjk1pp25pXRYTDMFTWQ8Mpozzvae7g0KMh1e6RZxo5ko+kpE9xu5i8yVx1HbQFzeX6mrUUeTw7kaUMIKG9qv8YxLl5udsJA9Q2CqW64m+qWjaXI0sSkPza5Ec08BcYo62y31AnrXHiwEU2UQF1PRUz6Ie9UkbmxF9uSMFXGni0AOKkdNoqMkAUKiqiijCkGUJDIkpgtLAr6ZQ5FzVcNRYU3ZVCQaY3pPbJb1ToEP1NbwxO5Z267K3U5Py7nzUYvGw418f/xS7X7CvhwfYf3+fz0dHkFuP2d3/nh0eV9YXz/Gw==);lineShape=1;" vertex="1" parent="1">
                    <mxGeometry x="1610.6906942129544" y="2301.6827619943306" width="189.53561320394897" height="285.0311406535525" as="geometry"/>
                </mxCell>
                <mxCell id="211" value="" style="shape=stencil(lVjZbttADPwavxJ7H89p+h8B4jRG3Thwkh5/31GNlUXKmiJvjsLRLo8ZktrFu7fnh9f9Lri39/Pp+/7X4fH9eRe/7EI4vDzvz4d3/NrF+128ezqd99/Op4+Xx8vfrw+T5fTrx+nn9IbfF5z30vyECu7P5UmUWv89+HqxPx5elvZRvLb3TkokgCw+aUCXlgmgyPS/BSAk6eyEKqlqF5w4BmhSsgZkCQQQvHh9QkrUaQSxOAXIUSIJa8jS9QnFSSdRCm3ceAY08W4bgJgYHyp86AQQbB4qT9w1iAPQ4BU5IaH29JValUYAGXnIFlALATSJ0QKC3waUKs5bH2raBtQormiAl0pKo6K8uw5rlkxKA1F3mkClSyY+4AJZJ64EySRKLUpuuloTjVJLknV5pyyFnZCs07GOcty6UtBhDV0qd7rrxIGDjfChgQ/6ShCeFkgeoBo6rNDO1CjASGUfqrBln3SiUdzMvq/SNkRkK0RRewwBYCGN4/hFayD8b8XmLNL4tLZuPSwB3YszKkzJ34N9f6E11+OQt2v8Wd/pSZyOP/SRSAXeb/oUCoglGA44U6LoIixCzt7Ig6nEBahh0SlDuw6MNXl1AgCs6ILthLhSJT6Al2nlNCtT0KYbH8LQ5E1emhMcbf8ABE3MRtMAYnojwEORt1yu2j6PLrQV02bUlBM/S7JEzizJqPtm7AsrbCdRZyANpdmq62imI9o9QJxsWianwWfty+DtYkRNTCmqTQA8bkTqereDyzRdsRHVgcqmxfohr1tHmKRlR4epjn62GjnZUIswJaOn6ECkISAPpmNi+MnsSm70+JloYXi11XIM96emwntg0wBcMhIf6ixvM6BQScUEaU+AWrCRcyV4SGXgU3BPFtDJCVhWjB4tyuv2KJ/sqIAjGIXAsKaPAEcSuVNYDXgTaxlgRYhpWSCq5FcqNhUT41yxsz/KlVUfOlnUJ1RHU43GZCaAEocwbMiAJB2lnMeT2/UtQetMKhJJkOYFbdalQrtzsnyLfnD8diFJNUJZqIqtOtu0ehMuYALX/mKk6qSwnd2l0GlJ/Fc1F2lBzNmfb093eGd57Om6vNqWERpymTi+gQxzR8U62R7uaGViK27GnAnKvHUv3s4mkLGvXs0TazRjD7hGxjFlcGOlv9qzxWPa87R9oN8EPv1N7b/2+HH9gPd0OB4v3/+W/7cf/PDo8rEw3v8F);lineShape=1;" vertex="1" parent="1">
                    <mxGeometry x="576.72293709312" y="2364.1759400280816" width="181.90296988372552" height="245.58984929248027" as="geometry"/>
                </mxCell>
                <mxCell id="212" value="" style="shape=stencil(lVfZctswDPwavWJIgOdzmv5HZuLUnrp2xnF6/H2hasgaVLVu3mR5VzgXICd5eNs/ve4mdm/Xy/nr7sfh+bqf5NPEfDjtd5fDVZ8meZzk4eV82X25nN9Pz8vv16cZOT99O3+fv/Bz4Qlxmknsfi0vQqDq/7z5vOCPh9MN3jtKzhKERAAhURRLcMRhm8CBvCVIpgwIEsjZGCQRgxhCJMeWECjEbUJMKwuaBuBSSpStBY6U8zYhFyrBEHwl77YJVUO0FhwJMFAzcR7wjPBlbAymUgC+u9vwmSpDfLZ4H6iAGiihVusQU0URKCHaonkKKKWVok2RVGIUc6E6aEGrjAnOG0J0sFO1ykPQkckjQhyDjp64AkIYLYRMBehZCUPjBSaHLMioBVVbQlkSilYLnEgStjD0Uk/0Vgy+WIKjiAl1GGKUUJJiE0s3QA6ruY5qhngV1zAuKCN/StNWwyf8/ToObc8kWP5DgjQCD7rCux5hZxRKqAa1hXgz5tFMnUeSDVpXVUEWSttknVDvlUFsGVRtcAB8lJBrU28vXIKtnTJ5ayEHOOh1twVLKL45ubU9xQ6xUpqctvbzELTKyQECrwk6aQHBr9btTXv95zFGuwXtz9U5SUtZgAGmkEe8Q8eksbk1R6i5fctgx/tW+H/idb5Z/0uC8Xb1dryDE2alZm27CP0Z8EmbCMz4lT/Jw+2/ilf7HB5Tx3yqMCM4jqzqpWuzgu+v+kFllD7Sb3fO5ffx+vD3EvByOB6XO8Tt/+OlQV8tFw55/A0=);lineShape=1;" vertex="1" parent="1">
                    <mxGeometry x="2034.8491965730682" y="2424.206197853051" width="234.9283414637921" height="29.1430628459716" as="geometry"/>
                </mxCell>
                <mxCell id="213" value="" style="shape=stencil(7VnLThxBDPyavVptu59nQv4DCQirEEBAXn8fT1Y9TLtnC+UYiduydG1321Vle+agFy93V083Bwkvr8+PX29+Hq9f7w766SByfLi7eT6+2qeDXh704vbx+ebL8+P3h+vT309Xy8rl07fHH8sv/DrhOJHmBSXh9+mbSDn8/eLzaf398WG7vlLTYb0I5XweIExaBoDGvuU+QKmm8USJGjiSZNI4AFKhKABQqdYBkCsVANBApQ2AUuGlVYjHHWqmwACgFHkANPumQIA0DygVAngMa0sk6EhCacx0y5TQkZjieOlWetzOhTW4I1UIsMSpO1KjhDKdp7C2zt99QPQADnZKxD6hmPwWBW0RKE+XYADgRqH4MAkCFK8gSwQjUZcpEQkmgjMVF1cTNWAfa9fLRhCCdmBiJ7lEFQAqpXF9xkZmehzXJ4W/r94CzJU4ggtQHE1JEwVAVWPFuF4KDNDEIksi0n/yjmTLMSVcwoQakmbzdUGhCmLs0V7zRQ24UQ5UgxMmBBhdXII5UkmAQIlimCIKMmaUb2NILekNGOTGSlZEIwFnMsf1UW2dJ/sA7ha90jR3Ie3fWntaNzpIgEeLDF3xDLAsWG2tMgJyt8x9ppaJqhZpcGk7cXYAawlA5mLrTNgAKgKkqQHInS37AOkOvbGvgOyl+TJStJvyPmAl5woIuGMo/ki5QC5ppeAAJloAiEbv0cOy9OZvH6C+7hiXIoiSkbm4Vq+RAkAK3YU2AAGJS9HXEQM0QA1jq5NoZniH5YqjCWTtt9oHsL/DIqB3AE6iDdaSRcGj2ReB7WqqU3W2+o8AsZv1Rg8NmQBTmDSN7DuWHQCit5FPkz9SRiYQSEZvNYlWwCUTELuwMtTDIlGnh7WtOQfIzlsTjJK2aQeFbUzknqYNvQMq7LsA7N5pvEMS2N4urcBU4wKqQGaVYx4sDKjXW7jpyq5FCe2QfR5sttF3Lj3qYel/EJeKn9OtwULjm00y6tqZigE6NSfWEaFBRnweLEoo03YkGd3byiRqHZYm3bm3WRsClB7ETQWCd2geYEbGwAR0epxR11t9DOofg/p/P6iX6Q4Mu3XbIboi16CTcZoKdcCPAmRqySrsHWwydDtYcxDRrNgnns2sXlFz0mmwOmXsvcSZWT34WRd16tOUmCDtgq8MCmcZ9vYilFFZ6H3dqjPsLX5MD732nomkK4MBCqb4lg1LvnXffFsO1RX8LBz68c4Ss7rYIKNm9aOzwK6Cbdzyz1TQWPvPz/LfXW8f3l4c3B7v70/vHbb/9y8a7KvTSwq9/AM=);lineShape=1;" vertex="1" parent="1">
                    <mxGeometry x="2267.90425268314" y="2365.3904754793894" width="124.17709556051136" height="173.67417195365192" as="geometry"/>
                </mxCell>
                <mxCell id="214" value="" style="shape=stencil(rVjLbhsxDPwaXwk9KFE6p+l/BIhTG3XjwHH6+Pty62qzorzjBuht7R2uKJIzpLSJd6+7h5ftJrjX8+n4dftj/3jebeKnTQj75932tD/r0ybeb+Ld0/G0/XI6vj0/Xn6/PEzI6enb8fv0hZ8Xu0AuTUbB/br84T1l/vPP5wv+sH9e4JkKd/hMLq/DC2Xp4I6cW4f7QIkN3nuAT1R97z4V4I6vFPrtRqplHa/hSbnDJ4ogOvqak8G7CPCFOHZ4pgTwMVDMxn9B+ETTuw4fEb7acsB4jpS89Qfkl0v73Pt+/zp4FZ8CiTf4mAA+2/0yOZCv7Fr1LvYL6i3r9vr4BMqgfrLYegjkZR0vnlKy/oN4Ctt4ZuiPCCXX4Stke3FU++8r41BAS6RiCFkogQwXodAbaAoQZaoj7lOmMWLgUs3E1Ro44FIVysYlFTlQFVVVzrDMk4A010rcp4Ed5QoNSul1RYUOEMG7WWjnytBdY5+kj6vkWwa+1/aSW+DWwhRN8XGT17VEhL4bTGuiFXJ7vTAQwIeaWmJng7larhvMQZw3XSkhAxWUPnOiuQSUVgPXF1Mu5EGqR4OUYBMcXWJuJPzHTUelHGLQENYgsK+NiZsaAyK12EauBvVDxafSxyhKQ3lHwZseCMRCFQ0jI0dThRajDIj2E1Tfg9CoQKMBZpSyGihgjhqx1E9AsRzkeBGH/2URbVufIgdYOpG4WAM0+KjUeROnRIIbozMrOJhrmT1eyGsFK6hcm15dbgwb0Q5XuqYHURLXHFi0iADyMI4/uiZqW+N8JXgAHQc4ZQSaQMcJUWeuCqI0jqBqkEHixhlXDQSEdRyidQ9oCh2ndMFj6HgMmAyAS+M5Qw0COiiVpo2LTTPI9HRS6pVJq6uATYfBpVzh2UcHT+kFPOd2eF07TLIxiHAC8rM0LvSbUZuzeUszZ6/XXkvS4vsZFHewkqEzXwQbUP8HPKojb6mgAUJJ9raFKl2RSLpG3UV8EJld62WLqTgB/x15M3andj+xgjf9WZmHiOna2WjGh9awV/ChVwo9aAiIp7O3IxrhAP2vffx9bjPKSr6471E+wmn4o5dHt/H68H5T9bQ/HC4XXcv39mZL/7rcisX73w==);lineShape=1;" vertex="1" parent="1">
                    <mxGeometry x="2641.3700184795844" y="2299.16581430113" width="450.1616798566215" height="41.66198551193588" as="geometry"/>
                </mxCell>
                <mxCell id="215" value="" style="shape=stencil(lVbbctpADP0av2p2tRdJz2n6H5kJKZ5SyBDSy99XrmcBrY0ob8bssXSOjqQd0tPH9uV9M2D4OB0P3ze/xtfTdkhfBsRxv90cx5M+Del5SE9vh+Pm2/HwuX+df7+/TCenpx+Hn9MXfs84yYB1QmH4M7+JEWL69+brDNiN+2tAAYwGgAhcHABBDgaQBCg4AAEUAygJstwGxBAg2BBVgPNtBBOkYgBEQOyyJisTRzcnJZE6gH4CXZnIpiTKytNV62QLobUM0SEdIGYLIIgOh1pA2AKkuWUVUDQCWjNdSrOKSLl30yScY78oINiT8AC8kFVDOhlFYOrLgHT7/MJ6WmdxypZatldGqp65IxRLWK3qBdAIZDOi0pyynhFD7QDabw7lkqFSD/A0JZWw45AhOc3ACWoHqEDeVNKMu3ZTLzochNv3zgD1hTcBGLiLoLr5KXHnPGxDZJ30shcqoDPFVFaxKU2snEqXAnnR0OJZQ/rZrQAvAuYFgN11EhFCN5RKm803AeURgIpuA1RdSI6qFaIV9c72YQj2/J31FrUZLIE7C3RayHYf3lnRKlFXBIbsBThPrDPlNmTXFdWJZSVNLmOUlu6ZAIi3FLifqQGqk3+mtlkv572lU6jvff/8ZJj6QD46qxI+wFenHeMDerJAsfr49dJJ1LWM74f1O6HTMv9xidSHyxX0bdzt5hvs9f/9lVVfzdfd9PwX);lineShape=1;" vertex="1" parent="1">
                    <mxGeometry x="2683.517511156597" y="2069.0658547408584" width="26.51933371940345" height="98.19911057662011" as="geometry"/>
                </mxCell>
                <mxCell id="216" value="" style="shape=stencil(lVbbctpADP0av57RSnt9TtP/yExIYUohQ2ib/H1FPeuiBWuaN2PrYOlc5J3k4W379LqZmN7Op+P3ze/d83k7yZeJeXfYbk67s15N8jjJw8vxtPl2Ov48PM+/X58ulZerH8dfl394n3EhoNAFxfQx35GIJH/vfJ0B+93hCsANKRgAR9S6DkiMGg1A39niOqDqY/sGApFTX8B1qPcaagy2DSXE4tRncLEDCLg5gIqWLEXSSbsLCLRMuKiQQF5PDWI5ihkluUO0YegCcVRogpANICcUxxi1QuzUJYA8gIDsDIWRHV5LQWELICRnhnLzhqxedYTISmuzLGWQ46Ws3hOrQ3K9kVUmS6uoNxzhcu0kLmZikMcSoVkvBUZwdCipj7jM4MpQCcHKoCpkpz6NG4O6te47j5Bt3nyGmvZvKQ0E8cJTR9FC65ytpW1YYRIQvPC0HpWFUkZzNGhlFC3F7t37gNg5Wawtfa2tsTr4SM2eHVrrEpWreLo6K4A/A0itp7cDqjrVcZ5kRNuSTuXRGiqiZUmVCY41ws0MV7v5PiKArXKX9e8ACupQn9zPoXZkdWvB3TCMaNOg+WNer6cbmau78m4+VbpwvH5oTGdmiEfo+P+ahORIxv27t0St+K7rbCz1AdmzNXhY2MUN2qdPVP8B0It/B7iX3X4/n/+un48HPr01Hxbl8Q8=);lineShape=1;" vertex="1" parent="1">
                    <mxGeometry x="2656.901025489865" y="2098.5129181553757" width="70.31654463406994" height="32.1419105049813" as="geometry"/>
                </mxCell>
                <mxCell id="217" value="" style="shape=stencil(lVbZchoxEPyafZ3SLc2z4/yHq4wDFQIujHP8fZraaMOIpV1+W4RamqO7R1N8eNs+vW6m4N7Op+P3za/d83k7xS9TCLvDdnPanfE1xccpPrwcT5tvp+P74Xn+/fp02Xn5+nH8eTnh94yrkuoFFNyfeSElafPK13n/fne42h+81GQAMUskgNgkqQHgCK/3AVnFN3tDkuTvAwpCKgaQAWj3ATVJsUnnKjXcB7QodQBoL8MqQL1kZwAl9iDXAVVctgCVyAAqLRpAzaIsJJVsc2hBGklaiwTbh6Z9ZR3gJHoDUBSahIQAgqWGNokEUONYJe+cOEe4ESVbbqAOiVwB6vwrygIoUgn7Uh0FoUE8AyAJG1Ir4kkjkh8bUcGNTABhbHXFCkk6FWkDXQsVdY79vAUAxjONBnGDguALJId6oyBoNEdCJictjzc0BoDPWAUhyEAAmrurLIBK+wCqBVslELgQBV2xeeGGo52DbxQroVYlMFWHG0GAj8z7sviB38iaACp8w+aAOhRi+OBaaSOAzaALQD8DANWGTqs40ofYLWIZiq0ral0/owXgRpaxz72CCzGod8MyBmf9wPV0PL90Jq7XBz5ttYOUAlNn6iN8qVDuAl83DDdaEiaokhQurwqbcmmduesAJ2pDqk4K4Slq4u0N8JxGWIGiq60SbDWQkNDmYZbghkocxntxfswhEgB8+6ZInuyP3XOX/ZmOdD9qHzav5Pwb+4IHB0ILN7YA4zeTnvkxfvCKsmjsGKY148RnX8Mf78fH/6f3y26/n1/u1/+PT3Uszc/8+PgX);lineShape=1;" vertex="1" parent="1">
                    <mxGeometry x="2762.090412258258" y="2096.8344033842322" width="48.66667646831161" height="67.29700047409665" as="geometry"/>
                </mxCell>
                <mxCell id="218" value="" style="shape=stencil(lVbbUuMwDP2avGosyTc9s/AfzFC2GbotUwq7/D3KZpxWplGHt9TVsW5HRx747m37+LoZKLydjoeXzd/x6bQd+NdANO63m+N40q+B7we+ez4cN7+Ph/f90/z79XGynL7+HD6mG/7NOIqAOKEofM4nDFX+HzzM9rtxf2HPCZiNPeoNcR2QCKhYBwgxrANyhiAGEBOkug4oBUoygJQhl3WAFIjZAEqC6uQgAsl6qKGdrAHEVqkmyB6gthQbQAJkp0qi91kPEqF6SSOwLav6DE7SNQMHC5BW6OuAAPINUB2AVr3kPiR2ki4LcxZAAnKokStQlzQC+uTruKRlIHQB0gFueKhQO/JpoclJmlqKC4CAnU7rfZ2HLJCz0zjqNUCDjI6HqgMkPUC8ASKIlq3ayuDRO0MkC4gQ/YkLnQcNySkrhtAiWDrHfhICZGOqciuJYqVP2JcNaiEvgALITiN0hLsJEmC/1cUmfVGHNXWNlhw6pOJsCGVn6ZQpt+5fnwgB7JIgV/smQPkJIHGj80KOAuQ0IlJbggvBVascGSDlhq1rFHeP6tbsdIO5Uf56SICWGqQxehFBsG2j0BbxVXtdN9YeS9v0K/bd9EzvAId5ocnomXjutGE/bKWp2kq6YkUyuSqc+mWoxXSKr2upCx7QoQ8iJMu3AHiDDL29N5NY28Y423svJA23k18E8bjzw0fhbXv9OL9An8fdbn7AXv7fv1j1aH7t8v0X);lineShape=1;" vertex="1" parent="1">
                    <mxGeometry x="2816.4626849357055" y="2098.9627517287845" width="78.2035008151172" height="82.66865612288598" as="geometry"/>
                </mxCell>
                <mxCell id="219" value="" style="shape=stencil(lVbRchshDPyae9UAQoCe0/Q/MhOn9tS1M47bJn9fXW9wLHzeTt/wWQustCsx8cPb9ul1M6Xwdj4dv29+757P24m/TCntDtvNaXe21cSPEz+8HE+bb6fjz8Pz8vv1aY6cVz+Ov+Yd3hdcJuUZlMLH8qEmSuHvl69L/H53uIqPhTQ5gChpuw/gRE0cIEfSeB+QC5XoAEn6mauAIlQ9IMP4Gil5zpGkgPhKxccHCiBFLY/7B8qAsAbi7AlTzSBeiP3+hSq4vzYqxfNNFBjUOFwIXhCNAqKgXTQXCplCBYByw1lJgIw0UvWkmUkB6yaj7tjSJKDMSuxlxLUnbh1gZdLxBFEgVPOOjhzQCSWRxDFLEaTVvNgGgJ0AtGqA2HylKwkyW6DiOURzD7hSyf3Gn2plUOhiUvLxiTJIahXKXklmJ+RO074M8QHIojXKgxew25iaF6pQQvG1b3fZP8Aam9cG2UWBHXgGDOa0HICU2pVG2dVupnuchxpY10fCXgcgc1aKvmpiWUI6TcSD7HIvzPrYsSv5wda499n1wRZ6O+kAzbAjWRKzV4YlOoPCmXfFZ8lKGUHhoo6T4aqVryOkT4KrI1CpTZzNq8/GC/KDFc7L21p/BaTzaE/LagDT8GYu6KVDrcZbd/D3aQW+Fm5GoTUQBfa0031DtbmC7m869XytoaH++L8Ptn/H2+Lzdfiy2++Xx+X1/+Nr0j4tL1F+/AM=);lineShape=1;" vertex="1" parent="1">
                    <mxGeometry x="2841.5833649406495" y="2104.5936216420587" width="61.198406378883874" height="66.29239554794935" as="geometry"/>
                </mxCell>
                <mxCell id="220" value="" style="shape=stencil(lVbLbhsxDPyavQ4kUaKoc5r+R4A4tVHXDhy3Tf6+3C7kmvKaRW5rWUORw+Fjooe37dPrZkrh7Xw6ft/83j2ftxN9mVLaHbab0+6sXxM9TvTwcjxtvp2OPw/Py+/Xp/nm/PXj+Gu28L7gmBHqjErhYzmJASH9Pfm6APa7wzWAkKMBpIgSHUBBtQAq/c1VQC1oFpBbN7EKkIzYDIAzQr4PaIwsBiCE2hxAg9gXpIIclxRAFtACmjgA5YQsICMHJ+iKVCxAT8ihlSE2aHUyspu4EAZphH60iigJwuMTXO4DckRNFiCIDoAS6hB1ATtiSoxmg2gJ2XkhZVRbECIQh1d9oQzaKEiONjSGaFmSiObINYexIOpFXut5iDeACnESN9dLGgHkaGOuUctS1cR5clWWwhhDc/Kg8i/WJUldLPdKLg5FzYhOHq7UfEG0nvx7fWNoA438NhAQLU1qgpw2IAFlqCABO9rghjAUhPYqh9fC/e8rQHMyl1XNeXTJY0nbe6Yx6OLINQkyj7QWh6VPA6JOCBuDCtjTtw7BZKXBCcUJOo8eZXG78Y30lDVxOIrjmJ4tOPbVHxuwdGGtqwLNFhu79LRe65doQY4zkSDDzuAKImoZWjZjH3b3WjBb+8F1nwiNh/veXNMxNUzz0HvN+v0bfYY+e9fZv5k5CcG73/q8uKgH7PCpOxtb+zo0nXzNK5v1v6I6/nx+ifw/QD/+7awvu/1+WXmv/x93XD1a9mN6/AM=);lineShape=1;" vertex="1" parent="1">
                    <mxGeometry x="2909.8873935820675" y="2028.9519476975465" width="35.772661672854156" height="118.94933333553013" as="geometry"/>
                </mxCell>
                <mxCell id="221" value="" style="shape=stencil(rVbLbgMhDPyavVoYg4FzH/8RqWmzappUafr6+7LakgZoJqnUG9l4jD3MGAa5elktnpeDNS/73fZx+T7e7VeDXA/WjpvVcjfu82qQm0Gu7re75cNu+7q5m38/L6bIafW0fZsyfMw4y6Q8oaz5/P5Cbv5wO8evx81RvCSKUsUbUnM6PgRibeINiI+OXGjqUXs6PnFJV+LZkAUbJCWT6g2YkgOAVPIVgCipnAawMW1N3lIApKZYOC8AjeQRwJGvm4iWJABaIyVfAZKlCLrO+UysAbGc/O8H7UjrkjJxqGkN5GtlJE8SAYDJ1dKLSgKO2mvbdBAobt/R6mOh4UKAy2I6U1LdtFXy4OCmpl2tbylEX0irgwbqzy37B+TvhcHEZ5RX13OYCKekrY2hAynyZ2ceYfLgDH7xpwskyG7dCFAhAST1QyZkIQGW+jEW86AFJU1zsnFPgCX1g/iIh39C9JdDZs4BQH/75C486IK15DsAlCzgibN/mrFkiYGcctO1vKOH/pHWPpk2A/Iz2ZpUVYpgxPR3iacA5nCvbVd2vKweEWLYb6jz5ws6gfwdn+zgTcUH8/7Mi4jq7xSRKwQK+uuD53x8Xvy8ru7H9Xp+nB3/377G8qf5JSc3Xw==);lineShape=1;" vertex="1" parent="1">
                    <mxGeometry x="2902.2673031207178" y="2074.1712176158653" width="47.34670338411661" height="21.657564768268003" as="geometry"/>
                </mxCell>
                <mxCell id="222" value="" style="shape=stencil(lVbLctswDPwaXTEg+D6n6X9kJk7tqWtnHKdt/j5QNXICwdrUN5rCmgSwu+AQ7162D8+bQfjlfDr+3PzZPZ63Q/w2iOwO281pd9bVEO+HePd0PG1+nI6vh8fp9/PDGDmufh1/j//wd8J1ajyChN+mDckk/d/O9yl+vzt8ig8KEAtIlOI6IAqlZgFCOa8DUqWWLYBJ2jogd0rBAIKeWdYBNVDsBsDzkVfjW12mwMS8Ht+DS5migPhMXE18JwYl7VqhYhPusAe9U7aAsSsAEPiS4YxIhQqoqR4RogEUpgKKqklwMoAq1FESkboFNCFBbWAKtqzayAwArVCw3G6NpAKAXsAyr6kYEmBeW3K7FkrgSh+fL2XNkHs1U7CArGwE5POAWOed/7ySRMqgcT5p1WcAV/JlTcTAk3zf1DAQV5UYVp9h5uIq82wChSKKd9QOmQoyACceUYkjF76iz0ANmKS3gFxgE7zJlI4BSkwLqHpmuMUmtZGCeKE+vBB0g8zzxv0FQCdD70sAkltR5liq9kIZdC5572Y8TfwA1dZUUCY/orU1aL65N0BPcxmuV2n2uEu8CgQN6KWctfMwYxIrt5EXaFpRsQVS4nWgT6ZsaaSTB80Fp7WSoP5dfM633UdJUkE9Xb6J4X1cPaP6KeCD65cyBD3AHB9Gf0SD+cY359fxuvh44D7t9vvpffz5+/JBrFvTYzrevwM=);lineShape=1;" vertex="1" parent="1">
                    <mxGeometry x="2406.600967327169" y="2281.0558014045428" width="111.19047608753817" height="31.50067917522506" as="geometry"/>
                </mxCell>
                <mxCell id="223" value="" style="shape=stencil(rVbBbtswDP0aXwlKFCXq3LX/EaBpYyxLijTd2r8vU9eOKTscBuwmy3oi+chHsaO7193mZdtFfD2fjj+3f/rH866jH12M/WG3PfVnXXV039Hd0/G0fT4d3w6Pw/fL5nLysvp1/H254X3A1QSMF1TEj2EnVKjha+dhAOz7wxyAENgAiF1AQAS0JgQhVcdEARYLyFB8n1IxgBohym1AqUDVAjJkug3IDBwtoEJ0YmAEani98rCKUBqJrAmBXG4DYoRgaaoMiZ1MKCnBAtC1kMc0TXlIIA5LDNnGXATYcahCTvZ8hOSkLUgbcS4QHQOkWbAWMkGKtwFpCnAChLFU1ilSOaQFwOG0JMjSukRODFr7Fdugv22us8oj6TNayQNUKIu8eUFrYVbLkkxRrQM0xEY+COy4JDRW8qy2PZaKZjov1OP0DOaxEGaKrk7QCRdyqy6tKp/YuOS3scAQbB60jSWnZRSQRZ8UhyRu1aCNOP/H84tGz+JWKkGxBJF/f0AQ25CC6tWRcyDgBoBQ/A7D1iXVmmNAKWLbUhNgdiLW35bS4PqTCLL1B92KYAIJzXnv0dHe05QQuqopKmR7v74pzv0SRplf+fFeHJFWAlONrzeWuEhwcB9ynXeKHRVUdcXJ8L8PSH8H6OI6jz31+/0wzs3/t/Obbg2zH91/Ag==);lineShape=1;" vertex="1" parent="1">
                    <mxGeometry x="2434.2964843247573" y="2109.414121774841" width="25.056583721529933" height="60.969318056925204" as="geometry"/>
                </mxCell>
                <mxCell id="224" value="" style="shape=stencil(fZbdcgIhDIWfZm8zQAg/17Z9j85U606tdqz9e/tmZ0c0uJ47xP0I5JwEBl59bp8/1kNwn6fj4W39M76ctgM/DCGM++36OJ50NPDjwKvN4bh+PR6+9i/z74/n6ctp9H74nlb4nbmSKZeJCu5vngmZ6jzzNAO7cX8FVKEsBuBKrgKg9oAE8gkCbLeUhEoEQKSUDZDLeWYRKIl8MEDRmHwfyBrBG6Amyu4+kDxxMoB3jhwgYu7TVAsVkFcWCs4CTBEoF4RctKeOxHIf8IXYpikHikAIf+MNUW94AGSSaoAoFIE3AlOyeWU+p2E5S9yfQZcQILVuQOwZdJNoS9Ls3wA5u2XZTIHECqeJ9kDpSaauRiNVcAY1QhdBzeLBli5WazpkSsBLV25uRaqWRyFawTQzRRIQYirJzq5atkBqLfouwqUxLBepthWb10vrWZY6UOAeyKCCtDV625mm9gmUC4Wc3VLJMMIE1BsA2FW9JraVlQB7n3c9oMKhCLEvIM1zBPZ25/umNQ1tVEC2G+fFCC8g398O2hNQuQlVu752DBfA+q0ptnqO5JFmeuIuo9DY7KjY71UxdJV4EntifPWorW++R/dC4t7V3DlIB5cHx2bc7eb3yvX//QNFp+bHDT/+Aw==);lineShape=1;" vertex="1" parent="1">
                    <mxGeometry x="2436.839804212379" y="2044.3765622925966" width="23.362698860576074" height="23.326181081786217" as="geometry"/>
                </mxCell>
                <mxCell id="225" value="" style="shape=stencil(7VjLbhsxDPwaXwlJFPU4p+l/BIjTGE2TwElff1+qhlyTux4nxwK52WuNRY6GQ642fPVyf/O83aTw8rp/+rr9ubt9vd/wp01Ku8f77X73qp82fL3hq7un/fbL/un74+3h+/PNWDk+fXv6Mf7h1wGXO8U4UCn8PjwpiXL6++TzAfCwezwF6M/dAoRSOQ9gppgNoCbqGQD052oAjUkqCClSsiHVPLNaB1Qqi6Rbh4Bmd5BIjFiq1IMBaJACWBo7WJaUhsQ4BwtIkSIKqXlaY6CIku4UigF0EsCqhCmcI6vUwLGJci6WI5IA1hdKltNEAhgqgVKzCVMA8ZRMzearfwDyLZ2KXx9A/CrKHN36LGB985JQCYG6aYmKzZcnYevrhaqNR4gBn61StfmqZoHgWqNqz0sFhwSkAGctUTMADLVO1SpIU0ggpB6oWomyTO9YByQKbDVa5qmsA9R5bNJSidEOhYoty6KVDXKI4Sizoz8mWGhdK98eXCuw0rpQt1kPpoF7dXVgK1UlDvGq2mOr1c6Q17rIQZlOCKDVIH4HVG5Ku+uEmpUgQFqwpIoHIakhiWVp0ACOWgHRstTizGodEKnbHJS3CE5ae7cLqQoFZErBm4wSjVygar1YtdY4O9e6NHiOE28FdK+lCyGpcoTfk7QWUBRPa0BF3aktDw7ZRvchXZBGr36quiA+LUhfQFjeavfZhjQKCJ3Dcf54a4lmKt3vgEygaEd0IWGb0ZbuWcJGpgXkTGBYJRoCwpwp3mjG64B2HiBtMd0ynqvEV5zSgAYZYepW3pJnn1wHRO+t+lZQUEiatOu7EfqSzp7sptswx9ePYXXzMaz+h8Nq8e+QF17YFODscbwSIk7LHBxPXjoLIlW9zQK0spFKFRCtAQ/DRHNe9m6nA4QAgOqIbdItECNhC0VX+GF2iXOV7HYYIzjYYdxHWOmdjODrI/rCLDqeF5YTfZlyPLfeibtCkvLi2PT/AUcqZXbV1qZUVgFaXc7ulGYkDM7Ezk/7bFvrgDr97QhouCME30IUAK9geM5DpwB0QVIWbfDYhc41qVw9AF2FaTm6gUefRNSm2N9s6TkUkMPo9O7gjs5/broIltbR6lC95elBJ1oKKGn2rUc6HG0l+oNTV4J3Z+++9LwM0A//7ljvdg8Phyva09/9naw+Otzn8vUf);lineShape=1;" vertex="1" parent="1">
                    <mxGeometry x="2479.818443043796" y="2037.8985517540013" width="78.3184211702337" height="137.41435989676006" as="geometry"/>
                </mxCell>
                <mxCell id="226" value="" style="shape=stencil(nVjLctswDPwaXzEE3zyn6X9kJk7tqWtnHKePvy9YDWURtDZOb7LMlQjsYgFq4x7edk+v2401b5fz6fv21/75stu4Lxtr98fd9ry/yNXGPW7cw8vpvP12Pr0fn6ffr091Zb36cfpZn/B7wjH5VEHW/JluWEOc/935Oq0/7I+L9ZFK6ddbimV9PRuKuQc4Yg8AnmLsAZ5CAIBMyfSASBYAZMdJvSGTiQAQKVsNyCAGx8TqDYWSA4BInjWggBg8U2K9JRS0j5QUD4EiiCGIMlTQlgKIIQTKPQ/CTARbChKi7wGenAXacy2JM8BQAMTFqN8wZ+Hm+mTI9upmKgasd2T69YYMWh9bBueckgEBZwmvJy2RBRRkqRRFgSMLSM6JvAo4EycAmGU5AwokudjG0AxIVABnJZFTW4pN67cBueVkEUMGliSAojwvkEVvKM2AGsD5ZoNrgNJXpxfiANFsZuHMShXjxHtSniRiTIA5AbheSznAapM0pb54iicDxCTMKW3IOw2QqwCYNSAhbURyfZbkDiP1icf1gJwpIOaCruiUKKMtec1DnB9xJ0CcFjI9bMnh7jMGLb2BEdNDWi321ZE4qdEPiroMLoDGhlF8dc4A1j3KW5qwB148FpC3sOXeqNEQWx7utIEoTvIpo8nc8nCnlRWmgItamaVQkxFgtGODm9x/IKwO+0r/WhdSw4xI2AN15KiZKKbduQ1w2svkDqohadXcJzZ58sD8ZBZgNZsEPGyIPJVxiOaB48s04/oY6ogGgo6pjcEzwLUBZG0gy+oNnhiUtTQ1k/WWEgha/i59WgOWhpipGrGibcysDca535JMjajN1dG717dUdQY81OG+ZzrhqaweHxQAt2o7DPcCQGemq5ku1IqmhzrKq3HDNmbWjnF6dGUy0F5bF1yklYE0oq5Q4Q11CG7luFiPlMRaqrU+wfMNJbUf1wp2Zb06edeJD1BgmmYW3cfD5+tS43bIXFvfdzcf2unpzvXiN0ARZhhjPPQ7iXc4QxeYH3X2kakedTajy7h+FwD74eb/iyEJHSY/+2Xl4/Vycf2M87I/HKavQMv/9WcfuTV9MnKPfwE=);lineShape=1;" vertex="1" parent="1">
                    <mxGeometry x="3294.7310906279818" y="2315.41434157361" width="535.4949916069779" height="33.561896762151946" as="geometry"/>
                </mxCell>
                <mxCell id="227" value="" style="shape=stencil(lVfLctswDPwaXTEkQZDgOU3/IzNxak/dOOO4r78vVI9UEbR30puieIXHLpbgxA/v+6e33ZTC++V8+rr7eXi+7Cf+NKV0eN3vzoeLPU38OPHDy+m8+3I+fX99vv799jT/cn76dvoxf+HXFRcDlTajUvh9fcONJP598/kKOB5eN4AUiKMHxHQfwGmIoJT5PiAXKqUHVCoAIDqkFEkbiKAUuQNkAxQACKS1A0ihWEFKlVruACVQAoA6tLVY3wAPNRL3XSqFAqihCgXtAVY0IK42qtIX3SiBlDQPXVISEEEbtegjoJRaJmbfpQaKbtWLr2AttbZ0fQFUXmLeA7garG8ZpWQ96YlTIQZqbUKlJ64FyggQSfqirW8J1KCFauoBBTMdfQ0zIAMt2UxXnxIHAEhDBHMqAChGnPi2Cii6KKUeYMQVID4DyCCNrHCmc/Diq2hE2fNQmAJyDV2sdztAICVlim6mFXZJdbGtTQTkfG0dyI3NVDRAJj7nfEINT5yrYfZCuQ+IIVDoiaiVMtD3HKKfIMVUz0U4gFJDTnYTAFKypqS+hk1Zt8+gsAz9ZkgVUMe86H8FRErAaFKkkHybIgDEVQorEVYD8A0z175LIvCQi7LY0LoK2BtAXEoUe7naG8QD5+GAgKuDJL9rYNbMZWrPM0NX0uTziRkapZl9cQEyPH80+InODcrCxlF6EmRdJW73qC0JbCygAEAejhNzVqSLcQm1bSkBwLjmWkoChmdcpA2AZsGs2wWw9QkIT4bvr6fF7ZJJepc0H0arki2DvU6NlQJGM3izsJW4Ad0NHiwMl/Tx97aEw++7fHJdLPZj9WazFqC5oZ85wXNt4MsuEQ0dzV4PjI/y/765fQBgD/8uii+H4/F6z9z+318s7dX1UsqPfwA=);lineShape=1;" vertex="1" parent="1">
                    <mxGeometry x="3371.713503754956" y="2115.7075361787156" width="100.89490564260359" height="84.61397969806853" as="geometry"/>
                </mxCell>
                <mxCell id="228" value="" style="shape=stencil(lVfLchpBDPwariqNNM+z4/yHq4wDFQIujPP4+2hDFiMtdCq3BbaR1NNqaVb68LZ5el2vhN9Ox8PX9Y/t82mz0k8rke1+sz5uT/a00seVPrwcjusvx8P7/vn8+fVpenN6+nb4Pv3DzzMuNcoyoYR//f2Gqeqfbz6fAbvt/howqDUHkEw13weI0FAHyEyFAaCSVgcolaSDlDKN7CN0KgjQidkBlCmDoq3EEljKsAYt1LoDNGr1/vvZfuYYoKf7gNIiq9Ipgwi1kPhzy0pp3Ac0JfWsVqYEWK2VWvIRGgmKMCj5GkyNSHtd47kZSw2w1C2B4gFKHdQw0kziBWC8CQAUSp5WE1cFKY2F9kSpNgAYVH0NMmgA7RkgtINWqqiGTt0XPUkDtPSoVMJJ91nvtwEaT7rInOTtgxvEwwMKVGu3duEIQOLrHNValASk1ExLgaUxq+s2YJGS0dqAvK3jijcNvcS8B2heGuZjBUUos5FembcgwEKt5v8MtNTTPAyuGgj5Ui/Ug7UqDdRAHKUxeTFSayb2J202I6jjWuxpSdQBS9Zx4oue7B6klJgXEyiTYhfQYN+JGFW9GOzmxhBgCXgxlTTL6z8AKILMWrsAOtR37xFgiq8IIMQeYGoZQK4tza7ysf5cjub24O2xhczc0GgvHNcZcxK0MGWzRg+oCa4z5hI1aMMUjLaTFHe4io/adjjlWAPqaovvW662eQLcrjlKyQaKoh2R2BdgJaH/5yikVOH8WbSnmRKa6hxFYVs0yt96N2gCTjeZR9mFHsi+zvvBxY7g/lzinGIo6Ea9hddRw6QFlwx9KEnkhuHKNo2LsAlTBk5q8yguL9SARZhSqie/wdX/9o0KFfzvK5g9fFzgXra73fn+d/17vPDZV+fLoj7+Bg==);lineShape=1;" vertex="1" parent="1">
                    <mxGeometry x="3466.8972244347387" y="2124.4585824196547" width="120.1230325649783" height="76.4699993344766" as="geometry"/>
                </mxCell>
                <mxCell id="229" value="" style="shape=stencil(lVfLbhsxDPyavRISqRfPafofAeLURl07cNw2+fvSXWi7YteD9rZRNKLImaHoSR7e9k+vu4nD2/Vy/rr7eXi+7if5NDEfTvvd5XC1r0keJ3l4OV92Xy7n76fn+e/Xp9vO29e384/bCe8zLhdK7Ybi8DGviBDX3yufZ8DxcFoBUqGqA8BWgtwHSCYNA6AwpXwfkBOlMgIilQIASknGKzFVBoBGLQ8ANgC6UqM6RohL3TYBJVCtIyBQjgCQqKYBkGGRaiAe98ee0/b+QmWkLVAANDehFNx+CWC/+vOZMlCFJmqj7gplcL42Si5fSxhwHIMlOGYQKylAqJK4FBJFoDu1mo4ks1JTAGCKo4wkQVW04lmWSjkBmo0GF6FB71QmbT4CskIppOpzUKRsJnaA0P16z85SPA8VlNXcmZ07bQWI2yK0MUK0lgSkUawnjhFqF9f2/kY8VpV7xG0Wku/Coct9WxeRot+P7tOqd2ekDNqXCkl03SgAjrVSGp2gpMj92vvzcp9MDSS8DcAR3KuTtOe0DbCSjikXOwJxYGYeH5GWYQsrS82XIi1l235qIwXHWsA826vknGB9MwA3/9UjLQeG+501C27zrffohQWjDbBgPnEs2BEKlCpM4h5a68oggnUr733c5a0fOiVZsxAgDKNNnFYjLGpK3SyrYUHBlVLrQltFQErKsbtrlUMFZbUZrGZfJQioXWer11YQoPmX6tbz0NCmnmkWPOVpr/oCqN1Q967EYwR7qRDT/z08/wPAPv7M6i+H43Ee9df/97O9Lc2/C+TxFw==);lineShape=1;" vertex="1" parent="1">
                    <mxGeometry x="3620.4884097671165" y="2130.7300511777885" width="72.05500033702378" height="77.25824698875158" as="geometry"/>
                </mxCell>
                <mxCell id="230" value="" style="shape=stencil(lVbLctswDPwaXXdIgM9zmvxHZuLUmrh2xnH6+PtCVaUYHAmWbzSNFbHALsiOHz72z++7jtzH5Xx62/3qXy77jr91RP1xvzv3F1l1/Njxw+vpvPt+Pn0eX8bf789D5LD6cfo5fOH3iKsBnAYUuT/jjs8o/t/O0wg49MdrQAYHBWBCiQagtifEimqc4OCcis8VVNbjCYl0PCHm9XjvQPqAlEwAeVRNOcmOWwdwQuKWsgvrgEjIXgMK2KhRKoi+PSEbHAqBs+bAIANQpasN6YJg9bmgaNI5mCmJMBrSxSNaJ0Rw0YACb/ShJLDudGVkWgdkRtApidz/s1puXIHTKXk363cREWbpbEXQrM6NSXlGqvfQDq2DpK6uWg4l/f2hcYa8PbwmMCgjGW2A1xPjhvRkZKVGq7a4WfLVTbhhn5AnO241KINre4IzOGQpeWNQe8iUOs3pjWNsmNw6pWFQGoP1SpgbR/H9CIeS2zJZJCJSVPEcTGnEVhl+vo6W+4bQ+DmgGPlLE5rr001mWq5QbM2czOuWeCrfTBjZunpocuKcEIJhzSBjXnvfwRvWj9xePPbwSgGujS/G92UCJ813TnDZBWISHT8rZDleJonmK/o06iPXYHOVy3RlSxB3P6huA2Tx9X577Q+H8fl3/X/73pOt8a3Ij38B);lineShape=1;" vertex="1" parent="1">
                    <mxGeometry x="3705.4766660732057" y="2154.356456995184" width="24.04669281361066" height="57.25830901228278" as="geometry"/>
                </mxCell>
                <mxCell id="231" value="" style="shape=stencil(fZbdcgIhDIWfZm8zQAg/17Z9j85U606tdqz9e/tmZ0c0uJ47xP0I5JwEBl59bp8/1kNwn6fj4W39M76ctgM/DCGM++36OJ50NPDjwKvN4bh+PR6+9i/z74/n6ctp9H74nlb4nbmSKZeJCu5vngmZ6jzzNAO7cX8FVKEsBuBKrgKg9oAE8gkCbLeUhEoEQKSUDZDLeWYRKIl8MEDRmHwfyBrBG6Amyu4+kDxxMoB3jhwgYu7TVAsVkFcWCs4CTBEoF4RctKeOxHIf8IXYpikHikAIf+MNUW94AGSSaoAoFIE3AlOyeWU+p2E5S9yfQZcQILVuQOwZdJNoS9Ls3wA5u2XZTIHECqeJ9kDpSaauRiNVcAY1QhdBzeLBli5WazpkSsBLV25uRaqWRyFawTQzRRIQYirJzq5atkBqLfouwqUxLBepthWb10vrWZY6UOAeyKCCtDV625mm9gmUC4Wc3VLJMMIE1BsA2FW9JraVlQB7n3c9oMKhCLEvIM1zBPZ25/umNQ1tVEC2G+fFCC8g398O2hNQuQlVu752DBfA+q0ptnqO5JFmeuIuo9DY7KjY71UxdJV4EntifPWorW++R/dC4t7V3DlIB5cHx2bc7eb3yvX//QNFp+bHDT/+Aw==);lineShape=1;" vertex="1" parent="1">
                    <mxGeometry x="3691.839804212379" y="2059.3765622925966" width="23.362698860576074" height="23.326181081786217" as="geometry"/>
                </mxCell>
                <mxCell id="232" value="" style="shape=stencil(lVjZctswDPwavWJIghee0/Q/MhOn9tSNM457/X2haqiaYLS132Qba+LcBTXxw/v+6W03Bfd+OZ++7n4eni/7iT9NIRxe97vz4aJPEz9O/PByOu++nE/fX5+Xz29Ps+X89O30Y/6HXwvOU/IzKLjfyxcxU4l/v/m82B8Pr1f2kUru7T25vG1fiGtnz/r/sm3vHUXXA5hCBYBIzD3AEwcAEHJ9yOxIeBugMbOzJwQPAEIynFBBUjlRjBbgwAnRUU4dIFSqIIaYKPQxhEwB1C0KBXNCIAGAFIj7GLy6hACJpHfJayuBGFIlCR1A0wY6I4dWpfUAqg7YJ/J9b2sRgH1xdnbUHvhTIkWTUvIF2Atxb68lA/Y1Uu4nQWDXibP59IEiKIDU9vMK0NEAbaoAMYBEGfSEiKULndYEYlZA6U/Qpshg+hUgZtSYPOIXt3bBFeVF7FOVHiCUUZrEFi4pSSYICH0Q2useASqV0gOUEHCpQ7aADNIkxQpD5tbuWwDDF2l1cgvgTJY0aNTfmWofdIwtbzcCeOWoG11SGkaUMQatnMQ4aFM4nykD/RwLpzMa0cgNraEAwRMUBqKHQQ/tHbiJ/I0DpHKYQOE+mFGuOE0DDejeI3cRTYrQp5HKsgaBK2fIMmvlMMDQsc4oJPy7AYNCZO1HwGSjBKlIMtLQQeMKU71LREshQYBBpas2C6j0uAYoAJHruGeU2qLaXGRMliJMq8pB6OtQQtvntpaxWC0A0bcqlCEmBSAJmhdKcwJDkdOVtZgYEtyilXvTkFYP5mFeu3uXqt5uAJPNi70BpHaZ2Lo6eNNLgm8zK/euKxnD9USvP6lnY1EJAnUojVNW+wwlK1nFUoVBS7S3sn7FtRsANhFLK/yH9koxYh1CAQw3H4lwpXSDPw7ue+usryWOjfk37E1CtUvRHAxKpYOGutq16/WNnO0sVSSBt1tnO1R1Dd2SnG2I5CBRePK9P7HCq+29LyT+b68P/95+vByOx+XlyfXv9m2JfrW8aeHHPw==);lineShape=1;" vertex="1" parent="1">
                    <mxGeometry x="3959.4875511162736" y="2317.965266152505" width="491.00068384589576" height="30.031361033704798" as="geometry"/>
                </mxCell>
                <mxCell id="233" value="" style="shape=stencil(7VjLctswDPwaXzEkwOc5Tf8jM3EaT1074yR9/H2hUekKsLVNLr20N4XxigAXu4C4kZvnx7un7YbD88vp+Hn7bXf/8riRDxvm3eFxe9q96NNGbjdy83A8bT+djq+H+/nvp7vpl9PTl+PX6Q3fZ5wUymlCcfgxr3ClOK98nAH73WEBSJEkGICulAgAnUIzgNyplXVAblS6AdRCpa0DSqBqQ6qNEsihROo2pMYw6cIU2AIy9QxDavZYW6eCk042pC4UwA45U7Cn1DUkAQANqVpAo8iAuELBATplxHQYZzIAMQQKYR0hmRpfbAGoluCZ0yQYnCsXqtECCsyahTh7IrgDgJ6r3UGpRkToDtHVt1CuAFCp2frOWsAgaWFKljkRmHStg6YBwLy15Ks1UgAp90hRbEBUQcbKEVv5VOpAn1o1bI80ypDHGqDbDeLZda4DVCu2LDiNleuA5G2PG3WgnqY7WMBEI9ihxWEQZ4DSgliW4YoLQAE0l+KT1pA6kKc6u3MA7lRBSOpirpA4UwSVkVWMtlJjH/pbA4jVQkxDf2sh/dLWWc/U0SEF364SZfT76o07QpqrkmrjUW0C8Wsrc2URKIF81a2CfT/DbquFXe37C6w6VU622o/nEeIqYNE0zogCOVY1B2vBmoMgNefRjBdTD5oYeiCxO4iyBhyvyWiVCwtGnl217Jxn60GDkCZAexegeq3p5BYBEVX9x/WdCtV8KYV/YxCL9pTeMIhdzDD/B7G/P4hp53CtQXtwgs5ExQLKH5gjdoqrsOGG4aTLfgu64YVRTu0Wvr+49lygPtVF3cehQF9N3sN0x4pcksSNkQ1+S0a+AOjXKqg6bRzVzXlltNPrGUc/nMfzF/J1QB7ddRES6odKkc+hD1Nbm+aLYyESg6pQMTu/UGLQeP7uS4A3APTh953Dw26/n68slv/3dxS6NN9vyO1P);lineShape=1;" vertex="1" parent="1">
                    <mxGeometry x="3981.707542002141" y="2121.244332497583" width="58.395146559986415" height="79.04114162224573" as="geometry"/>
                </mxCell>
                <mxCell id="234" value="" style="shape=stencil(lZfdbtswDIWfxreEJOqP1133HgWaLsaypEjTbX370jPkRIx9sN45jj+LPDyk5IEf3vZPr7shuLfL+fRz92d8vuwH/jaEMB73u/N40auBHwd+eDmddz/Op/fj8/z79Wl6crr6dfo9veHvzHkhyRMV3Md8hxMV/+/O9xk4jMcbgDO51AOepp9bQEyUSwfoHe+2gZTI+Q5IAoFSyfU55EgJ5FA1AAMkSiAH8RRrD1QKFQCZuF+hBBiSCAXpgUIlQUB6WStTLACoxKEHpOm2DiwiNkCYJAJZK0lvDSmUBAChOWcBhDJYoag17oAKktYyeZODFg7ImjUk1wOxdci6WwuJCckRgxzU3sXUIcIcFKjcW0P7gQFQrayF25pbSZsWzdJk2JI1927NOhZw4fJ9i2Jr1GQBAR2nZk594XIhj1pU32dkdbDS6pzUh6RZCZDVO0euj6n69o6tpvbGGwXaVeeMWUECReANNacZG/qKhJo62qynIEFIOrdin8ONDpsEf4mIgbzJIlIEdgrRdqnm5QHgg62Eeh75j9sWtexyAnvuzhpBKKJdsfXXolFs83w940Sxr5uD8V/DvT4Pi+bsLu2XKbIO6IbVZ6wHBwdKoA3PxUqawArxblDq6GRg1UnyfoWE556KWp0FCggpBHLVAhnNjGrHmE7zAqaST/bgkPDImMoUrEoereDs7E76CjRj7LlB61aBqtLiXZ7PrZAbz9de08jNWusJeGIDeLg1eLYZc6WKqpabMRcgw73ky8fu/wD04nrKfxkPh/kj4fZ/+1Wgt+YvCn78BA==);lineShape=1;" vertex="1" parent="1">
                    <mxGeometry x="4055.527935029677" y="2129.107073054247" width="68.6701306088139" height="86.16872382717474" as="geometry"/>
                </mxCell>
                <mxCell id="235" value="" style="shape=stencil(lVdJcttADHwNr6gZYNaz4/zDVZYjVRTJJctZfh8wLCoERHacG0mxhaUbjeEgD2/7p9fdwOHtejl/3f04PF/3g3wamA+n/e5yuOrVII+DPLycL7svl/P76Xm6f30a3xyvvp2/j//wc8K1QNxGFIdf0xNmkv7nyecJcDycFoDSKCcLSNTaNiALSTQAYQhIgUI1gFSp122ACPVsAEVovN2M0IkdoFEFRVehJhbQKQsAdKrJR5CyDWiZWrhLCXSpRxJLXA1UQdE9U7cRaqIQAaBRszzUNotlFRCDMmdDNKEA+to7xWIBSjXoay+UbF87z/JaBzBFtoBMFRFRqNiUuqYE+qoTVKw2tHEZyFXbfh+hgKJVa1J9DRwAIJO4lCLlDABMPXkeQoKAZFNqPFO5DtAZtUXXSgm0tVQ/ozqEAoquPKt5MRAMitYEqhtqJQ7oW8XcogckpKVOxYpPqexIrWmm6VYDQ2NSqQXnAoUqEJ9OXHNMR1iDApxadUIEtFXF7BZED7O61gFC1bZV21ABoN3mazFA0FxvvH4QUNRKrZEtvG19B2mb7nJiwByH2YYWToaoLj5AS9Dv77y4JLxF55V527p99v91t2fve7qHG0iIs7eAqE1DBwE1GUub8gimp9w5gHoS3urO9QKkTA1D2L2PNDFuhu7eF9DR0V/s9N92/Oaq8vV2PAbuFJOhyevcivPsmZCtI0m0/x8DRRQgeveK+GioGbGtOGbKaDmrYiwF8R/bvMxLZiFS5F5KmtuEjA31v0/cHwDoxd8D/svheJy+D5a/+w8CfTR9TMjjbw==);lineShape=1;" vertex="1" parent="1">
                    <mxGeometry x="4131.61353002798" y="2118.8719385287295" width="78.95873080247725" height="98.12816467211064" as="geometry"/>
                </mxCell>
                <mxCell id="236" value="" style="shape=stencil(lVfLchpBDPwarqp5aWZ0dpz/cJVxoEKMC+M8/j7a4NkgsduJb8tCI6nVrdFs8t3r7uFlu0nh9Xw6ft3+2D+ed5v8aZPS/nm3Pe3P+rTJ95t893Q8bb+cjm/Pj5fPLw/TL6enb8fv0z/8vOBSpMQTKoVf728aSfrz5vMFcNg/XwFypJgtoFCo64CiX0cDiEylrQO4UG4GkAM1AMidOFhApR4BIFO1EThSBkWXTrFYQKUIItRGbGnlTgJYkkBiU6pMrQCAklgtQKiAlERZshGaEg1SiiFQsLx2fSMghBB3C2ASBGi+1RKpMABkYrEApt7XAb1TtZ1THjrgtWcKFnDFwyKi3RYhw1TLgETJWkjqEOSymlR+tteSiIFeVTu+EY0SqLoWajZCV0eAzk3qtI1oPPS1VgPbCC3ACMpSszXUCgXeuh80WlUALGmrm9V3zWOSLAO0r9VHQOqTQtFF6DAlNUSzNSgNFaSkUmtWS22eVWsAsYCuLCHLdcpuCmhMVAP7saE0MIowC+HKowF5tJA4Uwt1kFKTG8fJIHoZkKnb+T11BkX4KIB1qLipMQt++dBiStYPyhuDGmIffZ0bp0kii/oSVHsBBAj+99ygG26Ok5KGPZYpomK7rJuGgP+PbcyHeXQnKmiXyf6UVoJQQuzt/I+TQcPb38c4BvPakKy2x7puvft7OSNNWDynaF5k8ftewYdVEl8zJ8pAFSojd1gpQEANSnpsHoDaoKy7iaTrm4B5EW+mKuOzRzdUJwzdANH5GTOJAzBVID0F3JqhInGnsQPP0pCxC61FcJ3WrZhBH2IZZpkBGadUKTmA3iZA43QisXO0QFo/fDv5D4A+/L0MPe0Ph8td6vp7f3nSV5eLV77/DQ==);lineShape=1;" vertex="1" parent="1">
                    <mxGeometry x="4200.832419643999" y="2136.6513820233886" width="86.08003898422453" height="83.13600401851545" as="geometry"/>
                </mxCell>
                <mxCell id="237" value="" style="shape=stencil(7VjbThwxDP2afbUSJ87lmdL/QGIpq1IWLfT293U0zZB4mUNBqtSHvi3DnIkvx8d2duHi8fbqYb9j9/h0On7efz9cP93uwocd8+H+dn86POmvXbjchYub42n/6XT8en+9/P1w1d5sv74cv7Uv/FhwMROHhmL3c3kSHKXlyccFcHe4HwGRKs+ATB4BmKpMgJgoMAAEkvkEEZIIAEJu9iEl8hkCUp0AOZF4ANDvzYAiFJBJkYKbAJUpvylKNVJGUXIk5oTU4/YiQNPkygwo5BCAqRhAJQ+c5kJeLKCAsHLoaeoA7xw5t43wxdJVj/idy5cBgZK3XldwQiUxTmdKZft95XKxaXDAoGiZpHlmENTQQz4QiVHWiM33Hfm0/f4a75XZTBEQ1VGY45ljj8DLCbDxTJEKqM1AZbZHIvQ32UJT+WDZfr9QmuOpNM/AHu/Jzw6oiYIc1njMVeAFlr6GKM+cFvJIjKp9H9dMEmJvvl+BPblYj7WIIjCoVIoz59Ql1BK0pHiuey27CpI2yMKatkIRlbHq82yTdrqCeOF72Q7Ey6BwhK3aJa0N3DkzWwBqtarYcT5BNExIK859KNCkVj2GGsoN4LRyP5neHHpb2QIYPRJNJeoJmrhkE+dA4pQ6RuE10LARavc3ksFQ4vXf2QA87M3qoulrDQB8kNw1bjAJqVIKXSIGpxNIXMq9ywxhhbpae9sYEsdIZkoP4kANRj5IL8gVoGMWMsl1bg70jiis0U6SCZOvxcRbQEIVV227UgADLgUtlzMfYMVlO6tqlAqIkk4YbE6Ir5WoN/3H94F664Ro2FpgB1If6kwNncAZDEkaJaN8rauDE3QaNk5rxaEm1wDyFoAKY55rWnVEgA9N50xXzHCyUpOymTRc78Rbcm+ETBs1msW0II22+vXJ1t6T5ii12QRNt7G7uEYpwBXgOa+DkMFMc+/7Q8tyyAdvNysVnoBMYnKzVOpsgPaedy17cx7etewBH/4ve6vXf3vZ84is/9iypxpmmC19Wdnw12wC7Z4ExscsAinBm5tkWdrGT8ChbCW1TT3g+7q8ublTBVxourz5GaA8R0OMF5sCdSohQO4XR4OkMuq27mwBjV2g/nBGb7zCI0Y06xh33d9qPOItQNAmI1a/FIDEQucqM4ipDxHP6KbxaJQElWa0Gqx5KAiQ+oA99HN4j5nPTMKj3tvvYl8H6I/nq9+bw93dcnM8/t9eFeuj5Zo5XP4C);lineShape=1;" vertex="1" parent="1">
                    <mxGeometry x="4267.116718286297" y="2112.575980446327" width="66.44862953525376" height="161.03152715925034" as="geometry"/>
                </mxCell>
                <mxCell id="238" value="" style="shape=stencil(nVbbctpADP0av2p2V3t9TtP/yExI8ZRChpC2+fvI9Sy1BBzTvhmjY13O0WXgh7ft0+tmCO7tdDx83/wan0/bgb8MIYz77eY4nuRp4MeBH14Ox8234+F9/zz/fn2aLKenH4ef0xd+z7hSqKQJFdzH/CZTjH9efJ3td+Ne22dW9j5RQ4BGOSpAkE/k24DqqGoP0VNIAOApaUBK3ed1QKJoci5Uy21Ac5SCApRKBeTgnSPnFKJJlA24aOSrBkRyIOvG1LwGZGKUdewhnwGVQgDMBcpFAxrFehuQKjVdpkUdriJi7NpZuCggJg4UnE0ig5hCIMe2TA1wLXJOzhJRgAfPFJoGBGLAnHgwLVRb5/JWDkETUaVrAdVSJdMRNUMxxUSsmZMecYCH1Ii1+iZ5gbIWJhetBwZJTwFkmwPsoEjehFShXEVqwTSEg0wLoBmAcA94EKl5Iz7hHpRVIrZTQIYlIK6ImPUomwYJCClzL+ICgMQXm9XSBAA9zblPlWVIABAumJ6SBgBfLjxI06KOYzu/hTiPhsC/AiJVzZusvQLE6vsMOm+gCsV9sU5WVpwIWduv7FBPVatiZUlzl8CdVwD34XDflSHl1KqOPb7rbUNOdz5TZMiu02wF2DO+2RvJY0Gfe7bbO2IgHukYM0xXtmay+sf2ia06cTzZ9zF4X76iXXNP4XqWi+7CfMmQyzoeLIf/uGlX7OXh7wH9Mu528/29/N8e3PJqPtb58RM=);lineShape=1;" vertex="1" parent="1">
                    <mxGeometry x="4360.435375412235" y="1994.1322945777129" width="29.59619173553051" height="168.6729042287834" as="geometry"/>
                </mxCell>
                <mxCell id="239" value="" style="shape=stencil(lVbLbhsxDPyavRKUqOc5Tf8jQJx6UdcOHPf19+V2IdmU11P0tpZnJJEcjjjJ08f+5X03ef64nE9fdz/n18t+kk+T9/NxvzvPF/2a5HmSp7fTefflfPp+fF1/v78syOXr2+nHssOvlVcpyELy/Htd8I5y+rvyecUf5uMN3hdiZwguUwGEyFSqIVSq7jE+BfJs8LFtsIkvhWIweCbmx/jqie19NOAA8JHEBpwpF4Dv6bhJUAABVC1BsSWoMKOOe4SNEYQiPkLsnWImj4LOlKwskm6Bog5UbVZzoRwBQbPuDaEEEkDQOjsbQ4mUgJB0v2TzWjwFoIziKFkl5UgMspR7TnqWQhPLNkFjsFqKjgSdkKnaE0TFlOGVBmn4QA4QNGiOVq6eigcEoWqzpHlG+NzKeu3PAPCVqfoBn0A3qPK8VZ42LNo/k7MZcgINSZuHrfD0hCiQUC1BSlt5RMiD5XnKqJ9LC7ELL2IDiOOVcmo+/sglBxfT5qmoPetY5qU9kW//L+EaYidoZYAnaRKdzZKaTgEGoL4rtg4qrgiy5Lh5XNcS49fnrnCL+4P2jKOt1tS0solXKfNdyKBsfsNUPdj/7jFXh3LAwHjcP6kFgt65e9ligfHyOL4ErSEQkWve0/GMx51mDb2VpdnNJj407+xekdsNt/26PTAdL1BxqpYBj8e1f493+nGdDd/mw2EdLW//H2dJXVrnUHn+Aw==);lineShape=1;" vertex="1" parent="1">
                    <mxGeometry x="4332.230227872655" y="2089.026513355293" width="101.75832509295901" height="26.237439560771918" as="geometry"/>
                </mxCell>
                <mxCell id="242" value="" style="shape=stencil(lVjbUlsxDPyavGrkq+xnSv+DGULJlAID9Pb3lZs6RDrxMn07OfbG0mp18dmlq9f7m+f9LvLr28vT1/3Pw+3b/S592sV4eLzfvxze9GmXrnfp6u7pZf/l5en74+3x9/PN2Dmevj39GP/w64gLJDJAkX8fXzCl8vfF5+P2h8Pj2fZMXM32QiGutwv1ZLYHpizr/bpcogXoiQEAEok1KAg1YJEuVzaAGCnxGqDLoVmAUK4AoMvFAFKgkNaAlCgHC8BOp04lW0ClDJzOhYozqc03FwElUHSAThWcUCql4AFISJWpbUxCtNbsA6dOR6ClKlRs4JTolAGgU7NqTTxpuKzuTeA0PwqItChLTktMAfggSuJG3h2w1OLMrxOgQZNamdo8NwkBhJIDRGLgQ1PlNM9SBCf0MF08AZToBgD5wgmoCPRG0WkpzZRaAVwhU7VGBNAUtdLQHGxASwpo1oeiSdtRqWRi60TVKoB41SMsryIfOZGtTa1SAzYpTf+WJ0BDk4BcFRCsSeMvUKjFJ4Qa2YH6eqViE0L/ooDi2svGh1OPXAGSPaHhOqMAtrRqIUFddABsva9x8rYCRNemA1XstNi+myNUn9LqnNZqzEh84utMirCjKKBnDxCc1LJpEAkBuq9kOU2iVwBxORph+R7atFrSwEEtde+0SgM6rcXV+qDigwnUKdjC1D/wofkmp5ERxJLMuL4PfadStRKTa7wjlkiuFwGIJqXd0aQ8ICfYZ5D2PcSrLldXBTJ0Wpfd5CpthmbV2qP1QfIsJMvhwdUZhimn40lxHaXP4Xc1ALlQKwCZVE/F+gyApu+6obXiwI0xcQNgNFeyr/cKQBPTGHWTp7WBE8Yw7QABZtAY14MHFMCSztq5e5PQPDMm4eKdRgkUN3130ApOGEOhdbq22TJWF7PsxCdTv6urn3O6lvlmdbl0pU+rMTpBfDoUmTl7mVV/8csC59bgp9CsVQdUAPbzW8Jlkje3vgpHe56peN6i4f5gsz+eesViP7v9uLltBly9yzSgOZ73kPOPB9D+aO3pcOZhyrY3F9jL2bcc7UFInf7LCs8et9juujJusf/5mefD7frw/kXp7vDwcPwgdb7uv0Dpq+PXq3T9Bw==);lineShape=1;" vertex="1" parent="1">
                    <mxGeometry x="4584.034525328561" y="2311.5233879431953" width="569.7203737145173" height="41.79581169226594" as="geometry"/>
                </mxCell>
                <mxCell id="243" value="" style="shape=stencil(lVfLctswDPwaXzEkwRfOafofmYlTe+rGGcfp4+8L1UNVgK11e7MlrkgAuwtwww/vu6e37SaF9/Pp+HX7Y/983m340yal/etue9qf9deGHzf88HI8bb+cjh+vz5f/b0/TyunXt+P36Qs/LzgJxHlCpfDr8iQ2Cv3Pk88XwGH/ugD0QIU9oLd1QG00vVsChEpeB5RCtRhAitTrOiBnKmIBhXoEOzClYACcSFAMukO1gE4NAFqjZtOqh2wC0tqp2xhKpASyJHV8bwBqpAyCFqEQDaBFqqDSwiQ2S52JETWy30EihQSypOSzMUiBR1JqOLaK1gEEzULRxhBDoBDWEZpEF3Qfe95cr1+zZO0zG1fWJysfFVQFTIokVj1KLXT+TGIz1LSMqGjj7YIVgvLDVK9oBBOq+SsewEDOKVG1rGiqzgIA1cu5KY3AkTTo7HZQcTAAiOddT0OvaztUB6jQMDSGbOugzpxQlnjY9Azge3XoNkuiloQAKufm1RlB0DL8Z7EBciQVsztQogyklihaE+4y6rgiNXZSK7BTzcYwr1cpgBLEK9p1iuD7PJrSvD5DEjUqTjiaH2QVaZB4obSIArjqIRMACUeVm/yREtKBMqb4mCtoCRp0d36kT5A0bwLADhw9jdQtkENmnRaaB9wZYILLEsN5pFa/gz7JoHDTiGTtpYbh+7djmCeoebzIUGuaJWcvGQetjcd5KpcxDqxxyQH0EwE5XrkaJHmY5u0Y5hltDpoEUKmo41qBMkUQsk6Fwc3OlECfmpqMLUKAo4VOHhLdeuTwEr0BB4poIrwypAAbgtq/VBdvAwUTHYKLy2e6M6Ha72fov7q+W7+rsL6L0W92eBLU0PSiYgkU8UCr06i7J6gnCwq5ecvWrlsAh7QGrinHAv1Re6pr+5Proyr/743wHwD64+8F9GV/OFzur8v3/sKqjy6XXX78DQ==);lineShape=1;" vertex="1" parent="1">
                    <mxGeometry x="4602.436290797928" y="2069.0030704065666" width="106.07184404172244" height="128.73685094848497" as="geometry"/>
                </mxCell>
                <mxCell id="244" value="" style="shape=stencil(lVfZctswDPwavWJIELye0/Q/MhOn9tS1M47T4+8LVSPZgKrN5E0HVwSwuwA1pIe3/dPrbuDwdr2cv+9+HZ6v+yF9GZgPp/3ucrjq1ZAeh/Twcr7svl3O76fn6f71aVw5Xv04/xy/8HvCcSHOI4rDn+lJolb+Pfg6rT8eTnfrE1NsZn0MJHkbIEKlGgAzJdkGZCZONqJAIQBAp9ItoNF4uwUodf7eDJBCDexQtSY2h5wpgSq1QNFWtSTiCACFYjGAGqjWbUAXSjaHxpC40kkscZ2pA+I0gMIWEOYybFWJxYbUKYCQqvJgy9oqVcBDi55prRvKQV8X8QBUpR4pdR+SIB4yiduhwRx6o1R9WQWotXdqK+IE5dCp2hxULAWHFG0OXesG1KpJBxeSOq4DQKBuPa1BohxGP9iQYsBdQLXBwW/RkL41x1VMARBR1S/RAioskzpI3A6Z6gcetW2jp7l7bu3gHKQCzihpnjvjnUcLSjpTsVSrvgOgWltfWDkoJgAQ6itTN9Qr+2zhux0Y6Vu8NDQHBiEpr3nVydCAUOXk7HlATN+p+Y7qBur6eUSROeYli0wNTd7mHVEFDqHMngkdraiwtzm7DFLcB1KnbuWXI0UQkp5PXA6iQYKQeJnky+lBBQkcEavXK1dKDfDgeYtCGeSsg9+Kr8KRtZJFIQGq0OX260sv31juTj6JKvAm+47HcHqKH88RjkKts3VZmMnesIyPZjmW/X998r0Oj5xY/FTT7yMLq5irWw+LyevyZCTlxa236qO5/9mz/8fr9eL2o/FyOB6n/5T79/7HRB9NPzXp8S8=);lineShape=1;" vertex="1" parent="1">
                    <mxGeometry x="4712.097268516942" y="2029.5383112522159" width="77.07584716033239" height="178.47935401725408" as="geometry"/>
                </mxCell>
                <mxCell id="245" value="" style="shape=stencil(lVbLctswDPwaXXfAN3lO0//ITJxaU9fOOG6b/H2haqQatLyd3GR6QeKxWGAID2/7p9fd4OXtcj593/0eny/7IXwZvB+P+915vOjXEB6H8PByOu++nU8/j8/z79enCTl9/Tj9mm54n+2cQ02TlZeP+UQg8vfg64w/jMcrvFd87fDe3ceHhOgN3lN8rKjO4CMK8SeH5boFX5DCfXzNyNafhpzu45ug2fw4DSATg9gH4BoC8agVlGYMgsB5YtCQik1RQGzUoFmDVCEs6NoHXTToQgxuslojMsvSTdn0pLG6NYjlnUblCJEmB24MWKWrINqgW0Ii1CsZNdqgC4TUoUR4a1ASAnvBo4kxyA6B1GEysEHHjEKCVpdituRbr9g2KHCWraoIjHya1k4wXKBprQnOZqmhcmYki3frk/e4l7sOzUis4TJap2EZjr2g1Aw2q5XG4GRV3bVFAxxroNazNRdk1qKrLq5sFeqTClns6uC48glS19MFlVFDs9hpq/Dp83mL3DacYgTXvPdh++Vke8LpC7aFphlDek4bRrqRVeGJgc7ojhwqPTRNi1iv+Lj4uB0ziqVG0alHChf6nOa0nGwHsGjQ1fyJhHrSZzQJbYab5omO9qfeZvEqekIEQBvF+uMDXWJ8r/Mu0QLHntV1GafbnEa0ihroitT6aAWFCMVnN8L/4/Xj3/r5Mh4O8/Z6/X+/rurRvOqGxz8=);lineShape=1;" vertex="1" parent="1">
                    <mxGeometry x="4726.427962047825" y="2123.8966178753963" width="96.88801684465943" height="29.219749422118184" as="geometry"/>
                </mxCell>
                <mxCell id="246" value="" style="shape=stencil(jVfLctswDPwaXzEkQZDEOU3/IzNxak/dOOM4ffx9oWqoGpS87U2WuRSw2AXBHT+8H57e9rsU3q+X89f9j+Pz9bDjT7uUjq+H/eV4tacdP+744eV82X+5nD9en+ffb0/Tyunp2/n7tMPPGcdCUSZUCr/mN7GQtj9vPs+A0/H1BpCUNDkAB4oIkKk2B8hCAgAWUsn+C42C3AdkplwdINkWfB9QmCSMAAVfqLHvt4RU+hbbAKUSfdKNWrwPaJXEf6FEEr0P0Ezsaa2BcgaAOtJaMwYoSfEAJUYhaSexA5rVHtCqjaovXLMtKgAUip4lowHVQROxV6vR0AqsQx2+oFRR4RI1GQENaal1uyyARgkkbWVKXktqpk1Qrexp1QDrUIx1L41mBkLyDhR8Di1QAo6zkIZKV4Fdw5Jug1oDKRCf0apercWIBjk0puqbQCnYoo3E51AqJSRv7m1rAfzDQIWK+qQTbMYmtTAAzOVASzFY5XzWJmDU+uwT7A1hPCQUU6XoC2E8oELoqhDGg6LK6crUCkOyNjQcEDc83O3fK5OiSpicM49JMDLpJgAdWolkMGno3XATIJa1z8EEjrqrrLRhb1Ah7BxNK0ABR4pIV8KNhQS042whpTFpBjnYtJEHAHc9bjsijiatBRqCxyOoSJ+INtevSY2wGafe5pZRQ3pn27ZPN/wyywQ4LUWhNBzrFICMbB4cZh87ctH+bTVckYC2auFWH0/sNd9ez93rfX2ABZ5GuzisR9ZPjbIO6wXwY+Nv0yH+itan8aBivH/u0/IiIGqAn2l8Hqaw3v2219tM5fkxS6BGNOnRN6JoEwqOaOOOAc7B/7iU2MPfK83L8XSab0S3/49XIHs1X5/48Tc=);lineShape=1;" vertex="1" parent="1">
                    <mxGeometry x="4842.400605586479" y="2139.1408512046173" width="99.58315905198788" height="90.44830534134576" as="geometry"/>
                </mxCell>
                <mxCell id="247" value="" style="shape=stencil(rVfLjtswDPwaXwlK1PO83f7HApttgqbJIpu+/r50XXkt2p6iQG+Oo7HImSFFDfLwdnx6PQye3+636+fD99Pz/TjIh8H70+V4uJ3u+jTI4yAPL9fb4dPt+vXyPP1+fRpXjk9frt/GL/yYcD6TyIjy/PPPG0rx94uP0/rz6bJYL5l87tY7ppD2AdGRuH4DRy4DQCHPPaBQKPuAFIlrB5BEqe4DsqOUOkCINP7cBRTi0AFiIOZ9QAmW1STtE9uASrWnVYP0IOkaKPdJ50osAFBJ+qRLhLRmb2mtqgxQOlUbUk1UgQ5pjngGRIpIaWWpt4bSgLykORjzVU/VAUBqus4ARxUJxxSrBQhgSVlfA5D5qtbXChBBSKM1sk3aAx1qplp6gJAgwFpp3ROYzzGveE3kAE3qtWQAmSLyd2wRLOyagdTKYjJJVIpIudSs8976GLcBR6XYLSqquUxOVjEhv0rz/yLrBGjK3JRd8BqAm7Tm3Eo5xm0gmBwCDkkLJq7sh5IO7YhaGhztUFofWpYQEk6s1GORgpBKWXUmzQr1b2msL3JAXlKZeMXSfwWoNUoPGB2PrKFu7e2t3VDA8JA8FXNo+dartmeB3Eicz1HVHgG4dbr5pNa+AHIIYnMIuRl+ewBS9/fWEO0zoB50eol9iQrDxuS9zcFLU2anu1IxjUnaDLUJYHtARNjuV707UADhsPWdwDmDbal5eLr5dgrMucJZL1Dpl3MbtLZrwE6G3JrZLvN2PTKPC+SDWY9K0mk83n4fxDMqW238gB2VJibDJgNp1Sjm+44y0PZfbxd/X68P71eZl9P5PN2Elv/bq4++mq5N8vgL);lineShape=1;" vertex="1" parent="1">
                    <mxGeometry x="4923.256970217366" y="2000.704585537951" width="65.7901906558152" height="231.28456286267692" as="geometry"/>
                </mxCell>
                <mxCell id="248" value="" style="shape=stencil(lVbLUiMxDPyauapsSX7ozMJ/UEXYTJFNqBDY5e9RdsoGORlR3JyJ2rZarZYnunnZ3j9vJgwvp+PhafN3fjhtJ/o1Ic777eY4n3Q10e1EN4+H4+b38fC6f1h+P9+fI8+rP4e38w7/FlxMEOoZheF9+RIghv8f7pb43bz/Ek8RGE08Qyrr8SlCzCa+Ajr7lwDJxscATOsAyYBsL4TujaRCLQaQ0E05hgAhGEQmCOgcIZDIAApDrA6gAItliRvP1wG6ny2DIOS8DqgCJVlAhcAOgKHyUIjOw/XSCUgcjyCndCUBW+0JAUYHgBDsCTVBdGqdBapVk54ZkgtAC9BSi1MI1SteqEkcXjWHYpNmamdeB+RRTJSgilM5bTlbOW3a7BSuZoiWVgpQHZYkNE46gKA4hZMLlyFxc1DlRCtXrlA8G9D9bI8mAXKSlktpqPV4LdfF3MWnRHs5JCArDeXN8z6JgEM/ZMgOrVq4ZJOW3uZr0kg4AtDJQcU3mKVmhU7HFWqu0lmqzap+AHAqnfVKg7lW1wS4tIbsAPURB4Bl1FLmRsP1CXFBq4rPG1oV2DZcKm6hU+vfHs9uyuoow5DWZnD216E+zFBy4wPQ4DDdpFbihwGKeh/H8/rI7/HoDobY2OuzKrWBusIP296Xb+ivdjoziOen46jV6znkqHqGHvPn7E+fbN/H6+Lzffg473bL8/Lr/+N7Uj8tb1G6/QA=);lineShape=1;" vertex="1" parent="1">
                    <mxGeometry x="4931.661238912997" y="2134.222525236557" width="81.51623778162843" height="36.21205812572612" as="geometry"/>
                </mxCell>
                <mxCell id="249" value="" style="shape=stencil(lVbbchoxDP2afdXYkuXLc5r+R2ZCClMKGUJ6+ftqS01WZjmdvi2LzlryudiTPLxtn143E4e38+n4dfNj93zeTvJpYt4dtpvT7mxPkzxO8vByPG2+nI7vh+fL79enuXJ++nb8Pn/h5wWXhILOKA6//r5hiu3Pm88XwH53WAISaXEAzRQKAChxdYBYKQQAqBSDB0QS0JIKJb+CUuX79TlQ9TNHquD7uVFKrj5QiPfrSyXRoV7ADtVM2X+fqaX79c3m9d8vvcH1etvv7Oe1L4ABYgidoWtHgVjAEm1cwnqKGQCURBxAhBSoojbi6AGVtAKAicbvajKaQUuFSQcrCOQ5C5XbFZBQdRSezZABc6lRiTe7BIY2s7U08sBgaLNzG4gzsQLzpNw3cSEmRJzG0T2FFCyglZhHNyB35r78wm2gvmjX/sLNSHhp9ELsLK4r+xpWH2lUkBNsQ30/c9yBhsxr2SdwLNSATmeA74gT1Ok6AMiuBVLvZpN6AiTPEekju2RipKLWO+4AS0EFNHAerbNItXUEZa+7ijPvJiMVC9vqh7SwCQALYUx5aXhiCn6HRDuN606+CSOGUVF7t1dRNHjsWC4Ez/F8TqFj5+acMhIZyI6FWEdABCvYDMOpYwBkHYvbMISRJTYgQcp4n5LYD651FgJF72ZJnfh1AK8chPDG9t9XvH8D7OHjRvmy2+8vF9Ll/+MN1F5dbq/y+Bs=);lineShape=1;" vertex="1" parent="1">
                    <mxGeometry x="4997.043116332412" y="2163.3893290797505" width="48.54016094416579" height="62.03967043170451" as="geometry"/>
                </mxCell>
                <mxCell id="250" value="" style="shape=stencil(lVfLctswDPwaXTEk+AB5TtP/yEyc2lPXzjhum/x94apUDTjaTG6yjBWBxeLBKd29bB+eNxOHl/Pp+H3ze/d43k7py8S8O2w3p91Zn6Z0P6W7p+Np8+10/Hl4nH8/P1wsL08/jr8uX3idcTES9wuKw9u/N1TL3xdfZ/v97nBlz4FCNfYd21fq1j4WElkHpE4xGQAX6mEdUAJ1NoBUKEUA6ON7A5CZMq8DaiMWC9CgAUAydRtDURoAS40pWUDVoAFLrVG2LglTAy71RsGy1DTRDQC6P6FlmIcYVBqWV/WygEToEcVpiSlmGERsFlAoA596pWB57TL0+D4gDeksAHUSZK4Hn7krHt5PnVBq/ggGPinvIj4IpFdVk9ia7pkqOkGlkC0gDsmvAbKNWqOqINXqUrQuaVQBuZSoFQvQOu8AUImtwKWRJADovpOJYLkyBfGAjMSkBZO9SwXVnEqj+qAFnaAxWC0pbx8A+k3iGLeB5goiwFamNSpOS3kIfq1Gm02c0sAoD3mUy1UBwbYRfY1eaAAuad+6BVRwQisjrwugQZc0TcnVdMEl+lmAVIpOS50E0FpvG36E8q7JNzJJsJGV5gtIp1wDJVqiH1r6iQp6qw5y1wQKLqAUBonLaA9wPYltDJxlPekwD7pgiT2BlTfQyHSOW1Z1YUIT6KZ3x0wRTIcwVLDY85DWin20jTgGOHNvt4BRTCvmrpgrnDzafKz32lwgOa7dMVx6VL+OS/h1Hcw2VcoMKPpKuThzuCh44gOcmNqogzNHO+pnF/+P7fXh/y3jabffz5eU6//9rURfzTeadP8H);lineShape=1;" vertex="1" parent="1">
                    <mxGeometry x="1801.5410617026246" y="3049.080082087591" width="154.72266625680163" height="126.99856671040948" as="geometry"/>
                </mxCell>
                <mxCell id="251" value="" style="shape=stencil(lVfbbhpBDP2afbXm6vE8p+l/RAopqBQiQm9/X49WC2sDp8rbsvjs+HKO7Zny08f25X0zpfBxPh2/b37vXs/bKX+ZUtodtpvT7qxPU36e8tPb8bT5djr+PLzOv99fhuV4+nH8Nb7wZ8YVynGAUvg7v+iN2vzm62y/3x1W9oFCtfaZYof2wdi3RrU+tmcS6w8zFeBPLMTNAGqlDg5IyXtUGkUE6FTsCVkoAJeyRmgB+okmjwHDAQdIFPNjQG0kbADXNNzPaqOcDUBgFUSIbZm1jiCCnoiLdQjmtDMFl1PKDOzVXRuwsgKwrvebBAVKAQOKz2hM2CNLo6hFQQClpStyoI4AiWqyAJUaiEGLVq12Eo5BVPzNnyAgrRJuXEpUwAkqdndC1EQDorZKyRIv8hLVfYDGIBagXARUVYDYE4QaiLkxsY354uJ9+74w85IjKkDLkr34AzEIWBolbx8Qs+OirNX3kTTr0tyu/qMC6Lxw+axYyt13R4EyiOFmhGiFodL60qtWHGJQAu1G3ZZYWdpRu8vUbMyjyEg4ynrrkioNRS2Vmu1HQ8uIFp8FqNKccHKCLZKV9zZLOgcryFLlZQZcJm1Z8vZoDjYrnRqJAZdyp2SD5gCpoSG6ucNCBQ3/svy92l8KyFKsfkFSgTdAPuWmmwtSoEtR/D4il2l6H9D9XNAegug9OopNaw/whAGw1NDhlZCotUnaptQvi+ijoB1bVbSIrZpWtwGMRoUAxddh9BHkknah7AENsFVXkOqXEty7NehwcwJIK/tRolsK2oU/u/z/314frjeNt91+P19U1v/7m4m+mm81+fkf);lineShape=1;" vertex="1" parent="1">
                    <mxGeometry x="1860.1078523364058" y="3027.462713032969" width="116.48773962521659" height="123.55910177861688" as="geometry"/>
                </mxCell>
                <mxCell id="252" value="" style="shape=stencil(lVjZbttADPwavxLL5Z7PafofAeLURtM4cNzr70vVWMWkpAnyJssc7fAYktJO7t4OD6/7XQxvl/Pp+/738fFy2MmXXYzHl8P+fLzo1U7ud3L3dDrvv51PP18er79fHybL6erH6df0hD9XXKaSJlAMf683JJKU/3e+Xu2fjy839hyoBANIgUIAgESlWICe2QGgUbMnZKZUtwFRiKsFVErAh1ipWUpFqIITNCapW0AfJNcBhYqlVDOxbAM0iJwtoJOAEzSIXQygFcrA6Rwo2hNaopABIJM0S0moIYAytrVUyiiWVUBRAhaQG00/NwF9/D3XUh+5XwXURGlRrQx8qI26TZwwNUCpLYpPy7GDPGiaig0rVwoMAJ2q9YGZQtsG9ESNLQAe0DNVm4a5VNbtC9Xm7FEH6HVE8Ob5iH/zfJQ/iGjvQ+1zCihi+2bVrOoH/nKY/ZvrdEhj64Dq+gt1bB9twhp+fqNk7TUCoLloApLtFdrFAwIUL30FMEqxBqQ6RgWVUKIcnMcVqKxr53H9dAh7yz7bZpepJWzvhhRF/Pxu+ccx5Tb99SWNpqzGM3nJJCxJl2FNMIqnhs9LGI2nqeKys0eSmSo6O39RF50UY/kIRcBnRZIJJ1g1bw8ocKfo3Qe0UkcON9+k+0cB/Zy9blFOwpUyiij7lUVDGsDa1aqfGkoJdS2dfMUCpI7Guj5b1UUnsgJVrNNbrA+6k6C1qywbbx6PWAdkytaH9zPXAUzdUmpMGQB0KQpu7apQCrksWmkc6+o6gClaSlOxAy3o6ihuoQh4gif2A0obVEQLs+ZJvNcFeD1t2LbhTYsVoDSNSOtErXDkxEW5VoYLs76HVLf0Z7id6puO2OrT5DMC6B7k9l8ZgV6vvoWAKkwDjyk/K1QlDQgFrwZpsOsFz0fmJrJh75q2vidl0GLCgr+WLuTvpo4kYsinOHuBY3MhAy1b9HxeLJoMF7W44MNwTxO/+EqA+U2L+DAs0LzIF8MXus9+TPjYXi/ev1w8HZ+frx8+bv/3Xzr01vUridz/Aw==);lineShape=1;" vertex="1" parent="1">
                    <mxGeometry x="2227.527999062243" y="2955.7396397592556" width="299.0695249471082" height="191.6609526340244" as="geometry"/>
                </mxCell>
                <mxCell id="253" value="" style="shape=stencil(lVrLchw3DPyavbL4JnF2nP9wleVIFUVyycrr79OTLY6GzZ3e8m21IoYk0Gg0MHtJn348fvn+cIn+x/vb6+8Pfz99fX+8pF8uMT69PD68Pb3j0yV9vqRP317fHn57e/3z5ev17+9ftpXbpz9e/9qe8M/VzrxrdbOK/t/rN9X5/P8Xv17XPz+9HNb35mKZ1hdnXazPrnh+fhTrgwuN1ud0vr718biP9ebF+uJKn9Y3V8V9W3AWpvVd3reaS3lab66p9ZX9Gbw8UI2uzAcKwZVyblDgoTkCIQ4f3DZILsxXCMlVsUPuLtCRsutih5ycJ4PqkkBF6gOUu0FzVoUB7jCHOZjrAhcIa5vjEINrTRjgivMdYnIm7oDnlTQb1IH1mwahu2qzAb4JwgBYmndIyCZxJISJwAq/yR2ia3O2Jewp3AowE/hycFFcGoGew5CrqyL/wQ4zfZXogjhQcXm+QGkjn25D1dl8nprkhYEKotPusnh+cWF+fkt3zk+YaNU1E/w1yGRfr/loYx/iu6hRmjhiPcmIbak+X6EjKCo1/eCG3aC5JHZAECiXu0l6AUeXeQcLMgopDyfuBntm3IYF7jC71bJ0ay6DrnaDIu9QwsDlboBKK7xUkLmVDaKg+Yod+rKDuEMtoxQf7pAVWD3TPLxUBc0jWRrtkFxRBvVG4KLSFzbSdzeAYlICac0H5KBSSGUQ4m6QZQLheX6+A0RTEhzT+zjATgLNdRFpXDHM0GgarUiXSLTkJZY2rxOvAixqh6WgA45F5IPt1fjA9MpLgBpFGkIoCbTaIm0zuFXvkOY7IMuTQCvuQOIcPFKVl+LQXYf67NUOkZUYJIOpS3vXScX0QQu3wWesJqMmsl5dmfMhxiFTzhKozl6C1OpKY2TW9DCQTUnmkrWpSd31UAJBzClegkFcBG7UR6ozvINOoJVmoP6kQR3a8WAgaaaNanAw8IIE+tK7hd0NZwbd2KArA2MshSLbAFv0KuKgoLFR5ZwPiLTKaRzJKNI2NN2ZAUlcCKKuduijQB1bGWWwV4NjxgkvARoUBxgoCQfw2bKDkg4wYNYImgTy0l15zUuZ9RLi4BW889JSNilOYECB26SvvrQnLBXdLAHMSwJldenK0NhSVIGvjYp2MAhanPycASoQdUB3Wvu1sCPSWRXFMuTUoVPvqsZV1t5bG6V2aKMHO1RRxUvWx/MOdVqNucx4bIU+WrF38Gvn3eTYB1tQUqOVjspNtvTSVfu1czNatXC1pXvdVKJyE7QDtbt3scFKV6cc0JepYTc5MrFl7IMO4U6ByHPgkLWmqK/yUAZFKau6G8cI89A1NUXfnt26+U11TQjc0oxm1Zdl7gcQ+yLigLiSJAO6FPXVyhUF+A263U2VDdqdhpoqykcS3rbwI4cPW8jB6TK+goGq1Ml4SmlanqRFuSIQauC1Dk6BDcXfIF+Ga5bo2+oyHSlJYvqYPh/GOYqOQ2CpiwySaoOx1HcvnEwFaa6xqXHhI0CPZgh+xPHmes9z3FZlfi61oQXZ3y/rwcNZ+Gcn3b0ymJzYBe6kUXqUTEf8Z1TnKocyhVt79NHqLVEdo/+9PDctuZc5+q5fT8fiM+BSHIx5Nngng2jyRFuvRqKnyYkMVBe9xPkYo56NZePap+vEZ1nlRxxvGzSeH6K3UmoVTiR6DPptJsJKo+VND6vxfmS3bpERR4Lo4iN5ydglLuVfIqM0bkCrlEjb2IzemEgqQqZTriU5IKqdX0JF+cIUhZxGuHFUoDOlQFrES9G5SZFE62Vf6Lm98LpDWqaAXs+SlhfoXk/olhf0WlNY4LTU57ewPj/pyW0wWq+GC1hP+veO5o88oQ9jdnC23hg/qitf19+Z8i7n0R3zet8sS9PqzyLxucarSPW04kHLs5/9Qcj99fjw8euTb0/Pz9cfrxz/z79WwVfXX7qkz/8B);lineShape=1;" vertex="1" parent="1">
                    <mxGeometry x="2100.8646976053406" y="2839.0134094060586" width="508.6517194780629" height="363.5770425588896" as="geometry"/>
                </mxCell>
                <mxCell id="254" value="" style="shape=stencil(lVnLchw3DPyavbJIgs+z4/yHqyxHqiiSS5bz+Ps0s8XZZc9Mp3STdoEdAmg0mpiLffrx+OX7wyX6H+9vr78//PX09f3xYr9cYnx6eXx4e3rHXxf7fLFP317fHn57e/358vX6//cvw3L89cfrn+MX/r76leisDK/o/7l+0pyF/z749Wr//PRyZ5+7y2Gxr643YZ9d8GSfirAPzjLbx3P7VJ1Pi3130YR9dHG1D1sGDh2sutpXh+ySiNiiK2tGQ3PdnzsgwlIXh4gjVeFgM8TNIbsijhT6PPHm0FwWWUWIdY0BUYUkHKLL6xOszMIfO3iuQ8InIoYth5t9cl0AFfb0+801caDu6vr7ObmYRQDBhRUXaI2ocmour1UrJnERyizq5tBmls/KHFcg1aCRh2ZYy1yz8yKpwFlds1qbi+oJndu5eddUuxl3TzNnAnnWmQBadk1kCbhpcXVos5RnlBTXGLp3QXEYfm/lyB4mug4dSuIsdbSbYLGKJBo/oYks1eLMOAZVB5SprP3QNnQdOwDMVOnqokgrvmZomPPKobuw9kMFr6mWRgyE1jRZ4dghuLIeqXSJpZH1NUsoZREkgCP1Fd4ASxJHarsGAhyzcqhc6QF4VenMTIyWyiKtKFNa4W1ZNlDDTF+zZGE27TFawXMrtw4VIMi4ZqbKmCQ0apxZ3xzCJJ7jFi3z9+6mehZUWcCkKxkHKCUBjTENSGgU1wUJwCHulEkRaYWDX5kvJFm4shMamPNVH6nRkYKUb2iXTk/wzkTHoQ6R9V5VMVdGBsAtkISGZ+7WxOqnVLsLQA1pjGTqT6RIibfbDN8cTHdPdJ4ckoQqnkA8CSApnhzjhxyqC2I4lJ26QvcorofS4Sxp7QNctMYORfdn6uwgY0jzYnQXtKmpDp4kaBQdNOpKN4ckoQEHAiugEVXQNqfTHfiaaug0h80dvIuKAQqR+01JUPQnyWj0p+Lhxljt+jwftMckyZShKAcDZlUipG4D9Wwa8hMAPMGRGNBhlQBDt6urT+UBDd2uLpRQJX6NwbxUJdA9FLQled3rNln3TmSo5umZr90pS6T2wqMn9XnIY4fKgjXbFJjHDo1Fdy5aTnaWMcXLYRK8Z+oGfr3Sk50nNCSuUt2Impi4eQlXFMLWIIDHrPIaD64aaneA6xffr5JuCLAYPaFI1V0rj1DUUrHMGNLESn0+84wnIzX1rZbHHv7gEQpNAFvZOahC5MgdMRAsokbDBGMHpTTQkpnyWiUNGA5A6ipJUTyWaesMBbyUoMRFwe/urYq/waXErq1I4TBk/Hok4FGtAzDEI61MUThBxxixxH3jfqPu3lNW3O991BKXNyBFX0KNtz6Au7KPfB6AXS1lA9cMWPfC3nOz3VY0J/b0+6nKXcZ+N2lylAS+6lmX+54dqMeyVPUZryXQFur3K8vCsRRXk42JIpbZFGfbXtL/gIiJroTwJSmMHKsFNL6uxKf6PQAwTQIDUrirRaPn1c24eYqmscxL9C3NZ4tJkgtJJjXtuixMojm2b7wZ0gt0jAPa6OkBlXcbDy8XT+jxRLcX+aZnLBcax6uUfOLtRdTLi7TbCUnWxc2FpJReR8Keu1JvIvLuDYbOT+Y5kyWJwr7RalHnM890bCytl9R5irIb/u1DV8c6x87p7ojfRKqxOi6/kezleT74pvP/7fHH7bXqt6fn5+tb2fvv+TUsPrq+wrXP/wI=);lineShape=1;" vertex="1" parent="1">
                    <mxGeometry x="1742.4825177995153" y="2917.605845013589" width="342.2773764822398" height="338.04276163480495" as="geometry"/>
                </mxCell>
                <mxCell id="255" value="" style="shape=stencil(lVbRcttACPwavTIH3HHHc5r+R2bi1Jq6dsZx2ubvg6rIMWeZtm/ySWtgWZYb+O5l+/C8GSi9nI6H75tf4+NpO/CXgWjcbzfH8WRPA98PfPd0OG6+HQ+v+8f59/PD9OX09OPwc/qH3zOuCjSeUJTe5hNkQP1z8nUG7Mb9BaBlyNkBqILk2wBlaB6QBQRvAzAlSMkhGkILEFqhkQdUKEERisA+JyWoLagagdADZClrFSANik9JFZhvA0qG0nwjPnlYReQETXyIFhZB9lo9oEALIqCCeHFMxEkAyMDFN6KABjSZ2ErX6gQYpVQBfdHVBFmCojOoB4iG2mCBVD3ATgL1Ze3FJBkwAAgD1x7wEXMVYENaPUtitAYsmfyV+qJzNEEmhNrTSoFcTc3VR6i6yPEWIF1Jo0Yp8aKcC/FhEMGcSTu1ltCZKoH6lGyAJJBGUSDPklWlASAXYOwBHImPoHRFC2ggDSKgbqYpBOCZkwuv/HDPWyNK3pgaLa38D0DkGgToUzKic9QHaD4AcyildGWtJsbAKK/2j5EW7UQE8bLA2CbLUt15dmIbtuXTbVCowWxiWwzuvKKBgw5bePT1ppBOc8hOc39ZVCY56r6PvGVahX4ujc6gXWJD4y2ewyEzL0SvB1kEuO4T5s6dsUAO8lm9U1FA0D9cwuzh8wr3NO528w3w8n1/5bOj+brI9+8=);lineShape=1;" vertex="1" parent="1">
                    <mxGeometry x="5296.724834150973" y="2159.227224107265" width="27.839380653238095" height="66.74881884486922" as="geometry"/>
                </mxCell>
                <mxCell id="256" value="" style="shape=stencil(fZJLbsMwDERPo+1AIvVdp+k9AsSphbp24Lj53L52taiZ1NpRFJ80JEfx7tIezo0ifZnG4bO55ePUKn5TRLlvmzFPc6R4r3h3GsbmYxy++2M5nw9L5RJ9DdflhXvhUoSzC0X6UTJs4ek3816ALvcrwGgNrQXhIgJvE2kGkgCiRnDbQDDQQQDJwVcAG8AkgJXKfwmyIC+/IERT0QQTRX1w1aZfh0TwodICWOqhiFRbQwI52QBSRb81INlAfUDegeXSDKzfro8eWuoxjCSAOfhz4Sl3XTHx+v7ZtXOqOJ73Pw==);lineShape=1;" vertex="1" parent="1">
                    <mxGeometry x="5303.142034582535" y="2075.778277522868" width="18.579350044083185" height="18.579574728104262" as="geometry"/>
                </mxCell>
                <mxCell id="257" value="" style="shape=stencil(3VnLbhsxDPwaXwlJlCjpnKb/ESBOYzRNgiR9/X1n68qxuPagAYoC7c32alZ8DMmRvNGL59urx+0mheeXp4eP26+765fbjb7bpLS7v90+7V7waaOXG724eXjafnh6+Hx/vf/+eLWsXD59eviyvOHbHlea9LagUvi+/8WaWP/5y/s94G53fwTIXSzNgC61ngeoSS4ToCap+TwgdUkO0CQHAqiSdQK0IsWISVFqn3fokhMBwIDofTACyEmaC2uRzMJaJdoEKEWS0jzo7ENGKkmUSpA2hxVGsrCWKDabpAgr8QEAnfOQlHIJJsUwAWKWQKgBF7XOmZbQ6Po0r7cRtXPrXTVkqSQJcMBxWyVFsh6smXkUec6K6Fxsga9vg8av63/V0sn1hkIobn0g7weJQ3frIyk0W8U/SCXxqdG/Hxwk8a/qiwB1R3pRLYNer/lVEh+s7/P6Mghyen3zFRBNCnG4BZ8wMLoTD1ocvfOoKCtJQVPfWDI4SnxA7wyzSWB5JaRoJs21riqdVFkDS2eA5fHLSUCPq/abab/uWWyu45ZGpZ4GdAnzDp0zNYZDpRwQ4B6zqfvah5WMTL0OLh8ARrmxvG+Oa29SGCBKnMvn1chzqXY7HMXhNCKNMB5vwUvITU44weiHGvVhwixlRZ1XmcOoZTuo52tXOqawg2vbYFMn3KjQSG6udb5D92FtlWcOk9jtYFS24X0u1QAwyQP6R/UmRcY+NK45SmgMrBuDCNp8WAPrG31U5FGNRpLpBeAKIo8Jds6k4gBQGCRxeOwmEF4RSLOExcX50MeQOdtdgwd0EtaWvQpbwsCoEYboOgKwsILe1RVQHbk/V0DZ7VBGW/gzAMOZYc4DJiuTkhhRTg1DrCiJkq0OGQVFS3bAY8clyMXCAHWlZvLQ+KcBGBBziWqlFVfUawENokzghqEtDgMC9CY7/JeKnq3/C4o+u/VvVvTs/f+ComeD862K3lb6hR6aax30OvgLGccMav4Ittx/8NEf5gyo0ZJZKyqcAJhWgA99NgknezZnESSdJwhaExMXFWPYXY90OhDM/CkGYaCdq3qToEYK2SGvBgImL1PbOHf5sYl+TKgN5teVUGWHkraSCnk4dXL96kSyuEx6I1q5U3hBGutdYrM9SCO704qQ1XMtL5dgJAcJpTIXD9oZ6165+OmBfsnaCybg+qzKdAIeO2GxUJs4bcGXJ0wKJKqWVjtAVLIWnMeh7khYKLuFsTHCDmENtIlBHGn0eTAOaDP14BUbawC44wi8Yted8KE7k4oUPthclPAKI33V1B9HjJcPYpJXV+eJXXe+9a79NwD48Hq1f7O7u9v/M3D83P8VgJ/2fyPo5Q8=);lineShape=1;" vertex="1" parent="1">
                    <mxGeometry x="5341.048600622822" y="2020.586925226994" width="99.18199847138908" height="196.59341572904168" as="geometry"/>
                </mxCell>
                <mxCell id="258" value="" style="shape=stencil(7VnLbttADPwaX4l9P85p+x8B4jRG0zhI0tffd1RjVZOSx86h6MU3xdnRLsnhkFxt4s3rw+3zdhPc69vL/sv2x+7u7WETP2xC2D09bF92b3jaxI+beHO/f9l+ftl/e7o7/P18O62cnr7uv09v+HnAeS/FTajgfh1+SVGc//PLpwPgcfekAbUoQM7iKgEE6RpQ8YpIAEl80IAmPVFAyArQPAdE6V0DknRmdJRYNaBKadTo5BWgO3EM4MU3DYANBNClJr0+SiBhaIv3R2lkfZG8WF/z6fUggY5BD9SlcfjvyN7kTq8PkqOOQJfIQmbf34pURlPxJsKRnj9J1nkDVjtyfvhHUy7PnFpdXyVqe5MTz/PS6wNhy9QJoFoG+SKeAECJoPMSidcJJSLyUtuMKDLOxS5Jkyh6CSwIaXB+9pIfflsHNMlGvQLdIYNH2oYSh2KuA5I4o16QikAByTDbUy9NAKNeWUrhRzLcRu4QbQE1vd4BydyY0dAqTb6epTKjnQST/lU6MRqBS9qtvQ+/rQOKdat3jmZoWgQCWzC/JmiSOdN8ynWAk2Z2KBLJDsuEgApnkqMRB9Ch7rOn1wFwu7YBOsnoiiMZQOm0MKCfCFpnkHKMG6mOwjerADc6LzoMKFkh3MgLG/x4w7oWB3F6A86k5myGQp0ZMabapDdAfYnEZORj1P1FLEPZ1gHd1s/MZekoW+ZAg+9EKqdsMcyokkgb1hc5XbnyIVuyplLNEgn3OlpJ03vWkbPrAC9ZJxx6T0+o1NqQraMdPDF6Si/NjZqkEBvaXGRngBtquw5A46JDXQptldrc2c0AT92KI5nuNpdBr3VAlrYou0z40F4bG1IfzcR64Jw9UuL8hpCahhWAzNiabeuAIzmWctW2oDCajVZIIFN24VY2NADQdT4UNxx9CtAMII+SdCpFTWEH+RI7UpWgAwd6s44MKWpmsVqoGEP6TJmeUpTRu4/e5bgjY/SuQ3uPZIbVE9DblGlUjMDonew0Bqlk08a7AXVhNLjkWY1LUs1FwDzSrQ+I1dYHNOts4ED5sDtAC1mj26Queu/KGoHVVpp3xtdW+tpK/69WutrpFVkbSAlCH1xMZc+0soc2xPr41oHdsgRbIBCZwm4R+rhVmXdI/GasStWFupy5mPn314HJKtn1OvB6HbhyHUhy2VnVboEywtnBBFN0IedfDGNnbt3xftPd8mt9J1EnGQSW1QTIr5k/6+jjTvgz6zIY81CaE/E1ShcTbfLAXnNzGOiQlG1Zxnom7uB/fc/6uTu78Dx9TJkX2usXBDrjUADMGHkuYn4M7xdSYv1TEsmZC7494eHvl6v73ePj4cPX8f/tly78dPhKFj/+Bg==);lineShape=1;" vertex="1" parent="1">
                    <mxGeometry x="5501.574373498028" y="2107.674811494049" width="185.85805186199195" height="98.39824582389156" as="geometry"/>
                </mxCell>
                <mxCell id="259" value="" style="shape=stencil(5VjLctswDPwaXzEkQRLkOU3/IzNxak/TOOM4ffx94XqoCJC1aY9tb4qcFfFYLFba8M3L7u55u0nh5XQ8fN5+29+fdhv+sElp/7TbHvcnvdrw7YZvHg7H7afj4fXp/vL38935P89XXw5fz0/4fsEVphrPqBR+XO7ETpF/3fl4ATzun2aAzJTYAFKmHNYBrCcUA9A7ggCBkgXkRjUDQKFoAVUfAQAlknQDKJ06AgSSakMSyh1USSMWn3RvACALQKCK+iDEzfZBRhnWQorZArQPCQC0JskCAhUQUkkLLgmJAEClYEOKZTziKkD7Giz5YqZYASATuxOYCjqhjZrMAIitkqhHHxIqq1Tf6VhhSNI9W2OjDpJuiYKjRoT0bkzZ5pAKJXSCjJpM8xCJAaDHQeZp4ioxGKBexnwNgIRRhtVO2xw0qwr6UKuvkhY6IWp0KpYaUqAISKbkTkjUwABpAM3KjEQ4ca14LilAQA7ah2gbJ0wMVEP7UFwfKiXUOFU+m0NTMQZ9iEGH2sbU8AT1Ttkd0YkRQHzWXVUAZc0UbV17pQ4ArXkyaZAR6L3OKNscZnVY1Y3oj0BZKxWynTmtA+pE1ZUivkwdTUSmln0jBAiNAqINSRkM9bsMss3YBKe6jRme8RXtUR3J4oaUx53rABlMmM1cA41THZIFICNudN8HDbIiumbvyVSZIhpSoeakrI07ayPnDJBmhfitgGaT1p3RkDJdBYCyqhfILocKte9t40w2MVFG9kT3qOWSmq4EQvpXTJzVyr/TxEUP+B9MnG3ceyZO/ZE7oQ4dWXMbbkRZLRFSPl2atkpl2klrJ3Tbae19QRar+ZdLmZbYGpeKW1kF5pCzn7h3dElfh5OTyoyp4Q2T+ka04hZ2qTQ4b2F4zknFAizRwlOeIwQJ66h0pxgFCnHqw3xNXYZE1Xidj1YWIZFk7zJ0VYDJydV7BuzEVFPZPx/pl0oq++cjW1WyH5sE104R71YZSovyRZqrfwBDVrp/22t4b+oqd/0K0D0rgBd6jd4ONQO3mc87B52weNnTrYaG5o+/i/0GQC/ePsM97B8fL1/x5r/7z3Z66/LJj29/Ag==);lineShape=1;" vertex="1" parent="1">
                    <mxGeometry x="5662.543974682418" y="2128.99009685481" width="85.10706476555242" height="106.98059007292159" as="geometry"/>
                </mxCell>
                <mxCell id="260" value="" style="shape=stencil(lVfZbhsxDPyafSVEUedzmv5HgDi1UTcOHKfH35eLhZwl156ib2tZI14zFDXJw/v+6W03xfB+OZ++734dni/7Sb5MMR5e97vz4aJfkzxO8vByOu++nU8fr8/L77eneef89eP0cz7h94KTTinOqBj+LCuR6rLwddl/PLyu9udILGY/Bwp8H1CYuFtAodgAoBNX65FQy/cBNZM0A5BIDcTQAkk2gBSpgxhaJmYDyEKx3wf0QGxdKkIJxNAzRZvWGikjC5W6TatG1QGAg9YpWESlJKDUhboF9EKpAEClYH3SsDgBQB8OXAFaahCEZrHYvHYtNXBJyZSCBzAmU3cWmBrIUlO9JA/oIOjWqFfvEkprT0NgqywJIlP1/NYjcgCARsU2AS1cQ4BK1aW1Donci8EXrpEAC61Tc4BOEaVVhscrAOoCVdlqLawkchsRfK9UExUUomjaNwAGFlQQTtWaJpRXlZw4CwUqSEVdXV4z5QoAbRN0gr2vRJ9XpSsDC0Vj2AgC8bvKDcmhoLU1+jowbBvaGcOmbUQkuTgEtgo6APbNrXSjUUQNJUJyQeu9h9rG/wK00n1zQRQQtLKVrYXG2EIds8X1lhMM0Hu5GIBKKgJAKr4OWdMK6qDzT7ZsTXja0Nki2ztLEqx0zIOb13lGFQc0zZ2C1QNrrwStjyMVe0HoSgYuhXFBXZMEBboZHNIYVu5sj/Z0gfMeU7H5jKMd3K7wUMk1VsqoV4xUj+2BGjideTD+cz8i6DzLdrc/gPPVWy5+P1C9VsYNC2EccJudwYteWx+gjnJXHHWwXDa9GjfSm88LwJ1/P0f04/Mt83I4Hpen0Pp///bRpeXdJI9/AQ==);lineShape=1;" vertex="1" parent="1">
                    <mxGeometry x="5748.660011632295" y="2026.1470329129188" width="43.80362371229012" height="224.36587044221596" as="geometry"/>
                </mxCell>
                <mxCell id="261" value="" style="shape=stencil(lVbLctswDPwaXTEgQYLkOU3/IzNxak1dO+M4ffx9oWroCoq0094oEUsCiwWIQR7ejk+vhyHy2+16+Xr4MT7fjoN8GmIcz8fDdbzZapDHQR5eLtfDl+vl/fw8f78+TZbT6tvl+3TCzxkXAkmeUJF/zX8kktQ/fz7PgNN4XgBioRQcIAqVuA/ITJIcICQqeR9QMhV2gExZ9+0rU/YeMTUB9pm0ruxj2LdvTFo8RZQAQy1R8/bBKGgAUCmIp9Q8SgDQqHqGJPQ7dwHRAVIiQQBzyXOUtTu5DcjEPmhVYgRgKs0BikCApW0VdFFIq+lCPa2TskDQtl29kEqgCFyy7eqLRwUmThsF9bRGUgSonZN74kztGJB9HmKF6i7cq/euVqUGbiiJor+hUGNgX6n6+o/EoPyrUPOkMjE4vzZiz6nVAmgXTUjzyv+ChFq6BhYEKSrnRskzOjEEbgh8j3CR5Qg4svJsXqmmI1jP2s9bKJVB1252ng/CxM6o620CgEvmcfUtpmKlitWW7xh2ZwDKCIWCZ8lSIyDoIOuXYZGandRR9AhLDRLHR5cyJcCStWkv7obr3xjxxVlTbzmb9ty9XTRV9Jp/UKo1HAVK5fXTptyrY5tQYu+PySSDBMT1o5ByZ2xbdet3TVqfZ7a7y9ofyVgQ/ztP/QPAFn/Ht5fxdJqnv+X+etyzX/OoKI+/AQ==);lineShape=1;" vertex="1" parent="1">
                    <mxGeometry x="5736.712928208917" y="2149.144730279554" width="75.79864752099866" height="31.67078063360691" as="geometry"/>
                </mxCell>
            </root>
        </mxGraphModel>
    </diagram>
    <diagram name="Frontend" id="db3UW5o8uzbsHJE9ypJ6">
        <mxGraphModel dx="9820" dy="8720" grid="1" gridSize="10" guides="1" tooltips="1" connect="1" arrows="1" fold="1" page="1" pageScale="1" pageWidth="4681" pageHeight="3300" background="none" math="0" shadow="1">
            <root>
                <mxCell id="-7DQYjudDjOqLOXsnFPr-0"/>
                <mxCell id="-7DQYjudDjOqLOXsnFPr-1" parent="-7DQYjudDjOqLOXsnFPr-0"/>
                <mxCell id="-7DQYjudDjOqLOXsnFPr-2" value="" style="edgeStyle=none;hachureGap=4;html=1;fontFamily=Architects Daughter;fontSource=https%3A%2F%2Ffonts.googleapis.com%2Fcss%3Ffamily%3DArchitects%2BDaughter;fontSize=40;rounded=1;" edge="1" parent="-7DQYjudDjOqLOXsnFPr-1" source="-7DQYjudDjOqLOXsnFPr-3" target="-7DQYjudDjOqLOXsnFPr-8">
                    <mxGeometry relative="1" as="geometry"/>
                </mxCell>
                <mxCell id="-7DQYjudDjOqLOXsnFPr-3" value="&lt;h1 style=&quot;font-size: 59px;&quot;&gt;&lt;font style=&quot;font-size: 59px;&quot;&gt;ft_transcendence&lt;/font&gt;&lt;/h1&gt;" style="text;html=1;strokeColor=#001DBC;fillColor=#0050ef;align=center;verticalAlign=middle;whiteSpace=wrap;rounded=1;fontColor=#ffffff;fontSize=59;horizontal=1;labelBorderColor=none;spacing=2;" vertex="1" parent="-7DQYjudDjOqLOXsnFPr-1">
                    <mxGeometry x="1420" y="105" width="565" height="120" as="geometry"/>
                </mxCell>
                <mxCell id="-7DQYjudDjOqLOXsnFPr-8" value="&lt;h1 style=&quot;font-size: 40px;&quot;&gt;&lt;font face=&quot;Helvetica&quot; style=&quot;font-size: 40px;&quot;&gt;Docker&lt;/font&gt;&lt;/h1&gt;" style="text;html=1;strokeColor=#B09500;fillColor=#e3c800;align=center;verticalAlign=middle;whiteSpace=wrap;rounded=1;fontColor=#FFFFFF;fontSize=40;horizontal=1;labelBorderColor=none;spacing=2;hachureGap=4;fontFamily=Architects Daughter;fontSource=https%3A%2F%2Ffonts.googleapis.com%2Fcss%3Ffamily%3DArchitects%2BDaughter;" vertex="1" parent="-7DQYjudDjOqLOXsnFPr-1">
                    <mxGeometry x="1512.5" y="275" width="380" height="70" as="geometry"/>
                </mxCell>
                <mxCell id="-7DQYjudDjOqLOXsnFPr-16" value="" style="edgeStyle=none;hachureGap=4;html=1;fontFamily=Verdana;fontSize=16;endSize=20;startSize=20;strokeWidth=6;rounded=1;" edge="1" parent="-7DQYjudDjOqLOXsnFPr-1" source="-7DQYjudDjOqLOXsnFPr-17">
                    <mxGeometry relative="1" as="geometry">
                        <mxPoint x="1702.5" y="875" as="targetPoint"/>
                    </mxGeometry>
                </mxCell>
                <mxCell id="-7DQYjudDjOqLOXsnFPr-17" value="&lt;h1 style=&quot;font-size: 40px;&quot;&gt;&lt;font face=&quot;Helvetica&quot; style=&quot;font-size: 40px;&quot;&gt;Frontend&lt;/font&gt;&lt;/h1&gt;&lt;div&gt;&lt;font face=&quot;Helvetica&quot;&gt;react.js&lt;/font&gt;&lt;/div&gt;" style="text;html=1;strokeColor=#B09500;fillColor=#e3c800;align=center;verticalAlign=middle;whiteSpace=wrap;rounded=1;fontColor=#FFFFFF;fontSize=40;horizontal=1;labelBorderColor=none;spacing=2;hachureGap=4;fontFamily=Architects Daughter;fontSource=https%3A%2F%2Ffonts.googleapis.com%2Fcss%3Ffamily%3DArchitects%2BDaughter;" vertex="1" parent="-7DQYjudDjOqLOXsnFPr-1">
                    <mxGeometry x="1512.5" y="425" width="380" height="230" as="geometry"/>
                </mxCell>
                <mxCell id="-7DQYjudDjOqLOXsnFPr-20" value="" style="whiteSpace=wrap;html=1;hachureGap=4;fontFamily=Architects Daughter;fontSource=https%3A%2F%2Ffonts.googleapis.com%2Fcss%3Ffamily%3DArchitects%2BDaughter;fontSize=20;fillColor=#a20025;fontColor=#ffffff;strokeColor=#6F0000;rounded=1;" vertex="1" parent="-7DQYjudDjOqLOXsnFPr-1">
                    <mxGeometry x="140" y="140" width="820" height="1470" as="geometry"/>
                </mxCell>
                <mxCell id="-7DQYjudDjOqLOXsnFPr-24" value="&lt;pre style=&quot;font-size: 20px;&quot;&gt;Création de du design du site monopage&lt;/pre&gt;&lt;pre style=&quot;font-size: 20px;&quot;&gt;avec page de login.&lt;/pre&gt;" style="text;html=1;strokeColor=#2D7600;fillColor=#60a917;align=center;verticalAlign=top;whiteSpace=wrap;rounded=1;fontColor=#ffffff;fontSize=20;horizontal=1;labelBorderColor=none;spacing=2;hachureGap=4;fontFamily=Architects Daughter;fontSource=https%3A%2F%2Ffonts.googleapis.com%2Fcss%3Ffamily%3DArchitects%2BDaughter;" vertex="1" parent="-7DQYjudDjOqLOXsnFPr-1">
                    <mxGeometry x="1442.5" y="875" width="520" height="540" as="geometry"/>
                </mxCell>
                <mxCell id="TlPNZ45wM-9jaQ7guL4S-0" value="" style="shape=image;verticalLabelPosition=bottom;labelBackgroundColor=default;verticalAlign=top;aspect=fixed;imageAspect=0;image=data:image/png,iVBORw0KGgoAAAANSUhEUgAAB30AAAPyCAYAAAB4tcU2AAAAAXNSR0IArs4c6QAAAARnQU1BAACxjwv8YQUAAAAJcEhZcwAADsMAAA7DAcdvqGQAAABlaVRYdFNuaXBNZXRhZGF0YQAAAAAAeyJjbGlwUG9pbnRzIjpbeyJ4IjowLCJ5IjowfSx7IngiOjE5MTcsInkiOjB9LHsieCI6MTkxNywieSI6MTAxMH0seyJ4IjowLCJ5IjoxMDEwfV19+hNsaQAApM9JREFUeF7s3QmAVWXdP/DfzMCwCwiKKKKJBIh7blkqYu4bZW5lLmiZmqb5VzJ9s3q1whZ9NS3KLdNcSHPfRVwyFHdFRAVFUdyQfZthZv73OfdeGMYB2Z0rn4+dzjnPee65Z84dYJ75nud5yupyAgAAAAAAAICSVF5YAwAAAAAAAFCC9PQFAAAAAAAAaMycp7Olbu7LEdVvRcz7MKJuZv5YWZuIZmtHNN8wylpsGtFym/zyORD6AgAAAAAAABRVj4+66UNzy50RtR9E1OX+l5bC4aKywjopSztpKe8SZe32yy0HRzTfIDu2Kgh9AQAAAAAAAGo+jrrJl0ZMvzHbra2tyy0RzSoiyirLIirqx7w5uWNZElyXq1ddFzU1uSqpbpYA57Q7NMo6npQr7JzfX4mEvgAAAAAAAMBqrW76v6Ju0uAoq5sZKT5NAW7z1mURrcojptfGhInzYsrUmizjTZFuynVbtiyLyuZl0aKyPNbuUpErKIu6abVRUxtRnsLfutx+eZso6zQoytp9O3uflUXoCwAAAAAAAKy26j7+5fzevTU1dVFRHlHWvjxeG1UV1/xratz18PR4Y1xVzJxVO39I57Ru3qwsKnJLZWVZbNqrRRz3nQ7x3W+2j4rKiOoZtdmx9F+KY8vWODzKOv88/+KVQOgLAAAAAAAArJbq3v9RxKxhUZf7r2ZeRPM2ZVFVHfG/F06KP/5tUsyaXVOouWR22Kp1DLmga2y+eYuYN7UmyivKsuGes+C3zW5R1uWSXK1idLziCH0BAAAAAACA1U7dBz+KulnD0lbMq66Lyo4VMe6NqjjiR+/Ff5+dFeW5I7XZ/0WUl5VFz4qK6FZekSuvi6p8cczNbY+rqY2P03jQhbrt21bEHX9fP3b6aquYN6O2EPzmjqWwt3X/KOvyp7SzQgl9AQAAAAAAgNVK3ce/irpp12fb8+bVReWaFXHvfTPiqB+/Fx9OmhdlFbk6NRFdyivioJYt4nstW8UmzcqjVVlZMduNFLKm9Yc1tXFr1dz4v5mzY1zdvKxww27NY9TDG0WLirJsP/X2Ta/I1u0OW+FDPadrAgAAAAAAAFgt1E3/1/zAN83hmwLf22+fEfsfNSELfFOH3Ha15fGrtu1iZKeOcWm7drFV84os5J1RVxfTcktaz8otc3JLp/KyOKV1q3g6V3ff5i2yBPatCdVxyeWTo2KN8qipTa+sy+b3zUy/IbfcnN9eQfT0BQAAAAAAAFYPNR9H3Tv7Rl3ttCzwbdauIp4aOTt2+fb4qKqqjbqyiO7lFXFHhw6xefNmMbu2NuYWXpqPbvNSz9p8791cWV1dzMsdaJ3brYmy2GnK5Hixqjq6d62MVx/ZKCqb5erU1kVZeYp9C8FvWdsoW/+uiIq18vvLSegLAAAAAADAUqupqYnnn38+hg8fHh999FHMmTMnK2/ZsmWstdZa0a9fv9hyyy2joqIiK4emoO7jX0bdtBvyAW5tbqksix33eyuefml2VJRHrF/WLC5fY43YvFlF1ps3dzgqoiwb1rlVbruyEPSmHr6pp2/67s7C39x2Ve6knSvK4spZ8+K46Z+korjhkvXi0MPaR9XkmmiWhnou1k9W4DDPKy30HTFixIILztl+++2zdcPy9Pb19/v06RNr5G4kAAAAAADA0hozZkzceuutcdJJJ0Xbtm0LpaxoKez95z//GVVVVYWSxjVr1iyOOOKILPxl1Tv11FMLW41Ln8+RRx4Zm2++eaHkC656fNRO2DsLaGvm1UXz9hXxyotzou8e4yLLbaMs1q5oFuW57Zm5Oq0L/XLLcwfb5Za1czvr5tab5Op8s2WL2Cx3/6bW1WYBcqqZ1pVltTG+ulXsOnVSfFAzK3bZrk08/O8NomZWbZSX1wt8C8rWvyf3QWxQ2Ft2KyX0PeOMM+LmmxeMQ33BBRfEt7/97Wx7o402ytZJKj/zzDMLe3nXXXddfPWrXy3sAaxeZj97efzorEviP69Pj6qojL0vHR2X7r3wPwA0Lbcet1GcPqx7/OCu4TGoT6EQAAAAgM/Fk08+GTfeeGPU1tZGmzZtsryiQ4cOhaOsKDfddFM88cQThb0l85WvfCW+973vFfZYVT4r9E0qKytj8ODBnwojv4jqPvl91E25IuvhW9YsorZ5WfzgtPfj6punRHl5WdTMyx1YQm3LK+IHLVvGL9u2iZr5gz7n7mFZbq+2VRw1pTZur34vWlVWxCsPfSk23LB5zJtbmwXIC93r9sdG2ZqnF3aW3QoPfVOI+69//auwt3DgmxRD3/TNc/DBBy8UAidCX2C1NfW6+M42/xMjaipj/e36R981u8TeZ58b+68XMXpwv9hvyNux6x/HxeUDCvWXxujBset+Q2L8rn+Mcct0AhZF6AsAAADQNDz44INx5513FvbyWrVqFSeeeGKsv/76hRKW1z/+8Y945plnCnt5KWA/+uij52c+48aNi6uvvjpmzpyZ7Rfttttusf/++xf2aAqKofCFF164eoS+b+8atdXvp/GaY05NxDePnhAPPJ6+T/NxacUaa0abbhtEmw4do2XrtlHerFnU1NVF8/KyKK+ZF9Pfeycmvf5aVM2dOT/mPbF167i0Xdv4JFcvDfVcl/uvRTSLX01rE7+dOzY79c1/6Rbf/NYaMW9KbaTRzhe61xVdoqz7w4WdZZfmGF5h0hMz9QPfFOzWD3yLUhCcAl8A6nn44RiR+0dm7e9dG4/ccFlcdlk+8AUAAAAAFi/1PG0Y+CazZ8/Owqw05POy+P73v/+pzmtJyj9SeRpGumjixInxne98J3r27Jkd23HHHePhhxcOclJ5Wi6++OJCyQIpSO3Ro0d2fPTo0VlZ8X0aWz4PTz/99KcC386dO8e5556bfd1p7t60pO1Ulo7V99BDD2XnWBr33Xdf9vWefPLJ2ZSh9R133HGfui977rlnPPvss4UaeZ/12aT7ncrT/a6v/uecluJ7NLY0fO0XTfoa0/1eVF/SdI8PP/zwhe5xmuu5obvuuis7Vrxv6fNq+Ocz/Tk49thjs+3iZ7PDDjvE3Llzs7KiVJ7qLXH/1jlPR92899PIzlHRqjy+f9r78cDjM3IH6qLdhj1j7z9cEec/8VJc+/hTcf8jD8UjD9wWw++5Oe6855Y49u83x4Crbosj7xwR37l9RHzpgJ9Eu26bZyHvZbNmxe1zq6J9WVkWEEdd6slbE+tXNIvmqTtxzktjctdeUTb/WtN6/pK7pnRty2uFhb6NDencWLDbsOcvAHmjx7yRrTfd8ivZGgAAAABYvJqamrjiiisWO9RwGup5yJAh2dDPK8ukSZNi7733jpEjR2bB12mnnZb15EuBVP1guOjee+8tbC1wyy23zA+EGvrxj38cv/nNbxZaVrV0r+vnQEUHHHBANjzwiy++GP/v//2/bEnbqSwdayidI51rSRU7G6Z7tqj5g3/9619n9yTd9/Hjx2dz1BbrLu1nsyhbb731/Ht/yCGHZGU777zz/LJ99903K2sq7rjjjqX6+pZHusf77LNPFujXv8cDBw6Mf//734VakV3PKaecEs2bN49zzjknq/fBBx/Efvvtl31ui/Phhx/G7373u8LesqmbPTL3vVcXzdpXxO23T4/r75iSlffYY0D89MGn4m8/GRiD+q4b+3csj03La2L92nnRLbf0LauJXStmxbQpU2LenDnRbctNo89+B0bHbb4drbrkH8D4n5mzYkbuz29F7uuuK8uHumuVVUSHssrs+Jvjq7O5gdOf8Hnz6nLXkerkdnL105KubXmtkNA3Dem8qDl8G6pfnoLi+g466KAsqQdYvdwa3+/RI/Yd8na2N+z0/NN8Gx13a9Tdmn9SLR1Lf/8P+0n+6afj/t34D3+fdmscl86175AYnz9B4dzFf2hHx+Bd0/sdF9c/e3EcvkPv3HbP+OGd+X98cv9cx3NXnBEH7tg3eqbXbdQ7ttj58Bg8fGIs/ONV7jz90vHj4tZJj8fgw3eMvj3Tfs/ou+PhcfEzswr16pk9Jq7/0V6xdd/8k18b9d4i9hx4cTw+qXC8vqpxMfSMA2PHBnUf+7hwvL6s7oD5dXv23TEOPGNojFvoghd83dn1fudrn329uXvx+ODv1DvvbjHw4sdzpcV71VCu/sUDY88t0j1d9NeXhofusVG/GPxS7rpP2jO26J2uY6PovcWeccad7zW4z3mTHr84Bu65RfRO582u+cA4Y+i4WPg5t7yF6+Y+vz0HxsWN3jgAAACA0pKCw9Rj9qWXXiqULFoKfq+//vpsCOiVIV3HtGnT4i9/+Uv86le/ynqlpp6k7du3j9/+9reFWnmdOnWKV199daEesymgvO2226J169aFkoXtvvvuceihhy60rGojRozIek431Ldv32z9z3/+M+bNm5ctaSrPJB1rOGRwOkc615KYOnVqPPLII7Hllltmn/fQoUMLRxZWvCfpvh9xxBExa9asGDt2bHbskksuWeLPZnG6d+8+/32KWVafPn3ml2266aZZWVPw+uuvZ19j6mmbwt+VLX3/p88qPVxR/x6vscYaC/WATttpyPUHHnggC4RTvT/96U/ZZ3vllVcWai3a3//+9/m94JdF3dxR2by9tVW1ccHfJmdlG+3w9djnz9fHTmu1jfWiOleS5vRNQWx51OWWOXXl8UmueMycsmhWke+1O29udZTVVeXqVETrbvnP/eXq6hiX+zpapgA39/q6stpoWx7RvqxFdvyNt6qjalpttGhZHpVrVkTzThVZb+O6mlztlP5WjcrVWtLf+zduuUPfJR3SuaGGQXEKfFNC3/APP8AX39ZxzK9/HT/euVO21/uQ/FNpvxm4dZRtPTDbXnAs/9TYwK8s6d+VW8fAdK4f7xzZGXofUjh3w97EI+L8Iy+Kp6e3js6dO0bb7N+uSXHrcbvFQeffGhM67BLHnfObOOf4/rHezKdjyMC945Q7pzbyT9DT8YvdjolrPuweu+y+V+y13bpR8/6TcdFhx8V1UwtVkqqXYvD++8XZd78V7TY7MI4/7fj41pYdYvzwi+LI3X4Yd0ypd+ZUd589Y9DNr8TcDb4WR5x2WhxRqHvUN1JoW6iXFOve+k502DY9UXZEfG2DufHKzYNiz33+EK986oIL1/vB+ou/3qiKYWfsEQOHjIiPontst9desfsua8XYy46J3z5SqLKQ/L076qInYk6f/T719eVuXQMfx/Xf2zP+5+mWsVX/3HXs3DvazHo9bj7lW3H+wqPlxKRbj4tvHHVRDB/fIbb81vFx2vG7xwZzX4mbB+0Z+w5+caGQeNKt34/dcp/rE3P6xH7HnxbHf2vL6DB+eFx01Dfih5++CAAAAICSMWPGjCyP+KzegQ2lIaDTUNArWgomU5jbv3//QklkPV1T78/UQ7F+ULXJJptk4e7tt99eKEkzvz2cBZUpK2mqFhWun3766dm8sHPmzCmULNBwON6iUaNSwPXZikFyGqI7ha433nhj4UjjUribhpBOYWMaIjhZms/miyINsZyGsy4vL8/ux8oOfpfkHqcgOm2nBxjSsaKvf/3r8dhjj2W92RenOLpwyheXVe3cN6OiVVmMGV0VI56bFWW5+7PzzwZHy8rm8fDE6XHT+/PiuvfmxlXvzokh786Oi96eHb/PLb8bPzuenj4vWpTVRW36HXNZWUwaPzH3+rIor8w/qJF6986rywe46b+kfVlN9I4O2fbIF2bHJjuPja8NGB9HHf9eXPKnT+KVV+dGRZuy7Jx1VW9m9ZbHcoW+Szqkc0MNg+Ji4AuweuoeOx56aOzRp022t+72haf1duyeO7Rjtp2OpZh33R3yx9KhJZM/96F79Im2+RMsOPdC5sY6h/0rXhj1bDz11FPx+71y/2699a+44cXK6LzrL+K+uy6LQQMPjYGDLou77/9pbBXT4v4h/4z3PhWizozO374xnn7ohrjsssvishseiKsPXzvKakbE7bfVCxnvvzQuH1cTnQ7+Wzxww+9j0MmD4ve5ukMH5q5r2v3x1+vfK1SMGH3hKTFkXMRGx98S/7376vjVySfHr254JP4zeKdoM21Y/PbiYiqa+4f6l9/P1V0vjrzhsbj76vRE2a/i6rv/G7fkzlsz7i9x3nX54ToWyF/vyM+63mfOj5/dPDnmdR8Ytzz3UNyQ6l52Qzzyn9/FLvmPbSGTrjkxzhg2L75+3rB6X1/+mlvnvr7z/vhMfuiO+WZFbPPrePix2+LqdO6r7477/2fbaBYfxt231HvqceqtMeicYTG1Xf/4438eiRt+PyhOTp/Jf2+Jgd1rYtzlv42hxcuedE2cdOZDMW+n8+PhB26I3w86OQb9Pl3z4Ni5Te7zO++P0SBPBgAAACgJU6ZMyTo2pABpWaShoNOQ0EszxHA2klu9JfVorO/tt9+ONm0+/Yuidu3aZev6c5amoW1T8JXyleIQxKkHYwo1i0FlQ2n42/rvX3/I3FVlae53MStKvZkbG7L6/fffL2wtXgore/fuHRtssEF861vfysLidK8bKs6FnHoEpwcBrr766vnB4tJ8Nl8k22yzTRb8Jis7+F3UPU7he5LucRoCOllnnXWydX3rrbderLnmmoW9xqXjP/nJT7LvgWuuuaZQunRq530UdZVl8dwrc6O2pjbKKypj9uyKaNWiIma0bBNPzCmPkXPK4vk5EaNzy9vVZfFJ7q+JeVEWrZpXREVl82jdcY144z/Pxbsvvx6VrVrGvDkz8yfPvs2LnbXKoqyuLCrL50X38vzv9qty7zf2nap44rlZcc0tU+KUcyfGlnu+GX/88ydR0a48aqo+yL90OSxz6Ls0QzrX1zAoToFvei0An6cd4/gzt46FBo/Z8Pi44amn4qkrvhudi/9WJZ12jO1SZjx9Wny6r2j+PK0KexGVscO2m2b/1n0wcUGQG/PmRfqRus2anXI1iipjs9Nvzp7q+tt31yqUjY7b7839ENd6rzjjtM3q1c1dxsHHxrfWXytqxzwdb2Ulj8eNt+V+8Nx2YJy6df2vJHfeg/aO7rl3fLHekDl5Db/uxq939IOPRPqRdttjfhSbLXQRA2K/bRb8U573Xtw0dGTUdDowfnh41wbX/M1IA798+OxTuVr1rRff/vHB0bVe5U7bbh3r5U486YMFPwBXPXxnPDIrovfAc2JAvvN3XuVmMfCor8VaHd+MlwpTP7x309AYOa9THHjC4QudN3cRMWCH3Ik/fDaeWvgiAAAAAJq8d955J+vhO3NmIWhZRqnXahqSdkmD32z0vHpLmst1eRSHIE49fNOwuGm+2RRqTpw4sVBjYQ3n9P3KVxqO5LfyffLJJ4WtxUtfWwoc02e1qHA6nWtR8xcXpcA4DYOdOrEkKYNKo8WmwL6hRx99NPu94rXXXhvrrrtuHH300dl9/SJLvas/a0n3o2hV9PhdGqn3bzGsT0uaY/mznHDCCVndlCt+/PHST2FXVzMjUi/dadPnZSFtRUV5jBx6X4z81wPx7rOjYuqYcTF34gdRN3lKxMxZUV41N8rn1URNVXXMnDI9Pnnn/Xj+tmHxzL/ui4pmFbkzlkXN7Pz3WWXuvK1zS01uSb8vLiuri4rcm1Tm/j8/KHTE5s2bxRaVzWLj3NKsWVlUz6uNswd/FB+8Ux3NKj89dPrSWqbQN421Xj+4TVIIXPxgGluK47M3fF39IZ1T798lHccdgBWpeTSvHwwWVU2Mp9OcvjsX54RNy75RmH64EYs4T0O7Dog91oh4e8i3YvsDz4hL7ngiXpuU+0etVafsqa511iieZEy8kd7rS5ssHLZmdo5fPvJkPHXD8bFh2h09Mp5LU/GO/EVs3WPhf4PSnMbpNLOmT0s161my6x3zenp199h62/b5gsV6Kp5Jo9NMuj6+W++HlvzykxiWqnwqMK+I3L/3n2nsmDeiJlpHr74bFEoWWPeYf8STT/03fvuN/P5T+YuI679T//3zy08eSj9QT49pX+yfewEAAIAvoBTopdDzoosumj+X7NJKoWR6/WmnnVYo+WzZ6Hn1ljSXa33pd1qNBdHTp0/P1r169crWRVtvvXXWszf18E1LctRRR2XrxjSc0ze9tinacccds8D33XffzYZkTnMpL6vi8Ne//OUvs99ppWGAU1B83333ZeX1pfuflvT+KSBPwzynOZKLx5b0s6muTnO6fnEtTe/2pbGoe5w+hyTd4zT8c1Ls5Z3+LP/61/mpDpdG+r5KD0ycc845hZIll+LIstq6WLtTs5TXRvXcWTHjnVdi9LBn49HLh8awP98Y9190bdz7x7/Hvb+/Krf8Pe7Lbafl/tzy4EX/iBfuHJ516i1v1jzmzZ4Wsya8nIW8vZs1i+4V5VGV+x5N+3V1ZdnswEmKh5Oz27SN5zp2iuc6dIw/t24XzcvLYk5VbTz25Owoa73cM/Iu/5y+K0oKfFNw/FlPdgCwqkyKW0/cOw45/46YsvF34szf/DVueeyxeOyxq+I76xWqLKv2+8Vf/ntPnH9Q74gxN8eFPz4i9tp28+i728C4+PH6k/QWdOka6xY2P0v7r5240FOPCy2fmst4Jer5rfhVY9eQlkH7ZL14l03nWKdrYfMz9Yxv/W8j758tg2KfJb2pAAAAAE1ERUUxPlkxVtT50lymafjaYcOyR/4zaejmu+66K9Zee+1PhcRJ6tmbevjecsstse2220b79kvS4eDz81nD7yZf+9rXsnXq4bu4wDedq9ghsDHp3qVOhJtuuulCv9M65JBDsmGm69/nhmbPzveYbNUqPx7hknw2KYBMnnvuuYVyqsmTJ2frhqF9U5AeXPisJT3gULTbbrvFgAEDCnsr1pLc4zTPcNp+4IEHsrrp+734EMPS2GyzzeLwww+P+++/v1Cy5MqbtYm6OXWx/ZYto1XL/J/9j5+9PeZNeStar9U1mrdsmSupi3lV1VE1e07MnjotZnw8OWZNnhrz5lZFeUV5VLaszL53y1u0iU9eeiCqZnyShcAntGoZ7XLlNYXQN/X0raqriKqozUa9TN6vmZeVp0cLvteyVXy5ef4aHh85K+oqGplHcCk1idC3GPgC0IQMOz/OGTYt1j786rj/ikEx8NBvxJbZE3NrR7sV8bNwq15x+O9ujSdffTWef+KW+Otpe0Tnd4fHRUfuFqc9NLdQqeCDiQ2GQ160qS02zv3wt+Cpx4WWJZ8MefnNXSu2XtR17L1ZLPuP8B/H+42P8tOIubHW1o28f7bsHZs17XYEAAAAwFIr9uItLsvaG3hpnXLKKdn8pT/84Q+z4aevvPLKrHduGmL4pz/9aaHWwlLP3tTzMs2HurhevkkKym688caFllWta9fP7omQenwmb775ZrZelBT+LU4a9jr15kxDOtf/ndZZZ52VHU+hcv1wtnhPLrnkkvjjH/+Yhfnbbbddduzkk0/+zM8mBZB77LFHFvqmIYTTuc4999y46aabsu+hxkL7pu7pp5+Of/7zn9l2Cnz333//bHt5vPfee9k9Kd7vtKTv3/T9n+7h8ccfv9A9Tj19Bw0aVHh1xNlnn52F8ulepzrp9QMHDsyOpbmul1T6bJblIYnyZl1i3pzaWG/jyjh8/3a576Fc4bzZ8e7DV8ak5+6OebOmRnnzltGsZZuoqGyZ267M5vGtyF1bWXlF5DairDI/WeBHTw6Nma89ngW+2+Tqfa9Vy5iaO2F5WVmuLP1XFtNqc6/JVSh+p35cGzG3tjyqcwUtymti4/J8TPvyq3OjrKpztr08lin03WSTTeK6667LvlkWtSwpgS9A0/T6cy9FGi150213iMqFHrqbGtOWa8qUmTHmgfQDwSMxrirtV8Ya62wZ3zj50njg8oOjU0yLO4cWn9LqFRunnPbNV+KlrG59o+O6M06ME395Rz4QXrdrdEnrEQ/FfVXFf0ZXjF4900W8Gy88uyTjIa8TXdJIJW8/Eg+OX7HX0aPXxlGR+1TGjBpfKFlg6rDfx0knnhhDns7vr5O/iHjkgU/XBQAAAGDFSkPX3nPPPVmP3csvvzzOO++8bKjgNP/sonpXptBqhx12iNatW8eee+5ZKG3c//3f/2WBZ/1lVUvZ0GcpziX7WcMIp96ai3PNNddk6wMPPDBbF6V7lkLYe++9d6E5e3/2s59l9yQN/dulS5e46qqrYoMN8lOkLelnk+Z4TqFlmhs4nSsFknvvvXcWcpaa119/PcvqUm/rFRX4JmmO5frfg2l59tlns3t89913Z0N717/HKdj95je/WXh1xH777ZcNZ965c+esTnr9888/n33PpMB+SVVWVsb//u//FvaWQvMNo6y8LGpm1cWvBq0Vm/duFbVRFnU1VTHpxXvjvXsujPeHXx6fvHBvzPnoraiZMyN3bF5uqYnaeXOjeur7MeO1J+L9+/8UU177T8zLnbJdWXn8eY122by9qW971su3MLTztNpm0Tz1Cs5tJ/+Z2yr+MaNb3DBznfjv7E7RpSw/9+D7H9XEvJpPT+m3tJYp9E1PRKS/iBa3LMq4ceMWWtJTGvX3v/rVrxZqAtBQdfWnks+lk/uHdknPsEGPDbO5Bkbcd1fMnp9dzo5nz/ufuKmREZiXXJt49+7/zf2DflL88tYGk+3PnJV7h4gWrfJPS0X0iQP26h4x69743YUvLXTtk279Q/z+lnvj2dp180M/tz8wDu+fe92su+K3v3k2O898s5+N8w4+Mq4Z26AH8RLqc9i3onfUxIjL/7Rw+Dzp1rjz6QVPauXtEEd8O4XEr8Zfz70+JtavXzUxrv/hwXHu45MavGbJVO66X+yS+xJfvfK8uLX+Z1D1Uvzl10PingemRNue+aIdjvh2dM/9hPHqX38e1y98ETHx+hPi4HMfj+X6GAEAAABWA3/729+y7KKh1HsxldcPDVNP2BS0pcAtHXviiSdi1113LRzNS+UpFCsObZzqv/zyy9l2UjxvsWdpcb+xZVVL2U9xyOTlkc6xuBwpSR0P09fYWG/OO+64I7vHHTp0yO5lw/uS5vxN8//WtySfTQoS0/0eNWpUVicFnJdeemmjX3P63FOd+r1Ym5I0lHL6+vr167fCAt/i/W24FP8MpHt8/fXXL3SP0/s3lD6b9BkVX59C49RTuH5P37Fjx2ahfJL+LKR6De91CpBTeaq3uKHC6ytvuWmU56rWzK6NdXtUxg+/2yFNvhvN0i/Cy8qjet7cmDFxTEx6+YGY8OBl8e49F8Z79/5fvJtbJtxzUbydW94feXPMmvp+VOTq71HZIu7p2CG2yJ1gRurlmztN+r1vGsJ5Xl15TK+riBZZ6Ju/vpm5g9NrK+KTmsp4fG7HeH9e7v1zps6oiZqKNCrBkn0di7JMoS8Aq1afbbeK1rm/75/47YA4OuvNuZSRYZ9tY6v8CWLA0SfGicXuoItRuc/hsd8aEbPuOzW2/cZhceKJR8eB228V3/77O5FNdfL26zFmmaLLiP7nnBf915gVj/3067HLYT+PS268MgafuE989Ud3xayKjeKY7/cv1Mxd+mkXx/Eb5X6oGHJw7HTgiTH4ykvi54ftFjufMSxmdNgjfnrKVwo128eAwefFHh0r4u1rDouv73N0/PyS3Hn/32Gxy1bfjiuffy/enrL4JwwXaYMfxuDcRTR7+8r41lf3yT6DE48+MLb/2hnx+Jx0MxbW57RL4qRelTHrsXNi190Pi/83+Mq45OdHxz5f3TnOvv/1eHdi1RKH7wtpPyAGn9c/2k8fFmfsvFsc9vNL4srBJ8aBOx0cQ8ZVRK8f/jQOLv4c3Oe0uPjE3lE567E4e9fd47D/NziuvOTncfQ+X42dz74vXn93YlQt00UAAAAAsDpKQyYfdNBBhb3GFYfVXlwIl86xoudm5tNS2LuoXuarrZbbZKu68rKonVcXU6bmf1+cvhuvbdcuftqmbWzZvDLapaGcc6qrZsWcGZNi7oyPo3r21GgVdbF17vhZbdvGfzp2iDs7to9tmzeL6Sk4Tt/zaakri/KyupidQt/aiuzcxTC3OmqyY83LaqNFWrL+wRGfTKmN2hbbZtvLQ+gLUAr6nxO/P2ijqJz2ajx677B48aNC+RLrH2f//qD4UuW0ePXRe2PYkpygsn9c+NA1cfz2a0W8/VTce++IeKvDjvGzG+6MH/dOFd6I10ZnNZdepwFx2T1Xxqn9NojpL10fF551XgwZ9m602eSgGHzf3XH6JvV+KKzcLAbdfV8MPqhXVLzxQAw578K4/qXZsfGA8+OOx/4SA9IoxkW58/7l8Tvj/IP6Rovx/4lrL8yd987RUbfV8XHlo3fHOV8p9iBeWpWx2aAb48pT+0X3Oa/nPoN744GRM6LviVfF5ces9+nnr3LXfPptD2f1N5jyfNwy5Ly48PqR8X7nPeL8e/4blx/cNfcP+rLpNODyePDvp8ZO3T6O56+9MM4bMiz7XE698uG47fTNc1dalLvm02+Nh688NfptMCWev2VInHfh9THy/c6xx/l3x38vPzi6LqgMAAAAAJ8pDd+bhgteVum16RzwuWi5TZQ1Wyc/BHNZWVSlyXVTcVl57FLZPH7Trk082rFDPLtmx7ivY8f4e/v28fcOHeJfue3ha64Zz3buHI+u2SF+3bZNbNW8Wda7d2Yh8M2tsl7DUZbbz60+rqnMHauIZpFm983/Brk2q5S9ezb8c6u6fEy75lpdo1X75Q99y+rqz3S9AqXx5etLT25069atsAfA8ho9uF/sO+Ttwl7juh9/VwwflB8KBgAAAAC+SNLQy2ko3vqOOOKIhULFJanD0kvz3Kbhe5fGjjvuGIccckhhj1UlzZf7WdLQ1oMHD17iYZJLWd0nv4/qSVdEZafy+Nk5H8Zv/vxxbFBZESPad8yGYi6rq4sW5eVRmbsVFYWwNgWpNbn/n5fbmJs7nvoHp7g23a9Uf0HQWha1uZ3W5TXx6JyOMWJup1zd2fG7OaNiVm5ry4o146jKjWNm3bxoXVYRo2umxt+qXoszzzwzu//La6WFvgCsXFNfuifufWVaYa9xa2yyV+y92afnvQAAAAAAWB7PP/98Nk9u1WfMIZYCxe985zux5ZZbFkpYlT4r9G3WrFkceeSRsfnmmxdKvuDmjY+5b+4dLTqXxc/Ozoe+G+a+R1Po27q8NmpSF9yyfNBbP0DN989dsMw/1mAnRcDNc8u/ZnaJCfNaR3VZVfxuzsuF0LdjHFXZM2ZkoW+zGFc7LS6tejVef+312HjjjQvnWHZCXwAAAAAAAJZaTU1NFv4OHz48Pvroo5gzZ05W3rJly1hrrbWiX79+WdhrDl+aknkf/jKaNRsap5/5fvzxiknRrVmbGNZ+zVivYlZUZf17C9Fp1pM3rXNLFqcWjuT2sx6+6Xh2qC7r9VtbWxfNyutiek2zuG7mulFTVx6z6+bF7+e+HDNjXmxV3jGOavHlmFFXHS3LKuLd2lkxZ+DOcdlll6WzLjehLwAAAAAAALB6qPk4Yur+8aMfj4lLr50c6zdbI25ut1ZsWjk55tQ2i/KyfIi7pLKgta4uauvKolV5Tbxc1S7umrVWtCmvjekp9C309N2qYs04snLjmJUrqywrjxltm8cJL94SXdZZJzvP8srPEAwAAAAAAADwRVfROaLN/8t66Ga7URZvVbfKQtuy1LU3+1/uvyXoN5v18i3US69N53ituk2+T3D6X36VSe+T7xucyspiv8H/b4UFvonQFwAAAAAAAFh9tDgodv7GsWkE52hRVhcTa1rG1NrmUZHC3lRYl0LcssUGv1ngm+pk22VRmTvPhHkt4815rbLt7Dy5dXG46GbzA9+ILb9/UGxzzLey/RVF6AsAAAAAAACsVg49+vdx4IEDonlZxMzaZvF6detoWVYbtYWcd36o2yD4TfsNj6X/T4Hx6Oq2Ma/YYzjFvblVin2TZlGebX15v11i9/8blJWtSEJfAAAAAAAAYLXz73//O3bef59oXlYTT81tH+/OaxltymuithjYZpnugu3iflpSOJzqpSGdW+de8/a8VvFKdZtokQXHaSDnNEh0Cn2zF0Wrsor40n47x8E3/SHbX9GEvgAAAAAAAMBq6dJ/XR+bf/9bURUV8e9ZXbLwtlVZTbQor82VZPFv1nO3uFRkS21U5pZWuaVlrt7EeS3i7lmds9qpfv5/ua1c3XzkG3Hg8UfF/jddELmTFEpWrLK6hn2SAQAAAAAAAFYjL119W9z30wujaurM6N18Rny5+czoUD4vWpfVZEFvUhNlUVVXng3hPDu3fr+mRYyvbhXv5dbVUR7NYkHIW1FWHpNr58bfWo6P3/z+93HccccVjqwcQl8AAAAAAABgtTfzg0nx+Pl/iyf/ekuk/rgty2uy3rzNoja3VxbzCqFvTV1ZVOe2q7P5eyMqsz6+EXW5nbSurauL5mXl0fO4A2KHn30/uqzTJVe6cgl9AQAAAAAAAAomj30nXrjy3zHqxvti6rsfZkM1J9lQz9k6t6ThnrPSbDTn7EhZXV20W2/t6HPoXrHlwG9Gxx7r5yusAkJfAAAAAAAAgEa885/n4p3Hnon3nx0dn7w+PmZM/DjmTp+ZHats2ybadu0ca/bcINbZuk903/krsf7XtsqOrWpCXwAAAAAAAIASVl5YAwAAAAAAAFCChL4AAAAAAAAAJUzoCwAAAAAAAFDCyh566KG6mpqaSEv96X1N9QsAAAAAAADw+SorKyts5bcrKiqypUWLFtGyZcto3bp1lD355JPzQ99E8AsAAAAAAADw+WsY+CbF0LeysjJbUvhbNmrUqLra2tr5PX0FvQAAAAAAAABNSwp9iz19y8vLo1mzZvN7/JaNGzcuC3318AUAAAAAAABoehr2+E2hb1qaN2+eBb9lEydOzELfpBj2Cn0BAAAAAAAAmoZi6Ftcp8C32Os39fgtmzRpUp2wFwAAAAAAAKBpqx/+FoPfbJk6der8pLex0FcQDAAAAAAAALBqFQPe+uqXFUPfpGzmzJmLDX2LhL8AAAAAAAAAK1djYW9R/WNpe37oO2fOnCzN/axQV+gLAAAAAAAAsHItLvRNGjteVlVVtUShLwAAAAAAAACfr8WGvgAAAAAAAACUnrK5c+cKfQEAAPjcfdbwVU2FkbIAAABoSlJ7umz27NlaqwAAAHxuimFvw3VTUwx7G64BAADg81C/HV02c+bMhVqpGq0AAACsTA1D3axxWr+hWm+7Kagf8ja2XdRwHwAAAFakhu3khdrQ06ZNm98q1UAFAABgVajfUC02UtNSXl4+f7t47PPUMOStra2dv108ltTfBgAAgJWlfju52H7OllzDVMsUAACAz11VVVXMmzdvoeA3LZ+nYriblhT4NmvWLCorKwtHAQAA4POX2tPlhW0AAAD4XKUwtaamZn5v2uTzfE65/jWka0rXJvAFAACgqUltVaEvAAAATUZ1dXUWshaXz1v9a0nXBgAAAE2R0BcAAIAmIw1JlXrVNjXpmtK1AQAAQFMk9AUAAKDJSOFqcXjnptTTt3hdAAAA0BQJfQEAAGgymkLQuyhN+doAAABYvQl9AQAAaFKaYrgq8AUAAKApE/oCAADQ5DSlkFXgCwAAQFMn9AUAAKDJaMoBq/AXAACApkroCwAAAAAAAFDChL4AAAAAAAAAJUzoCwAAAAAAAFDChL4AAAAAAAAAJUzoCwAAAAAAAFDChL4AAAAAAAAAJUzoCwAAAAAAAFDChL4AAAAAAAAAJUzoCwAAAAAAAFDChL4AAAAAAAAAJUzoCwAAAAAAAFDChL4AAAAAAAAAJUzoCwAAAAAAAFDChL4AAAAAAAAAJUzoCwAAAAAAAFDChL4AAAAAAAAAJUzoCwAAAAAAAFDChL4AAAAAAAAAJUzoCwAAAAAAAFDChL4AAAAAAAAAJUzoCwAAAAAAAFDChL4AAAAAAAAAJUzoCwCfo6pxj8SNN94Rz00qFAAAAEATMOm5O3Lt1UdiXFWhAABo0oS+AHwhjB68a2y00UaxUb/B8UpdobDJez0u+cExcdZZP45Dzr6zUAYAAAAr2uwYc/vgGLjn1tG3Z67tnNrPPfvG1jsfGGdc8XRM/FSwe2ecfciPc+3VY+IHl7xeKGsaRg/uFz3S9R93a6GkcaX5ewIAWHZCXwD43GwQW23VMZpFZWzcp0ehDAAAAFagqpfiD3tvFXufOiSGvz4lZle0i86dO0eHyqqYMuGluPn8Q2LnXU+L+xYagWqz+MqmlREVHaNXr7ULZQBAUyb0BYDPTWX0/90z8dq4V+OeH/cplAEAAMCKMjXu/PGRcemYqog1doizb38uXn31hXjqqafi2VGvx6hHhsThG1VEzcTb4keH/iFGF16VHlL+/r9fjXGvPxOX7te+UAYANGVCXwAAAACAL6Kpt8W190/NbbSOfQdfHQM3bR+V+SOZVuvvHuff+OvYuU1Ezbi/xB9urQojIQNAaRL6ArCaq4qJwy9eaF6jnn23jj0HXhzDPz2p0Xyzx1wfZxy4Y+E1PaPv1nvGwIsfj49HD45+SzFn0K3HbZTNRdRv8ILnqXOlcVw6x0bH5bZmx5jrz4gBO/aNnllZ79hiz4Fx8eMLjbsFAAAAn/bexPgg2+gc3bpXRlm23UCnA2Pfr6QjNTHikccjn/qOjsH98m3kRqfOnT0mrj9jQOzYt+dC7ejHJ+Vet2uPXFm/qN/MLc7Dm9q+VROHx8UD94wteufP37PvjnHgGUNj3KKb4CtQ/evT3gbgi0XoC8BqbFI8fvY+scvAi7J5jWpad87mNWpdMyVeH35RDNx5nzj7sY8LdReYdN9psfv+Z8fNL70fs2sqo13njtFs1usx/KIj4xsnPxAzC/WW3xtx0/e+EfudfXO8+Emz6Ni5XVRGVUx/fXhcdMyhMfilVdIiBgAAoFSt2zW6ZBvvxrMjJy2iF29l7PeHR+Oxxx6L+875apQ1mgzXM+m++Mnu+8fZN78Y78+uicp2naNjs1lZO/rI3U6OB2Ys+gnojx//dRy698C4aPi4mJdrg3doVRE1s9+Pl24eFN868db4eJV1M54ZD5z81di7sfb2kbvFcbcu6l4BQNMl9AVgtTXpmhPjmOtzDc2KrnHgJf+JF194KpvX6IUX/xNXHr5RVNSMi+sHnhTX1H/It2pYnDfotnhvXpoO6ey4Z9Sr8UJ6zauj4pELD4y2b4+LFfdM8NsxYkTEfhc+Ei9ncy69EK+O+lcM7NEsjbsVl//f3TFXKxQAAIBFaX9gHLFHmpO3Jkb+7x5xyOD7453Z+UP1teq0Xqy3Xm7p1KpQsihVMey8QXFbvlEcZ98zKl5NbekXXo1Rj1wYB7YZH+MW0yieNeo/8eaXTo3rnxsVo55N8wqPiv8M3i3WyB2bNuyiuGL0qmrkTopx4zvH4Vc8HqPnt7fvibO/mu7VtBh2xslx3RQNbgBKi9AXgNXUM3HxZSNzzd6K6PuT6+LCfbsumNeosmv0O//G+J9tK3Lt4pHxx98+WjgQMfWGIXHbtNxG631j8NXHRq/57eFWsf6BF8Ztg7Yu7K8IrWOnX98eFx64fm6roNXWceYPdsw2a8a8HGOyLQAAAGhM+9jv/66JM77SMSpqJsczQ34Yu/TtHdsfeHT8/JIHY9S0pRxBauoNMSTXKK5LcwT/9qo4dkGjOFqtf2BcePtPY+vF9RTuPjD+ceMpsX37Ygu8MroefEp8e720/Xa88vKqG9Fqq5/eGOftum60KOxHq15x7FV/iANTAl0zIv55zfh8OQCUCKEvAKunEf+Ouz/MrSt2iYEDN8iXLaRTHHb4LtEs11idNvy+GFEoffjRkdm604HfiT3np8QLdOrUsbC1InSOTTbtVNheoHLTPtE9bbz7Vow14BQAAACLU7lZnDD08Rg25NTo96VWURFV8dFLj8a1F/4g9t+yb3xlnzPi+ldnFSp/hocfjaxV3OnA+E7jjeLo2PjMwXkbbxqbfeplm8WmvfJb498cm99YBTrmrvVTKvvHofvmy1995qncnQKA0iH0BWC1VPXOhPwwzOv1jF6VjTdIK/v2iSwOnjQh3slaeqNjzBtpHbHJFiuyRy8AAACsTK1i/d1PiSsfGhUvjrwl/nraEbFdFgDXxORXb46z99kxvnPNuM8MOUcvaBTH1osLd0vYDttukd8Y/2asuggaAJaf0BeA1dLYcUswTFPPHrFh1ogdH+MatPSaN2/kiWYAAABo4lp12jK+cfKv4oYUAD8yJI5PQz/HtBjxi4Fx4ehCpc/SvPmCKZIAgCZB6AvAaqnHRo0N6dzA6DHxRjZ8cpfoum4qaBbNmqV1RHW1QZ4AAABo2mZPejfefffdeH8Rc/e2Wn/3GDT0lji5T3rg+e3417Ujom4xswg1W9AoNvQxADQxQl8AVkuV63eLbJaed1+PMVWNt2irxrwe76aNThvHl9unjZ7Ra+OKtBGvvPBstgYAAICm6r5BO8XOO+0U3zj38UJJYzaI7tmDzhGTPng/v7EIPXttHFmr+JUX4tnsIelVr/0a7fIbY16Ol/JbjZo6fWZ+o0vXKHx5S+Sll8fkNzb4UvTIbwFASRD6ArB62uGbsc/auXXNI3HDDdnsvg1MihuufyTm5dqwa/TbM3YolO6007ZZA3fSXTfFsEYeax7/9nuFLQAAAPh8bbf9FlkbdtYDf4+hjTV9M+Oj2JTt1GWd/Mai7LRTbJtvFMdNjTeK472VHAav2+/r0T11TH73zrhhRFXj71Y1LG66K/8F9/7aLtG+kemHp0+bWtiqp2pE3HBn9vh39N3ha4awBqCkCH0BWE19JU45MQW4NTHyvMPi7OETFwxNVTUxhp99aPzvyJqIim3jJz/duXAgov3Bx8V+a+Q2pt0WPzn6ihgzO18eMTveue20+O6flnQCJAAAAFi51j3qV3Fsj2YRsx6Lnx3ww/jny1MXGpa5atqouP6H34lLRqfotHt8+4gdoqyRgHS+9gfHcblGcVlMi9tOPyauWNAojtnv3BanfeeSyE61MvU5Ln7cPw3H9WHu2g+NC+5/O9ciX2D2Ow/EuQeeGLdOTU9xHxj/74cb5K7300b+8ei45JlZhb2cqokx9KQT4voPc9ut+8fAw5emfzAAfP6EvgB8sbx7TRyx/Xax3XaLWL59WbxeqNrpyMviqsM3imY14+L6gV+LzbfI19li86/FwOvHRU1F1zjwkkvjyGwc6ILK/jH4H8dHajNPG3F+7N23d2yRXtO7b+xy2m0xo3VKhAEAAKAJqNwsBt1wSRy0fmXUTLw/zjlgq+jds29sndrHW/SO3lvuH2ffPzHX/u0YX//FlXFan8LrFqky+g/+R/wg3yiO8/fuG71TWzp3rr67nBa3zWwTK79V3CkGXHpNnNSrMncNL8SQH/aLvoWvaeu+PXPXcXz8Y0xVVHT8Spzxj8HRfxHdddeIN+Oig7eIvlsv+F3AoIdS7981ov95g2NAh8Wl3wDQ9Ah9AfhiqZkdUz7+OD5e5DI95hWqpobi18+/Ox658tTo17NDVMzK15lV0SF69js1rnz04bhwr86FugtUbjYobr/j/Dhos3WiVUVVTP94csxr3TP6nXpNPPiLbQq1AAAAoAnotGf87pHn4p6Ljo+9NusW7SoK7ebpNdGqQ7fYbK9TY8hDj8c1R260ZMMZpyD59jvi/IM2j3VaVUTV9I9j8rzWWTv6mod+EdsstqvwCpK7htPvyX9N/Xp2nv81TZldEe26bRZ7nTokHnp8aJyw2aK/om1+8VDcfPYe0S1mxuTca6dXVUa7nv3i1GseissHdGq0dzAANGVldTmFbQBgOVUNPTp6D3o0ovvxcefDg2ITrUQAWCoTJkyItm3bRvPmzaOioiLKy8ujbFX88rgRqblcW1sbNTU1UV1dHTNmzIhu3boVjgIAn1I1NI7uMygeresex981PAZ9Zs/hVW10DN51vxgyvi76/3Fc/G1ACHcB+MLQ0xcAllLVS8Pj8UmFnYVMjbvvfybbar3VttHk2rYAAACwvKpeiuGNN4pj6t33RdYqbr1VbKtRDACrlNAXAJbGzHvjtO8NjCN3+05cMWpaVBWKI2bHmCtOiF8+NDO3vXYcdER/jwsDAADwBTMz7j3te3HskbvFd654OaYtaBTH7DFXxAm/GBYz63Kt4oOOiFyrGABYhQzvDABLpSpe+sOBccilY2Jubq+yXedYo0XEvJmTY8rsmlQSvU4aGredvtmSzYUEACzE8M4A0LRVvfSHGHDIpfFqvlEcnfON4pg8ZXZkreJeJ8XQ206PxUyn+zkyvDMAX1x6+gLAUqmMzU6/J5695/w4Yrue0WLux/Hxxx/HlJrW0W2zg+LsGx8W+AIAAPCFVbnZ6XH3s/fE+UdsFz1bzM3axB9PqYnW3TaLg86+KR5usoEvAHyx6ekLAABAk6GnLwAAACw9PX0BAAAAAAAASpjQFwAAAAAAAKCECX0BAAAAAAAASpjQFwAAAAAAAKCECX0BAAAAAAAASpjQFwAAAAAAAKCECX0BAAAAAAAASpjQFwAAAAAAAKCECX0BAAAAAAAASpjQFwAAAAAAAKCECX0BAAAAAAAASpjQFwAAAAAAAKCECX0BAAAAAAAASpjQFwAAAAAAAKCECX0BAAAAAAAASpjQFwAAAAAAAKCECX0BAAAAAAAASpjQFwAAAAAAAKCECX0BAAAAAAAASpjQFwAAAAAAAKCECX0BAAAAAAAASpjQFwAAAAAAAKCECX0BAAAAAAAASpjQFwAAAAAAAKCECX0BAAAAAAAASpjQFwAAAAAAAKCECX0BAAAAAAAASpjQFwAAAAAAAKCECX0BAAAAAAAASpjQFwAAAAAAAKCECX0BAAAAAAAASpjQFwAAAAAAAKCECX0BAAAAAAAASpjQFwAAAAAAAKCECX0BAAAAAAAASpjQFwAAAAAAAKCECX0BAAAAAAAASpjQFwAAAAAAAKCECX0BAAAAAAAASpjQFwAAAAAAAKCECX0BAAAAAAAASpjQFwAAAAAAAKCECX0BAAAAAAAASpjQFwAAAAAAAKCECX0BAAAAAAAASpjQFwAAAAAAAKCECX0BAAAAAAAASpjQFwAAAAAAAKCECX0BAAAAAAAASpjQFwAAAAAAAKCECX0BAAAAAAAASpjQFwAAAAAAAKCECX0BAAAAAAAASpjQFwAAAAAAAKCECX0BAAAAAAAASpjQFwAAAAAAAKCECX0BAAAAAAAASpjQFwAAAAAAAKCECX0BAAAAAAAASpjQFwAAAAAAAKCECX0BAAAAAAAASpjQFwAAAAAAAKCECX0BAAAAAAAASpjQFwAAAAAAAKCECX0BAAAAAAAASpjQFwAAAAAAAKCECX0BAAAAAAAASpjQFwAAAAAAAKCECX0BAAAAAAAASpjQFwAAAAAAAKCELWPo+2xcNejMGHz3xMJ+PRPvjsFnnhlXPVvYBwAAAApy7elcm1l7GgAAgBVJT18AAAAAAACAEib0BQAAAAAAAChhZXU5he2lkIZ3viE+3OW0GLRP10JZQRqO6sLhsfZhF8QxW6eCmpj64h3x99ueignT50U0axldNtk/jjx821irIntFTk18NPL6uOaOV+KDOfNyVbrElt8+Lg7avH1kVZ69KgbdUBO7DSiPJ+98Nab3PCwuOCbiqjNz17DTEdF/6r1x28sfR1VURvsv7xM/OGrHeueeEa/ffW3c9MRbMbWq9tPnzobWuiFq9jki1njmX/H8B3NiXrN2sdHXD4sjdq+MEVdcG8Pfmpo/94a7xVHf3zW6Lel1AwAAsFQmTJgQbdu2jebNm0dFRUWUl5dHWVlZ4eiqlZrLtbW1UVNTE9XV1TFjxozo1q1b4eiyyrdBP+y36trTZ+ba09+o154enGtPX72i2tODcu3pvbWnAQAAPm8rv6fv+DvikmtHRNUm343TzzorfnTwJlH38tD4002jc028vBnPXhN/Gvp6tNgh1Tk9vrtFXTx77SVx69hijeSNGP7QnNhs72/Ht3fasFAWMfk/N8VjlbvHDwadHj/Yff2oevXWuPbhSYWjNTH25ovib4/OiN6HnxZnnfWjOHiT/LnvGF+oUvDa/Q9G9D8uzsjVOXzzVvHW8L/H7867Ol5dJ9foHZS77m/2iLpx98TV9V64ZNcNAAAAy2Ax7el5hSrL0p4uRuja0wAAAF8cKz30nThqTEyLXtH/oL7RpWPH6L7VYfHdA78SG7euiulZjdfi7ttHR80WB8cJ+6Q6XaLvQcfEN7pOi5GPvjA/GI7oEv1PPDEG7LRdbLfxmoWyiGabHRY/PmSr6J573ca7HRr91su95zvFhuSb8fLY2lh/t+/GQX27RMeO3WOrg3eJjXNXNGbUxEKdvA32/kEcslX3fJ3D9o0tWlTF7HV2j2MHpHPnrnv7w6L/lyKmjR8XU7JX5K77tkVfd7EBDgAAAMtice3pGVmNJW2XLro9fcrKaE9XLnl7+oeL/T0AAAAAS2qlh75d+/aKNWJM3Pu3u+O5t6fG7FzrretXD43vHbhFdEgVJr4Rb84qjy9vumm9IZw6xZe6t43aD9+PDwslkau9ZqfCZj3tOnaq97oO0X6NwmZm4zjwzJ/HybvXGzKroiIqGhkZrHWbtoWtJHeetNuyZbTKF+S0SrsRc2bH7LSbrnt2uu6+jV73R4USAAAAWBZL1J5eonZprj29IOudL7WnmxW2l7g9Xdis71Pt6Xa51afa07mG+Kfa05vWe//Gfg8AAADAklr5wztvMCBO/f43Yp1pI2Lon86Pc88+Jy648tEYX104Pn1GrtFXGy9fd2aceeaCZciTMyImf7zcjb2aqWPiwSv/ED//WfHcN8ToZZjF+FNy1z0ru+5BjV/3ingPAAAAVl9L0J5eme3SRtvThWPLZf51L7jmha67UA0AAIAlt4yh79rRuUOunTY1PzDTQmpqck238vQA8Hxte34jBp7+q/j1b34ZZx63a7Qff2f8ecgj+WGd2rWNVtE+tjv6rDjrrAbLoINik+wMy2p83HHJFfFY9ZZx5E9+Gb+54IK44ILTol8jPYaXWu66Wy/uuhvpTQwAAMDqLtee7rji2tMrr136ObanC9UAAABYcssY+naKtdYsj6qxr8TYBpPtTHzxlZgcXWP9DdLe3HjmH7+KX/19ZH4Ip4pW0Xnj3eKA7TtF7dvjYlwqW7t7dKucGmPHzow1OnaMjsWleV3UtW0TzVOdZTVxVIyZFrHhtrvFxp1b5YehqpkRM+dmR5fPyrxuAAAAvqBWUHs69eLVngYAAKBgGUPfVrHtvjvH2jOejGv+fGs89cYHMfmDN+KpWy+Lvz46Odbud1DsnE0w1CJ69VgrZo26M664e1R8MHlyfPDGQ3H7k5OivEef6JOqVGwa/XdaOyY/9rf48/w6j8U1F18Qlwx9JdfMXQ5ZQzJizLAbsmt8+5WH4trfXRUjZxSOL4+Ved0AAAB8Qa2Y9nTv1ItXexoAAICCZZ7Tt6LbPvHjUw+KnnOfj9sv/0P85g+Xx+3Pz44e3zw1frxPt/xTwDltd/xBnH5wz5g74rr4w29+E3+48pGYscF+ccLAHXJN3byue57WoM7wmLLxQXHioZvkmrnLIdeQPOT7e8SGc1+OW/76h7jsn89E7HpY5NqWMem9CdHgoeqlttKuGwAAgC+sFdGebl2ooz0NAABAUlaXU9gGAACAz9WECROibdu20bx586ioqIjy8vIoK1uuyWmXWWou19bWRk1NTVRXV8eMGTOiW7duhaMAAADQdCxzT18AAAAAAAAAPn9CXwAAAAAAAIASJvQFAAAAAAAAKGFCXwAAAAAAAIASJvQFAAAAAAAAKGFCXwAAAAAAAIASJvQFAAAAAAAAKGFldTmF7SV26aWXFrYAAABggZNOOqmwtWwmTJgQbdu2jebNm0dFRUWUl5dHWVlZ4eiqlZrLtbW1UVNTE9XV1TFjxozo1q1b4eiy0Z4GAACgMcvbnl6m0BcAAABWhi966AsAAAArg+GdAQAAAAAAAEqY0BcAAAAAAACghAl9AQAAAAAAAEqY0BcAAAAAAACghAl9AQAAAAAAAEqY0BcAAAAAAACghAl9AQAAAAAAAEqY0BcAAAAAAACghAl9AQAAAAAAAEqY0BcAAAAAAACghAl9AQAAAAAAAEqY0BcAAAAAAACghAl9AQAAAAAAAEqY0BcAAAAAAACghAl9AQAAAAAAAEqY0BcAAAAAAACghAl9AQAAAAAAAEqY0BcAAAAAAACghAl9AQAAAAAAAEqY0BcAAAAAAACghAl9AQAAAAAAAEqY0BcAAAAAAACghAl9AQAAAAAAAEqY0BcAAAAAAACghAl9AQAAAAAAAEqY0BcAAAAAAACghAl9AQAAAAAAAEqY0BcAAAAAAACghAl9AQAAAAAAAEqY0BcAAAAAAACghAl9AQAAAAAAAEqY0BcAAAAAAACghAl9AQAAAAAAAEqY0BcAAAAAAACghAl9AQAAAAAAAEqY0BcAAAAAAACghAl9AQAAAAAAAEqY0BcAAAAAAACghAl9AQAAAAAAAEqY0BcAAAAAAACghAl9AQAAAAAAAEqY0BcAAAAAAACghAl9AQAAAAAAAEqY0BcAAAAAAACghAl9AQAAAAAAAEqY0BcAAAAAAACghAl9AQAAVhOzZ88ubAEAAABLqhTa00JfAACA1UBqoA4ZMiRuuummQgkAAADwWUqlPV1Wl1PYBgAA4AssNVCffvrp2GabbeKQQw7Jyt5777145plnsnV96667bmy00UbRt2/fQsmqMWHChGjbtm00b948Kioqory8PMrKygpHV63UXK6trY2ampqorq6OGTNmRLdu3QpHAQAAWF2UQnta6AsAALAaadhQLT6x3LCRWrTmmmvG/vvvv8oaq0JfAAAAmqKm3p5e5tD32asGxQ2jG7y0WcvosvHOccAh34iebQtlq4Vn46ozb4g4bHAcs/Xn88sIAACAJZEapb/97W+zdf2G6h133BEdO3bM6qQG66hRo7LtolQ3NVZbtWpVKFk5VofQ99mrzsy1pws7Rat9e/qCXHu6UAQAANAENfX2dMUvcgrbS2Xi8w/GyzU7xLGnfS/22mmn2Gmn7WOTtWvirZHD45FnZ8aXduwda642MwZPjOcfeDli091jq65CXwAAoGlKjdH0FPLkyZOz/dQYTdtbbrll9uRxjx49sqW4/8ILL8S8efPm133ttddiiy22yALZlWXatGlRWVm5UOD7eYW+SQp+i+FvVVVVrLHGGoUjy27i8w9oT89Xvz1dKAIAAGhiSqE9vXzNyPKWsUbHjll63bFjl9h4uwFxwpHbR9vJI+LBkbMLlQAAAGgK0lBUqbFZXxqaKpUXPf744zF27NhsDqLjjz++UJqXXjt06NDCHstFexoAAKBklEJ7evl6+s7cML769Z7RrlCWlK85J8Y+8FJM6rJVfL1n/siM1++OK//y9/jXnffG/Q8/Fi9O6hR9e3eJlsXIuXp8PPr3v8bfbrwt7r3/oXjkqTdiTtfe0bNTZbFCjH/07/HXv90Yt917fzz0yFPxxpyu0btnp6iMmnj2qp/FhY9WxLY7fClaZvXHxs2/+m386+ONYpdN1sxKYvYT8eezL4mn23w9tl0/peg18dHIf8ZfhtwQt95zX4Nz5k28e3D87y0To+XHD8Tfrr4lRlZtmn1NNR+NjH9e+uf45233xoOPPBfvt1sjql8ZF+V6+gIAAE1UGl7qgQceKOzlpaePN9hgg6yhmp5QTvtrrbVW/POf/8zW6VhqmH700UeFV0R8+OGHWQN27bXXLpSsWKtNT99FtacfXJ3b04UXAwAANCGl0p5e8QNGTfokpuRWLQvjUteMvTku+tujMaP34XHaWWfFjw7eJOqevTYuuWN8djzXeowRV/457hzfPvY88aw46/TjYtfOE2P4FVfEw5MKNUZcGX++c3y03/PEOOus0+O4XTvHxOFXxBVZhYro02uDXIvyrRhXk68fE8fEGzNyjePRL0XxXeK1N3Lb60XvTfLXNenhP8Ufhr4eLXb4bpyeu64T918/Pnn0ivjL3RNyzdd6Jj8T973aOXb91rdjn8075C7mhbjuT0Pj5fJN49AfnRWDfrBL1D4wLF4rVAcAAGiKbr/99sLWAqmxmeYgSuviE8ppjqH0RPK4cePm12kozVfESpDa03VNsz39tvY0AACwmiqV9vQKDX1rZr8Xj/3rsZhYvl5snhp0OW++PDZq198tvntQ3+jSsWN03+rg2GXjiGljRsXErMboGD2uNjptf0Ds1L1jdOyycex25GHRv++aUTY9qxCjR+fO0Wn7OGCn7vlhr3Y7Mg7r3zfWLFRotUnvWK/2nXjzrWw3Jj73Ukzq1Ck6TRsTo/JvEmPfeCt3jp7RO11Wzctx70PvRtvtj4wT9ilcV277+G90iQ+H3xyPptS6qNlmcdj/OyJ222672Kxbq5gyYni8PPdLccAPD4ut0vV23z6OPGXfyDWTAQAASlIaYjip31Ddfffds7LGpJ6vrFjL3J4eu2ra0zXL2p4+o5H29PHa0wAAwBdDU2pPL1/oO2l4XHjmmXFmYTnr3Ivirve7RL9jj41dO+WrbHzgmfHzk3ePBaM0VURFRWEz0yf6bFQek568Pm567I34YGZ1rtXZJ/b63vei34aFGn16RPmkJ+P6mx6LNz6YGdXRKvrs9b34XrFChzR01Yx4Y0xqkU6JV1+fFOttd2hst96keP3V1OKcEm9PmBFtN+6Vv46Jb8bbVZXRY5MeuatZoNM2W8Z68W68lQ/g89p1jE7NCts54956N6LzRtGjbaEgadsmWhc2AQAAmqIDDjigsLVAcT6ir3/969k6KTZUi9IwVQ01di6W0opqT/do4u3pepXmt6frj2mtPQ0AADRxpdKeXr45fWt2iGNP+17stdNOsVNadtk99tlzx+g1f+6gnJqpMWbYP+PvVw/N5vpJY16//HGuvHVx/qLm0W2rLaLDx6/EyCceiYeHPRQPjxgd0zvmGp5dWmapdPNuW8UWHT6OV0Y+EY88PCweenhEjJ7eMXr3LM5j1C7KP/hvPPbemvH1TT+KB2+fGr0P2js2mf1s3D+2dXx96ynxyL/fiHX2+HZstlau+htPxB0vz4veu349CtMk5bWcHKMfeDmiMJfQjNf/EyM+7LLQPEvZ3Eutt49vLjTZ0MR4fv7rzOkLAAA0PWnOoIbzCaXt4jxEG2200fy5c8eMGTN/TqJU/tprr8X06fmeodtss03suuuu2fbKsNrM6Vty7emDcu3p3OeQa0/fmWtP92qsPf3gkrWnB+QqLPhE67enC0UAAABNSKm0p5evp295y1ijY8es63K2tG+10JO+yfg7LokrHquOLY/8SfzyNxfEBRdcEKf1Kzy2XFSxVmx7yClx9nm/jfPP/VEc3LMqRlz7x7j5tWIX54pYa9tD4pSzz4vfnn9u/OjgnlE14tr4482vRbHGhl9aP8rHvxGjR4+J8Z16Rd/cW3TdarPoNP6leOHVt+O98h7R68uFymt3jo4xN2bPKuwXffBRFKY9WrxpU7N5iwEAAEpJcb6h+oYMGZI1Xnv06JEdP/XUU7OGaMM5idLr0rL//vsXXslyWent6cLxxbSni5aoPd2zENPm2tMdFtWeXpJRynLt6amFTQAAgFJRCu3p5Qt9P9PEGDVmWq4FuW3stnHnaJW1YGtixsy52dHMO/fGhb/6Y9w9Pr/bvE332Oqw/tErZsebb7yfKsS9F/4q/rigQnTf6rDo3yti9ptvRKqRVPTpFRvUvhV33z0mWheHneraKzZu/WY8fs8bMWODXtGn2ILu+qXoXjkjRj8/Nnc1C0x66ZX4MNaLDTcqFDRiow3Xy31Zr8YrMwoFyYyZ0bC9CwAA0NQUG5zpieOi2bNnx0UXXRTXXHNN1pM0LXPmzMmONWyopiVtsyosb3s6Dde8qPZ0WdaeLkzZu0Tt6d7FaY9WRHu6MN9wRnsaAAAoAaXQnl7Joe/a0b1bZcSYYXHDU2/EB2+/Eg9d+7u4amS9xHTdntG9/P149Lpr4sm3J8fkyW/HczcMizGxRvTqm5qa60bP7uXx/qPXxTVPvp11iX77uRti2JiINXr1XTC3UatNovd6M2LatGbRc5MehcIesUnPZvHhh5Nivd6bxPxbWbFp7LXbejHjyWviz3ePig/SOXPbQx78IDruuF/s3KFQrxEddugXm7Z4M27/yw3xXO56P3jjsbjm4rui0IQGAABo0lIj86ijjsqW1MO06OWXX57fSE3bRfUbqiu7gUp9K7M9XbeY9nQxtU3t6ebz29Pz591dEe3pIdrTAABA6Wnq7enlm9N3ZnEeoUUpj7X79IiyN5+Lp/77RDw+8pWYuvaeMeDLk+LFV6tj/f5bx3oVa8YmW28YVa//Nx564MF45LGn47VZHWK7g38Q+/dKcxCVx5qbbB0bVr0e/33ogXjwkcfi6ddmRYftDo4f7N+rMAdR0jJafvJsjHivZ+x96GaRpu5N1mr2QTzyfHVsuf83FppvqPWXto0tOrwXzw4bFg8MfzSeHjs3un79e/H9/TfOnSmvsTmIovk6semmHeLD5x6Lh4c/EiNe+iS67PPVaP/KuCg3py8AAFAi0pxEaS7ZNMRUu3btolmzZguGGs4t6enlvffeO5uXKDVUi3MSrWyrzZy+y9ue3jXXnm62EtrTh+Ta04Xbverb04V6AAAATVhTbU+X5RqvSzLrDgAAAKup9GRyaqimuYnSPEUr04QJE6Jt27bRvHnzhYLfz0Mx7K2pqYnq6uqYMWNGdOvWrXAUAAAAFm9VtqdX8vDOAAAAlLrUME0N1Pfeey+bswgAAAD4bKuyPa2nLwAAAEskNVBX9jxEevoCAADwRbMq2tN6+gIAALBEVnYDFQAAAL6IVkV7WugLAAAAAAAAUMKEvgAAAAAAAAAlTOgLAAAAAAAAUMKEvgAAAAAAAAAlrKwup7C9xC699NLCFgAAACxw0kknFbaWzYQJE6Jt27bRvHnzqKioiPLy8igrKyscXbVSc7m2tjZqamqiuro6ZsyYEd26dSscXTba0wAAADRmedvTyxT6AgAAwMrwRQ99AQAAYGUwvDMAAAAAAABACRP6AgAAAAAAAJQwoS8AAAAAAABACRP6AgAAAAAAAJQwoS8AAAAAAABACRP6AgAAAAAAAJQwoS8AAAAAAABACRP6AgAAAAAAAJQwoS8AAAAAAABACRP6AgAAAAAAAJQwoS8AAAAAAABACRP6AgAAAAAAAJQwoS8AAAAAAABACRP6AgAAAAAAAJQwoS8AAAAAAABACRP6AgAAAAAAAJQwoS8AAAAAAABACRP6AgAAAAAAAJQwoS8AAAAAAABACRP6AgAAAAAAAJQwoS8AAAAAAABACRP6AgAAAAAAAJQwoS8AAAAAAABACRP6AgAAAAAAAJQwoS8AAAAAAABACRP6AgAAAAAAAJQwoS8AAAAAAABACRP6AgAAAAAAAJQwoS8AAAAAAABACRP6AgAAAAAAAJQwoS8AAAAAAABACRP6AgAAAAAAAJQwoS8AAAAAAABACRP6AgAAAAAAAJQwoS8AAAAAAABACRP6AgAAAAAAAJQwoS8AAAAAAABACRP6AgAAAAAAAJQwoS8AAAAAAABACSuryylsAwAADfhx+YutrKyssLUwn/vKsaj7Xd+ECROibdu20bx586ioqIjy8vIlet3KkL4Pamtro6amJqqrq2PGjBnRrVu3wlEAAABoOoS+AADQiOKPyQ3XfDEUQ8SGa5/7yrGo+90YoS8AAAAsPaEvAADUUz/sa2y7qOE+TVvD0DDtLyqA9Lkvv8+63/W3GxL6AgAAwNIT+gIAQEHxR+O0LoY9xe3isaT+NqWjfnBYDB7rL0n9z7u4FNXf5rMV72lS/z4XQ9zi8eK6SOgLAAAAS0/oCwAABelH4+KSgp4UNqXQiS+uFOalpRgqps/+wVcq4qr/VMSUWVkRK0iH1hHHfK0mdu+b/7NVDH6FvgAAALD8ygtrAABYraVwp7guhjwC3y++FCgWg9/iIvBdOdI9Tfd2Xu4eF3vRJ8U1AAAAsOyEvgAAUJDCp+KSevWxeqiqqspCyLSkbYHvypPubfqzVf/PGgAAALD8hL4AANBAMfxj9dAw9GXlKt5vAAAAKBWzZ88ubDVdQl8AACgo9jwsBoCsHhoO78zKVfzzpacvAAAApSAFvkOGDImbbrqpUNI0CX0BAKARwqjVR/3P2ue+8rnHAAAAlJJWrVrFuuuuG08//fRCwe97770Xd9xxRxYI119S2ahRowq1Vh2hLwAANCCUWv2kz9znvuq41wAAAJSSQw45JLbZZpuFgt+OHTvG2LFjP7U89thj8fe//z1++9vfrtLwtyzX2NbaBgBgtZd+LE5Dzqbhfaurq2PmzJmx9tprF47yRZU+9/fffz9atmyZ7c+ZMyeOvLZrts3Kce1RH0bbNm2iefPmUVFREeXl5VFWVlY4GjFhwoRo27btIo+vSg3/XpgxY0Z069atcHQ51XwUI2++Pu5/8b2YWlUb0axldNlk3/juodvHOs0LdVao6hj/4BVx7fC3svfrc9gFcUzX/8aND06Ovt/cJzZtW6i2Mj17VZx5w+jCTlGzaNll49j5gEPiGz1XxUU0Hc9edWbcEIfF4GO2js/nOxwAAFgaaZjnFOSmdQqAUxCctlPP3hQAJ6n3b8OgN9Xdf//9sx7DK5OevgAA0AjPRq4+6n/WPveVzz3OqZkQd1/4hxg6qjz6HnBcnH7W6fGDAVtHi9dvjov+7+6YsDKmlh5/V/zj/reixaaHxo9y73fgl3Nl09+J0S89Ga+8tyo/k46xw7FnxVln5ZfTfzAgtm4xPu6/4pK4daw5tQEAgKapOK9vWifFHr8pyE3h7+67754tRx11VJx66qkLBbypbv3XrixCXwAAoMkbPnx4PPLII/OXooblDfenTJlSqAlNx6SHh8bwjztHv++fEAO22zi6dOwSG283IE44cvto++GjcdfIlfCLgEmTY1p0jE122Sq6595vzdSp9suHxC8u+GUc8uVV2c+0PFqu0TF7Cj4tXTbeLgaccGRs33ZyjHhwZKzcX4EAAAAsmxTwpl689TWc4/fxxx/PhndO8/8ef/zxhdK89NqhQ4cW9lYOwzsDAEBO+rG44TCuXbp0KRzl83T00Udnc+EUXXnllXHMMcdk22no32KTJpUPHDgw2y56+OGHo1+/foW9T0uvnThx4vwncNNTt0ddt262zcrxjyM/iHaLGb75iz+888S4e/CFMXyNAfHLE3aMhQf3mhgPXPK3eKrrt+Psb2+SL5rxetx97U3xxFtTo6o2DYW8Sex/5OGx7VoV+eMT747BFw6Ptff/fnQZdUM8Pm56zGvWMtbf7ntxzICekbLdbBjh+qMqd+oXpw3aJ7o+e1UMuuHD2OW0QbFPGtU826+J3QaUx5N3vhrTex4WFxzTNbvel3ofFF+Z+GAMT9cRldF50wPjmEO/HBP/fXn86/kPYs68dG1bxiHHH7LooaKz4Z0/jH7F96snu8YPC9eV26/5aGRcf80d8coHc2JeeWW037BfHHHsN2KD+UNfV8f4R/8RN97/WnxcVRvlle1jwx0PiSP2yX/NSc3UF+OOv98WT03I3ZNsGOkF927i3YPjwie6xzHnHR59stqz44k/nxu3xoD4Re5zaZ2VjY2bfzUkRvU9Pn5+UI+s5NPXtWMccsQ+MX9k6kbv4db54byvvypue/nj+fdvyzlD48EKwzsDAEBTl4Zrrv97iaRv377Z7xJS8Ft/qOfUozcN5dyjR4/sNQ2Hek49gdNrVwY9fQEAgCarYeB71VVXzQ9861tUOTQ9E+ODSRGdNvhSg8A36Rq7n/zzBYFvzei4/nd/i0c/WT/2P/GsOOv078YOLV6PoX+6Jp6dnq9SNOaeG+K9nofHj8/6URy++Rrx7hN/j9tenpcd2+yQ3Gv33zi3VRha+Ye7xqJnLH8jhj80Jzbb+9vx7Z02LJRFTPrvvfFWz0Pj5EGnxw92Xz9mvjg0/nTeRXHnnO3iyB+fFacf9dXoNPnpuPa6EcvQW3dSfJI65bdslb8nM56Iv/5haLzedvf4YRoC+rhdo/PE++PPV46IWel4zuwRV8af7xwf7fc8Mc466/Q4btfOMXH4FXHFw7mbmxkfd1xybYyo2iS+e3rua/7RwbFJ3cu5e3dTjK7J3eleG0fbqrfjzYmF6rl7PWZ8bj3+pXix+CYfvBFvzqiMnpvkA9+Y9HD8KV1Xix3y5zxx/1j/k0fjir80HJK74T2cHS9c96cY+nJ5bHroj+KsQT+IXWofiGGv5WsDAABN2+23317YWiD15k1Bb1rXH+o59fAdN27c/DoNpfl/VxahLwAALIfjjjsuNtpoo0XOU5qe8vzRj34UvXv3zuptscUWcf311xeOLnDXXXfFjjvumNVJy5577hljxowpHM1LT4kee+yx2fbgwYOzemeffXa2X3Trrbdm9dK6oXPOOSd7zeuvv14oifjhD3+YlU2dOrVQEtkTqZtuumm2XXyf0aNHz/9aF7WkOvXr15euJ5Wn40sqhbgNA98UAje0qHIodZMevjeem/ulOOCUI2P77h2jY5e+sc8JB8cWNaPjljsX/jPWpf+Jcdxuaajo7rHVYfvGFpVVMeHtj7JjzdvkXtsmdZEtDK3cvlUU+gk3okv0P/HEGLDTdrHdxmsWyiLafuU7cUx2/i6x8W6HRr/1cn+/VWwahx65U2zcpWN06bt/7LdV26h95814q/CaJVIzO9577F/x2MTyWG/zzaNDrmj6S6Pjo9ZbxreO2ym6Z0NA7xb7btMxaseOjlcLf9WOHj02ajttHwfs1D06Ztd0ZBzWv2+sWVZIwyeOijHTInr1Pyj65q6vY/et4rDvHhhf2bh1VKUqPTaJni0mxfg38xF1zQsvxJjWnaJTszdj9Kv5sHz22HHxYXmP6JXmP46aePneh+LdttvHkSfsUzhnbvv4b0SXD4fHzY/WH0q+wT2cMiKGvzw3vnTA8XHYVul6u8f2R54S+25QqA4AAJSsNG1NUj/4TXP7Lsqifn+0Igh9AQBgJamqqsoC1Lvvvjv69++fha5du3bNgtr64WcKRE855ZRsONtU57TTTosPPvgg9ttvvxg/PnU9W7QUIL/00kuFvcVLww0lzz//fLZOnnnmmWz92GOPZevk1VdfbXSooTR08m9+85tsSSF28uMf/3h+WWNPsC6rFOJeffXVhb380M2NBbuLKm+qLj0y4oEzCjuN2GbDiMsHRtz3//L1bjk54vAdCgfrGbhT/liqk5Z//jBit0Ln0MbcdGJ+Kbo/95r0HpuvXygouLFBPT5PNTHurYkRXXvHJvWHS67YNLbuWxlVb78ZxU6qSYc1OxW2kg7Rvl1hc6l1iIVOVdCiTdt6QXHu/GvkVi1aFYZBzmvdqkXuL745n9HTd1IMv/DMOPPMwnLWuXHRXe9Hl37HxrG75t+43VePjZ///DuxRb1kuqJi4V9f9OnTI8onPRnX3/RYvPHBzKiOVtFnr+/F9/oVeid37Ru9ctc45t6/xd3PvR1TZ6fuvV+NQ793YGyRkuX4cvTaqDzGjxmdu9MRr40ZF816HhAH9G0WY8fkH4x5a/y7ERv0ij7ZdUyMN9+uisoem0SP+ol5p21iy/Ui3n0r/yR/XoN7OO6teDc6x0Y96n8obaNN/ZsHAAA0WQcccEBha4Hi/L5f//rXs3XScI7fyZMnF7YWaOxcK4rQFwAAVpKhQ4dmQ/qcccYZcdlll2Wh6b333psFqpdffnlMmZLvGfbb3/42exL0gQceyOqcfPLJ8ac//SmbRzSFmp8lhcRL8qTodtttl61T6Jvqpx6/kyZNyuZN/e9//5sdS2XpfYt160s9kQ899NBsWW+99bKyPfbYY35Z+/bts7LllULcJRnSOakf+Dask+bJWdx8vk1NCmDPHRCx/poRz7wVMWx0egI4H/D+oN6XkbZTEFxTG3HPi/l67VpGnLlPxNd6FiotgfKyiBP7h7lEm6wP46M0UvEa7bPer/V1WPZEtwkoDDF9VnE5O355/rlxYr25eNN8ve8/eVNcfP458dNCOHzh8OKwzXmtdjguTj+4bzR7/b64/A+/jLN/9r9x8a0vxtT5wyxvEANO/X58Y51pMWLon+L8c8+Ocy64Mh4dX104XhF9em1Q6Jk8Nl55vS76bPbl+HKvHjHv9VdyJRPijbeqYr3emxSG4f4wPs79ld2u/ac+jXwA/pk6xVqLHlMbAABowtLvcRo+HJ/m6k3BbxptLQ3pnB60rz/Uc5I6AtR/QD7VWVnz+SZCXwAAWEkefvjhbH344Ydn66KDDz44C1bT8RSyfvjhh9nQP5WVlYUa+SdFU+/b1JN2cdK5U7D8l7/8pVCyaKmhkcLaF198MdtPQW8KfL/1rW/Fk08+mZUVewFvtdVW2XpVW9IhnRtKder3DE6Bb/39UnDodhEtm0dc85+In/0r4jd3RpyQuxVzqiP22mxBOJu2q2sifnRNxB/vy9f7xxP5EHefzQuVllCPtSMG7lzYYRXpGl06RUz+YGLWw3RhE+OBS34V5//rldz22rFW6i0659M9Zz/8+NNPi5eOwhDTHYtL+2jVYKzpNF/vRf9+O9be5wfxP+dfEBdckFsO61M4WlQRa217SJxy9nnx2/PPjR8d3DOqRlwbf7y53kS5bXvGNwaeHr/69W/il2ceF7u2Hx93/nlIPFIYibnVlzaITjPejDdeGBNvzOoRffpURMUWW0SvWaPjpVffjgmTO0XP3sWQd+3onNucO7s44W/RB/lw/jNNi3qj6AMAACWmOH9vfUOGDJkf/Kbjp556ahbsNpzjN70uLSkEXpmEvgAAsJK88cYb2bphD9g11sh3C3vttdeynrbJOuusk63rSwHtmmsumFOzMUcccUT2lOgf//jH+edanFQ3Dd+cPPHEE7H11lvHV7/61Sw4TvP6FkPf+sMTLYt99913ofl+f/KTnxSOLFrD4HZJh25OdeoHxSnwTWFxqenZJWJmVcQ/852uMx9Ojxj1br4n7+6bRvTvk99+dWL+WNFNT0Wcc0vE9fnsfomM/TBi+pyIAVtHrF3KHUdLTtfY/itdo3bMsHiw/vjMOTVjn4gn35kVnbt9KbdXERtt2DVi/Avx3Iz88UzNy/Hya7VR2f1LuTN9MWXz9XbcJHbZqntkUxHnzJhZP2x9J+698Ffxx7sLw983bxPdtzos+vcqi9lvvpENez33mX/Er3719xiZJeYV0arzxrHbAdtHp9q3c3/fpbKcrr1i47Yfxsg7no1JxWGcK/pErw2mxZg7n4jxbTeOXvNvctf4UvfKmDH6+RhbP62f9FK8kvuztN6GGxUKGrHRhrFe7qpefaXeH9qYEQt9SQAAQJNWDHDr99SdPXt2XHTRRXHNNddko7elZc6cXEM7p2Hwm5a0vTIJfQEAoAkZPXp09oRoMSw99thjC0cWLfWCKysrW6JgNQ3RnHoZp3mA03y+aRjnXXfdNTuWehanXsDpfev3Ol4W9ef6TUt64nVxGga3ixvSub6GPYOLPXzT/Sg1HdtEVBVHnq0n9fRNNuwc0SFXJ5k2O6LhgN5Pjo14eUJhZwnU5k5w89P53sU/2atQyCrRadeDo1/nj+Ohv/wpbn3u7Zg8+YN446lb48/XPBkz1t459t02/4uATrvuFVu1eDNuv/iaePLtyTH5g1Fx95+Hxgu1PWK//Rr2fP3i2GD9rhGTnozb73kl3v7gjXjq1sviD3fVn9983ejZvTzef/S6uObJdP8mx9vP3RDDxtTFGr36ZmF4i149Yq1Zo+LOK+6OUR+ke/dGPHT7kzGpPPXozZ8lokds0rMypk2bVm8Y51axSe/1YtKHH0aznpvEgii3Ijbda7dYb8aTcc2fC+d8O7c95MH4oOOOsd/ODYd9rqfDDtFv0xbx5u1D4ob0eeeu5bFrLo6FviQAAKDJS6Ft+r1DWtLIRUUvv/zy/NA3bRfVD35XduCbCH0BAGAl2WCDDbJ16kFbXwoYki9/+cvRqVMavzXi/fffz9ZpuJ9f//rXWVC6pPr06RNHHnlkFtqmOYMXN79vcdjmG2+8MesZ/LWvfS3riZyeVE3DPadewNtvv31WZ3nUn+s3LTvssEPhyKcNHz58oeA2SWFuCm4XtaTXJA1fV7+ncNou1vui2mPTiAfOWLBcduTSzdF73X8jRk+M+MqG+aGhze+7ilR0i31+fGoc1HNuPDv0T7k/73+Iy28fFbV9D4pTf7xPdCsOd1zRJw4/4/ux85rvxB2X/SZ+84frYsTcnnHwacfFDl/g3tmddh0YR2yzRrz72NXxpz9cGfe9v2Ectm+fKI/34913U42K6HHQqfH9ndeMd+64LPv78rKbx0blDkfEyfvn/96NtjvGD04/OHrOHRHX/SHduyvjkRkbxH4nDIwd6v2uJc3hWx7rxeZbLQhtO2y1ea6kPHr0+vLCfyY67Ro/qn/Oy+6Id9bcOY49eUD0aDBE9cJaxRbf/VEcvGltvHxj7vO+8Or4b/nu0f/LhcMAAEBJSb9DOeuss7LwN42UVnxwv7iksuI8v/Xn+F3ZyuoW9xshAABYTaQfi2tra7NesNXV1TFjxozo0qVL4eiiHXfccTFs2LAYO3ZsFkbWd91118X//M//xBlnnBEnnHBCoTSyOVxSuDpy5Mjo0KFDFoim93vkkUfmh8BJaiikXrhXXHFFtp96APfr1y/bHzx4cDZ3zF133ZWFvlVVVbHzzjtn8wMnabjnAQMGZNsNbbrppoWt/NOoydlnn501QtLXX/+1Dd+n6Pvf/3489NBDnypfVP1bb70164mcGj2DBg0qlOalYLbY23hJpfmQ070oLy9fKOQubqfANwXHxXqLkupPnDhx/hO3aWimo65beI6eFenSIyO+nPu22v13hYJ6hp4U0bxZxDf/b+FevL89OB/K/u6eiHk1EWftF/HShIjTr8+da52IbxRGlkrDNL/+QcRJ13y6F/BNJ+bXh1yWX99/RsQbubon5upuvn7+PVLv4TQvcFKstzL848gPol3bttG8efNsTun0Gdb/szNhwoRou5jjq1Jjfy9069atcBQAAAAWL/2uJQW/KQD+rFHQlpeevgAAsAKknrP1lzRf7sEHH5wFt7/73e+y4DeV77PPPjFq1KgsLE6Bb3LOOedkYWPqHZvmsU31Bg4cmB1LwdeSSMMxpx7CSyI9kTpr1qyFet/utttuWbCVpCGfS1kKfIv3r5S89n5Em8qI73y1UJCT5trtu15+7t0HXo4YNjq/3btrxGbrR4zJvebSh/LLsnrxnYj7c+fu1DY/xDQAAACwYqSgNwW+7733Xva7n5VJ6AsAACvAz372s2xon+KSeuOmIPaOO+7Igt60TuXvvvtunH/++Qv1dt1vv/2yYYo7d+4c5513Xlbv+eefj1NPPTUuueSSQq3P1r9//yw4/izFUDf1DC5KQw+lXpWpp3EaYnpV2nLLLbMeuYtblrSnZ7GHb/3ev03RSbstvBy8bcSNT+Xn7z3yaxG/GBDxkz3zPYPTnLv3vrSg9+5dL0Q0r4j432/l66TX/zlXL6mpza+X1kX3R7y/8CjkAAAAwAqQgt808tnKntfX8M4AAJDT2DCuSzK8M6tGw2GcUxC8uGGbl1Q65+cxvHNDaVjmNNTyNhtG/LB/xPpr5odaTr16h46MuH5EoWLBIdvlh3NeqzCv66yqiBFjI654JOLD6fmy+hY3vHNRmh/49L0ips4yvHNRY38vGN4ZAACApkjoCwAAOY2FO0LfpuOLEvoi9AUAAICVwfDOAAAAAAAAACVM6AsAADR5P//5z+Pcc8+dv2y44YaFIwAAAAAY3hkAAHIaG8bV8M5ffIZ3XvUM7wwAAAArntAXAAByhL6rJ6Hvqre6h76XXnppYQsAAAAWOOmkkwpby0boCwAAOULf1ZPQd9XT0xcAAABWPHP6AgAAAAAAAJQwoS8AADTi8+pZyKpX/7P2ua987jEAAACseEJfAACoRyC1ekqfu89+1XK/AQAAYMUR+gIAQAPCqNWP0HfVcq8BAABgxRL6AgBAI4RSq4/6n7XPfeVzjwEAAGDFE/oCAEBBCqPqL6weysvLF1o6tC4cYIVL99afMwAAAFjxhL4AANBACqJS+Ddt2rRCCV9U6TNOn3UxgEzbB28xVfC7EqR7esiW06KicL8BAACAFaesLqewDQAAq63ij8W1tbVRU1MTs2bNiilTpsTkyZOz9Zw5c7JjxXp+jC4txZCxGOy2bNkyOnToMH9J+0n6nNPnXVx87stmUfe7Y8eO2bp169ZRUVGRHSvWK5owYUK0bds2mjdvPr9O/eOrUvq8i38nVFdXx4wZM6Jbt26FowAAANB0CH0BAKAg/WhcXObOnRszZ87MQp7Zs2dngU8Kf4r8GF1a6oeGKURMgWKrVq2ycDEFkJWVldmxqqqqLPD3uS+fxd3vNm3aRIsWLbI6xaU+oS8AAAAsPaEvAAAUFH80LgY9KQCcN29etgj+Sl/DILJZs2bZksLFtJ+kzzmFez735beo+50C9vpBbsNA9913382CYaEvAAAALDmhLwAA1FP88Tit6y/1w7+kWI/SUD80TNsNl/p87suv/j1teK+LS/FYQ8XQtxgOC30BAADgswl9AQCggfo/Ihe3/dj8xdIwdExrn/vK09j9XpQU+haHdxb6AgAAwJIR+gIAwCL4UfmLr7Ew0ee+8ixJePvee+/NH95Z6AsAAABLRugLAABAkzFx4sSFQt8U+Ap9AQAAYPHKC2sAAAD4XE2ePPlz7dkLAAAAparstttuyzr76vALAADAqlTsxduqVavo0KFDdOzYMdq3bx+tW7eOioqKLAAu1vs86OkLAABAqSgbOXJkXWrEFgl/AQAAWJnqh7gp2E1DOaegNw3rnJYWLVrMD4Q/r8A3EfoCAABQKsree++9+SmvwBcAAIBVoWHw26xZs2yprKxcaIhnoS8AAAB8trLp06cvlPQKfgEAAFiZ6ge5abuxpXjs8yT0BQAAoFSUzZ49W8oLAADA56ZhyPt5h71FQl8AAABKRdncuXOFvgAAAHzumkrYWyT0BQAAoFSUVVVVCX0BAACgAaEvAAAApaK8sAYAAAAAAACgBAl9AQAAAAAAAEqY0BcAAAAAAACghAl9AQAAAAAAAEqY0BcAAAAAAACghAl9AQAAAAAAAEqY0BcAAAAAAACghAl9AQAAAAAAAEqY0BcAAAAAAACghAl9AQAAAAAAAEqY0BcAAAAAAACghAl9AQAAAAAAAEqY0BcAAAAAAACghAl9AQAAAAAAAEqY0BcAAAAAAACghAl9AQAAAAAAAEqY0BcAAAAAAACghAl9AQAAAAAAAEqY0BcAAAAAAACghAl9AQAAAAAAAEqY0BcAAAAAAACghAl9AQAAAAAAAEqY0BcAAAAAAACghAl9AQAAAAAAAEqY0BcAAAAAAACghAl9AQAAAAAAAEqY0BcAAAAAAACghAl9AQAAAAAAAEqY0BcAAAAAAACghAl9AQAAAAAAAEqY0BcAAAAAAACghAl9AQAAAAAAAEqY0BcAAAAAAACghAl9AQAAAAAAAEpYWVVVVV1hGwAAACioq6uL2traqKmpierq6pgxY0Z069atcBQAAICV5a/DI+56IWJWVUSz8oi+60X86qCI1s3zx/f4XcSWG0RccEh+P/nHExH/Gpl/TXlZRK91Is7aP6Jr+/zxQTdGPPt2xMCdIg7fIV+WXPxAxB3P59bfjeizbqGwICvPHT9l94j9tywU5hTP9X+51+TeKk65Ll9eVLzm/81dc6vCNa9sevoCAAAAAAAATcJlwyKGjozYaO2IE3aN2HvziJcmRPzw6kKFRqRg9pr/RHRul3/NvltEjHk//5rqmkKlgn+OiPhoRmFnBdpi/fx7p2XHnhEvvBNxfO79V1XvW6EvAAAAAAAA0CQ88XrEGq0i/nh4xLe2yfey3WvziIlTIp4aV6hUz9TZ+V7B668ZcfnABa85Ysd8r99bny1ULJhTnTv3PYWdFah7p/x7p+V/DojYpfeir3llEPoCAAAAAAAATUKnthHTZkdc+0ShIOe0PSIeOCNiu40KBfWkkLi2LuLrX84PtVx02PYRVx8XseemhYKC3TaJePqtiIdHFwpWkjVa5tefzMyvVzahLwAAAAAAANAk/M+BEe1a5odr3u/CiLNvjnjt/cLBRkyZlV+v1S6/LmpeEbFex3yv4fp+sldEm8r8MNJVDYZ+XlHen5rv4ZvmFv7qxoXClUzoCwAAAAAAADQJndtG3HJyxKl7RKzbMeLpNyNO+kc+pF0SdzwfsfvvFiyXPFg4UJDC4ON3zYfFlz5UKFwB6r/v9/4a8dH0iKO/HtGhQei8sgh9AQAAAAAAgCZl3y0i/np0xK0/jujaIeLfz0S8N7lwsJ4OrfPrFLImW6wfccKuEd/eNr/fmL03j9g8V+/eFyMmfFIoXIx5S9AjuPi+aTlrv4ihJ0UcvkPh4Cog9AUAAAAAAAA+d+9OjtjjdxFn3hhRVyhr1Tximw3z22M+yK/r27Fnfhjlh17JD9fcvVPEt7aJ2LnBHL8NpWA2HX/u7fx+Y9ZeI78e9V5+XTR9bv49N+5SKMgpvm9a+vf59LDSK5vQFwAAAAAAAPjcpTl4t+qeD2LPuCHilqcj/vZIxD0vRrSujNh6g0LFetq3ijhw64gPp0Uc87f8a9Ly+3vzwXHFItLQNIz0IdsXdhZh+43yvYwfeTXid/fkz3vW0IjXP4jYoUd+qOimQugLAAAAAAAANAnnfTvi4G3zweqfH47418iI9TtFXPidfMDbmBP755d5tfnXpGV2VcTx/fLlizJwp4h1OxR2FmHI0fnwd9gr+fO+NCFi/y0jzjlg8T2JV7WyqqqqYu9oAAAAoKCuri5qa2ujpqYmqqurY8aMGdGtW7fCUQAAAGg69PQFAAAAAAAAKGFCXwAAAAAAAIASJvQFAAAAAAAAKGFCXwAAAAAAAIASJvQFAAAAAAAAKGFCXwAAAAAAAIASJvQFAAAAAAAAKGFCXwAAAAAAAIASJvQFAAAAAAAAKGFCXwAAAAAAAIASJvQFAAAAAAAAKGFCXwAAAAAAAIASJvQFAAAAAAAAKGFCXwAAAAAAAIASJvQFAACAJVBWVlbYAgAAgKZF6AsAAACLIewFAACgqRP6AgAAwGcQ/AIAANCUCX0BAABgCQh+AQAAaKqEvgAAALAIKeitvwAAAEBTJPQFAACAz5AC3/Ly8pg8eXKhBAAAAJqG1FYtq6qqqivsAwAAAAV1dfnmcm1tbdTU1MSsWbNi6tSpWWN6ypQpMXv27KxOsR4AAACsCsXRqFq1ahUdOnSIjh07Cn0BAABgUf5/e3cCblVdLn789QiOgMooYI6IhhdDzOyaphmSs5UhGaZSetFQ0ySntDRwwPQRjTJSr4mYA85imtM/lexa4U1NFCNNQxEQBcWBoXP/e5+zgLWPB0QI86XP53n24/rtvdc5a+21t8+z+Z7fWgujbvU2d+7ceOuttxpu1QA8f/78hiC8kPgLAADAylS+7FD1bFQtW7aMddZZJ9Zdd13RFwAAAJZkYcit/rcaeCvfoWPBggUNN8EXAACAD1vT8NuiRYuGm+gLAAAAS1EOv+VbOfpWLXweAAAArAzl4LvwFM+LbqIvAAAALF056C5cFnkBAAD4V1oYgUVfAAAA+ACEXgAAAD5qRF8AAAAAAACA5OqK/wIAAAAAAACQkOgLAAAAAAAAkJjoCwAAAAAAAJCY6AsAAAAAAACQmOgLAAAAAAAAkJjoCwAAAAAAAJCY6AsAAAAAAACQmOgLAAAAAAAAkJjoCwAAAAAAAJCY6AsAAAAAAACQmOgLAAAAAAAAkNhq8+bN+79iGQAAAGjwYBzX5ycxvhhF9Iqz7j0t9lutGLJ0954TvYf/qRhU7Dg4Hjt712KwNHPijz/9fgy+eUrMj7pYb6ejY+xZu0Z7rzsAAMBSmekLAADkM//JGHrQQdG7z+LbZ4f9IeYXD7/Xgrj/h1+veX7vr18ZT80rHgY+Gqb9Oi5oCL5V9TH7kavj0j/98/5Wfdz3+tf8f2C/Uc8XjwAAAOQm+gIAAPm07BnfPuTjsXoxrJrz0Li49c1i0NTrv44x4+cWg6o1Y+dD+0WPNYohq57Jo2O/Utzr/fXRMal4iEzWitatikUAAACWSPQFAABSarP/wfHldsWgqv7pGP3L5mft/enqO+Lx+mJQ1XmPGLxHq3DGWPiI6XRAfH/g1tG+RWW5bo3Ycv8j4pAtfVIBAADej+gLAAAktXUMPqJXrF2Mql6645a4v+k5nt98MK6897ViULVm9Pmvr8VWxQj4KGkRPQb8MO65+4Z47J4xcf1xvaJ98cg/w+Zda3/aZptvViwBAADkJvoCAABptdnj4OjXuRhUvfv7GHPHrChfAfTFW26L8e8Ug6pN9o1jdqlOIwT+3ay+un8GAQAAVk2rzZs3r/zvIQAAAKm8ce85sdfwP8Wirtt2j7ji+iNju+oZYec/GUMHDI1bFk30XSf6nnVZnPeZlsV4sflznovbrrgyrv3N8/HCm/OiejboujVbRcePbRdfHXxwHNyzfbxnrep1Y48aFy8Vw9hxcDx29q7FoNGkUcfGwWOnFaOIrv2Gxx2Dln124fwZE+PaX14btz30Yvx99juxoOHeFrFux41ixz37x5CDt48Nm25YM9s1Ych6cfEPL40bnno93q3vHN+44uI4ZpPi8ap3X4hfXTUmrrjn2UW/5333fynGfa9/fP/RhV83e8UP7zsptnnwl3HhVb+Jx6bMqWxD48/fZNsvxJCT+sd/blA8tal3X4kHbhgTl9/9ZEyeXux/i7Vjgy7dY78Bh8Sgz29SM9s7Ku+H7Svvh6V90d355Bvikj2KwRI9GMf1+UmML0bVfTjr3tNiv/ecaXhuTBl/a4wY82A8+rdX463GDYx11+sUn+j7pfj2YZ+NLddqeGLzKq/7jSN+Ev/9yJR45e3qyo3HdrevDY5T17wmdinty84nXR+X9G2yAe+z/s6V9Rda0n6/8/xDMernt8QdT02L1xt+Rl2s1bptbLpj5dh8c5/o3WFJfyQxN/4y7ufxg1/+sTg2lfXaVY7Lt/4rhswbHTuWfndzn43mLf11X9H3VdPP47K9FwAAAD76/IkrAACQWps9Do9Dy/HytYfiynvfbFh8464b47bSmZ3rttgvjt6pabpcEK/85qLY/8unxDl3TIrni+BbVT93Trwy+eEYccIx0ffYm+KpecUDH4oFMfGa06LvgDNjRHW7FgXfqgXx1vS/xQOjh8e+/YfHLdMXP9KsBY/FqYefE6OfrAbf6h3/iAWl02DP/ONl8ZUvfjdOH/t4ze8p7/9+w/4nZhb3f3Avx3XHDop+Q8fFIy82hrmq6s9//g83xeDDh8evGw9ZjXeeuj4O6X9cDBn9+3hmYfCtWvBOvP7i4zH63O/GrgN+HPe/Xtz/YXv3mRj1rUGx/5k3xQOTFwbfqsrxmf1SPDJ2ZPT/4uA44+FZxf215k+6qbJ/341z7vtbEWyrGo/tnSNOjj4j/rzUeL0s6y/drPjdJd+J3Y4cGaP/8FIRfKvq4903X41n7rsmjhhwTJzy8Ovv3Y75U+La7wyK/iMeLh2bynozn4mxQ4fEQde83HDPyvX+76u732i8DwAAYFUn+gIAAMl1iW8c/ulYpxhVZx+Ov/5X8WI8H/899ulFAbc6y7fPYQfExk0mSr7x/y6Mg4b9LqYtfmIz6mP209fH0Wc9uALh84OpbtfRV06O2UvdrsqWvTEhzj7p+phUjJs14Xdxz1vFchPzJ42OI067N55bFCybUx/TfzMijhg1OZpeMnnZTI+JT79ZOhZNvDUhLrjymdqwOPma+NoJN8XEJWz3QgumPRwnnzB6cZBfo1VssF6b2KD1GrVfeOvWiDbV+yu3NmsU962Q52Pk0WfGqGffLsZLsGBG3Dn0BzFiUpMXeP4f4ozKcVvy/tXHu3OXclBWdP1YEBNH/SCOu33K0o9p/Wtxz9Az4+Jnys+qrHvZefGjJ5a07/XxwpTpxfLK9P7vqwt/8fRSwzkAAMCqQvQFAADSa7nLV2Ngt9WLUcULD8TlPx0bY6cW44q6bfrFd3dqETXNd/6TcfGlE2JOMaxq1X2PGHrJyBg3ZlgM279brFf61jTn0UvjlNvLz155HrpvQiye/FoXWw04P8bfd0M8Vrn9dvQRsUur4qGK+il3x5WPFIOlqp62t02su+hsvS/H6IvuihdK1ay6/8Ma9v+CuHTQ9tFx0f7Xxws3XR23NjMjd5nUtY1dDx0SvxgzMsaef0T0674401fNfGxCPLeozs2Ka0eOq9muuvbbx/HnX1Bs16eic+mMw/VTxsXxP3u6cbDrcXHfTZfH/T/qG+XLPUenvjGqen/lNmxZzjL8PmbefEVc9ffyBlb2b9DpMbZh/wbE7p3KGzg1Rp9xZfxvqT6+eO11TUL8OtFj/2MaXp9xlxwT/T7eeqlf2Fd0/ZhyW/zwpqnxj2JYs/7lp8fxO7VdvH5l+8f8/P5YNGn2zfvioltro+6iz01l3e/tv3mU3p4r1/u+rx4rva8iOndYr1iq6hibL/uZ1gEAAD7SlvodEAAAIIcuceihnyqFptdj3M1/XHyd39ggDhj4hWhXjBaa/5s7ak7/HJ33ip9dfGTs06NjdNmwe+x93Dlx41HdS1+c6mPCbXfGi8VoZdr37MbA23i7Lq4duOmi2cxrd+kbg/p2KEZVc2PS038vlptTF5vsfWLcPu66eOSWy+Phu0fG8d0qd//5zrj+r4uzX7TdPS4ccWTs3bD/G8eO/U6Oa8r7X/903HT7jOWYOblmfPqE8+KiyjHadsOOsUXvvnHq8H7xieLRBlNeiInFYky+Pa59qrRda/WM0y89OQ7tvXGxXUPi1vN2j/algj/znrvi/uWbhrwcno+rb322FEwr+3f8uXFRv21ji4b9OyAu+MWp8aW2xcNVrz0U1z68cAOfj5vvKx+vuug+8JwYc9xnG16fLj0+G6f++MI4busm09IXWdH1I/508z3xbKlZt6u8P/574fqbbhuH/vC8OPE/Fv8hRf0T98fCS+G+ce/4mFCeXlv+3FTWPfC4YfGzL3cqHlyZmn9f9Srvdvl9VdGmdW0UBgAAWFWIvgAAwCqh5U7947Atmv+KU7fN/vGtXqWZl4VHHn2m5tSw3ffcN3o0ueRvuy8fEH3WKgZVLzwZv13e2a7/RKuvXruvCxYs5VS+Hb8Qw07YMTYq70fFc4/+OWaWCm7Xz/eNTzY59XG7bbvXzJidPGlSfPDqu15033L9YrnQulW0Lhabmvrok/FS6Xes/ek944sbFINCy14HRv8tSnXv3YnxyFPF8so27bF4tDSLPNbqHQft1XQDe8YRB2xSmlk+N/74x2caF9+cGE+U16/bNg45qEsxWGj9aFuelFq2ouvH32P8Y+ULIXeMffbvGbWHfv3o/fH2xXLV3+PPRT3934m1f/bw3s9Ni+ixZc0865Xkg72vAAAAVmWiLwAAsIroEocevdt7ZvNWZ/keeMTezdw/J15+dW6xXNUmttmmPHt2oU1jy67FYoNZMa2Y8bjyLYg3/vJQjDjzpNj7wMPiU30Oit7F7eCF0y6XxeqrR+nk14tMfG5qTb99aewpsX3pdzTcjhoXLxWPV9X/ozQDdyV5aVo5SEZ077F1sVTWIbpttGaxXPVGzJhRLK5sU2dEzcmNt+ge2xWLZZ036xJrl7r0rJnFtPJpM+PVxqVGnTaKLZv8scFSrej68Vw8O6VYbDA9Rh/V5LhXbrXvsfr4R/F3BW++U/7crBmbbtbc5wYAAIAPk+gLAACsMlr2+mp8fatiUKjb9kvxrf9o7jS3M2Laa+XkuVZ1kmAzOkSn8oTHD8v8V+PW7x8Vux89MkaP/1u8MvudWMpc3lXKKzPfqInRrVs1f4XYDWuuz/ohmvFazCpvYGX72hSLNTq2i/IZnpeoS5fYvFhcLiu6/gpZLzbsWCwCAADwLyP6AgAAq5D1o22Ts7123mqraNNc863G3LblB+pjQbOTWGfEtJpplR+OSaOHxtmPvLH49NMtOsRO/Q6J0084suF25CebzYwrpF23HeJzn3mfW8+OUTpn8UqxYbs2Nb9iSaeufmXG7GLpQ9ahbaxfs4Hzo9nLCU+fGeVLRi/Ryy/Hc8XiclnR9Sufm62bO9ZNbtttWDy9xrvx5pxiMYN11461i8Xq2QG6Va9tDQAAsAoQfQEAgH9TraJL+/LpgV+Np55qrl79Lf5SPr9xrB+dOhWLK80f4spbpsbiBr1RDLpsZIwctH98eZ89Gm67b7Y4XS2vzbu2r+23PfaNC876bly4tNtXP76ym2907VR7fdxnnimuhVtjRkyeUnt67g4f1lmGO3eImsmtkyfH48Vi2dTnX453SjOC129XzPvt1C5qJo9PmxJ/abYaL8GKrh9dY+OaHVgtevZr5lg3uQ3s2fjsapRf7I147rlE1XenE+K3990QjzXcTot9i7sBAACyE30BAIB/WzvtuHXNl6LHbxkbE5vEs5l33R0Pv1sMqjbpGZ9pXSw39eILMalYbLQgXptVXnlZvR1vl1fr2DN23qg2tf7jH4vmAC+3Hr22rLnm7Mx7boxba055XZg/Oa645M54/gOFxeXXecee0bW0XbMeuDVurb3Mb8yfNC5u+2tpW9fqETttUyyvbJ16x46di+Wq2b+NK+9quoGT45q7XyidpnrN+OQni2sTt+4R25bXr38ibrpjVjFYaFa8tqSJzCu6fnSLHXqU/+Dh9Rh39X3xanOHftJNce7NU2pmMn+i52a1n5s774wXi+VGC2LiX6YWyx9B89+Kaa/MjneKIQAAwKpA9AUAAP5ttdxtj+izbjGomnpXHPXty+LOidPj5VdejEfHDo8BFz1ZikN1sf0B+8TGxSg26RIfKxYbTP1VnHLOQ/H4K5X1//ZEjD7vpDj53uU5BfHqsXr529r0B2PEjX+N2dXy9u7seGLc8PjOrTMaH1sRO30xvlKOh+8+GUO/dkwMGf37eKK6D688G78Ze1kc1v/0+MntV8VhZz4YM4unrlTd+sQBW6xeDCoq2zXs6OEx+rEXK9s0PZ64/7IYeNJdMaUUKdv13Ss+37IYVLVcPVoUiw2mTYir7n+24bg+/eKKzkzdLL78hU0rR2mhufE/I06NE8Y+EX+tvm4TH4pzvz0sflnunm0/GwfvsnADK+v3Kb9z6uPxn50Yh13yUOPrPvH3Mer7p8QlzzRTYRus6PoRu351j+haLFe9M+HnsfchF8SoR6qvUePPuPqS06LvsdfH2J+eHifeszhqt/x079iu/P584ZY47Njic1N53990yelx1M3Tigc/Wub/789jz30Gxl6HHBmfOeCUuGpy8QAAAEByoi8AAPDvq+UOcdrx20erYlg159l744zjjol9DxkSR4+aENNLE2pbbHt4nLd/6dktPx2f27b8tao+XnhgZAw8pLL+EcNixH1TYvnyYq/4/A7lmZhvx4RRp8bn9jooeu97ZBw+ona7lt9mMfh7+8Ym5V1YMCMeGH1BHF7dh0NOj++MujeefKPxl815dHScP/7t0uzVlaVLfHNI7XbVvzohRpw0pLJNx8Th594bE98qHqio67BHnHPUx4tRYZPusdVaxXJV/dS4+9zTG47rSXeteDDfeMDRcdjHyhv4Wjw4alj0q75ux42Msc++XTxQUdcu+p02MLYrzV7e+OCvRt/yHxzUvxlP3j6y8XU/rhpfX1t8PedmrOj60e1rMbxf51K4rhz6adVYXH2NGn/GRbdPjtkNP+TtGP+zX8QDC3ep9Z4xpH/n0j8o1Mfsp4vPTeV9f/btzy3n+35lmxM3XnX/4s/OW8/Fz6/7QzEAAADIrfzVHgAA4N9Om8+dGDec/p/RaanfjupivY/3jyvP2zPaFfc0ahX9vnN49C7HtxotYvNNai6euoxaxb5DBkffDkvaqMr2bNC65gvdS8/9teYUvMuq5VaHxg0/7h8927zP18O6ttH39OExbOd1Vvo1fRt0GxC/vOjA6LHE17ZRi067xPCfHhk7rFHcscgOMfBL5TD5z7ZZHHPpmTGo+zrFeAladIh9zjg3Tu1VM++44Q8Ohp7ff8n7V9c61lvavhfrb1P+i4Wy91u/8t7sMejCuGpgt1j//Q59+/+Mc392bOxe2tWtvnlWnLnjkve9Vfu2seJXnf7na1EzhT5inTZLOlc7AABALivv+y8AAEAKLWLD3U6I2685M47fb6vYrPUai78otVg7Nuz2qRh05oj41Y8PjG3eExYrNtozLr385Bi0Q9dos2axZt0a0WbjT8Sgsy+Ja0/9VM1pdJfZBp+O80aPjIsP/URpm1rEuh03jX2OHx53jtw7ujXcV3jqyXikWPygWm51YFx1/ci4fFCf6LVxm1h3UZ+s/L71usZO/Y6Ja24eGeft1j7KZ1Be2dbepn+Muf5HMazfp2LrjmtXtqbQ8PpuFV85/ry47xfHxuc3KO5vYqtvnh/XHr9LbN1u8TFtsU6b6NJuSaX0A1pr6xj001Fx/an7xu7d2pdet7pYq3XX6LXfETHmxotj6C7rF/fXqr7u1f07rc+mseE6xcqVfevQbZc4bdRP48T/WHper65/9XXLv371+PYYcE78euF7f73Sa1x5729QeQ8feup58cDVJ8QXOi56pLB+7Ht2Zd+rr++iY1PZ73aV9+egoXHLdQfH9g33fZS0ii/+11diuw2qW1vZ1q67xClfL66zDAAAkNxq8+bNW/ln5gIAAADeY/78BdGyZdOgWjUjrjjqmPjJ5IVf2dvEl350WZxRPkd0xQda/4LL44xexRAAAIBVipm+AAAA8K/w+oNx4uHnx7jXinHJ/Enj4ra/lv9Ge8PYYoticaHK+kMGLvv63ZquDwAAwCpD9AUAAIAP3awYd8GVMX7an+L7A0+Jc+9/Nl6eNTfmz5kZT9x/WQw86a6YUmq2ddvuHPu0Ls/ybVz/4Vc+yPrFAAAAgFWO0zsDAADAh+0vV8U+R98ZU4vhUtVtEoOvOD+++bFS9F3R9QEAAFilmOkLAAAAH7YtB8QVp+8SnZu7HG9JXZtuMfjH57432Bbrd1ne9QEAAFilmOkLAAAA/yrvvhC/umpsjHnwyZg8/Z1YUL2vxdqxQZeN4/N7HRzf+GKP2LBlwzObt6LrAwAAsEoQfQEAAAAAAAASc3pnAAAAAAAAgMREXwAAAAAAAIDERF8AAAAAAACAxERfAAAAAAAAgMREXwAAAAAAAIDERF8AAAAAAACAxERfAAAAAAAAgMREXwAAAAAAAIDERF8AAAAAAACAxERfAAAAAAAAgMREXwAAAAAAAIDERF8AAAAAAACAxERfAAAAAAAAgMREXwAAAAAAAIDERF8AAAAAAACAxERfAAAAAAAAgMREXwAAAAAAAIDERF8AAAAAAACAxERfAAAAAAAAgMREXwAAAAAAAIDERF8AAAAAAACAxERfAAAAAAAAgMREXwAAAAAAAIDERF8AAAAAAACAxERfAAAAAAAAgMREXwAAAAAAAIDERF8AAAAAAACAxERfAAAAAAAAgMREXwAAAAAAAIDERF8AAAAAAACAxERfAAAAAAAAgMREXwAAAAAAAIDERF8AAAAAAACAxERfAAAAAAAAgMREXwAAAAAAAIDERF8AAAAAAACAxERfAAAAAAAAgMREXwAAAAAAAIDERF8AAAAAAACAxERfAAAAAAAAgMREXwAAAAAAAIDERF8AAAAAAACAxERfAAAAAAAAgMREXwAAAAAAAIDERF8AAAAAAACAxERfAAAAAAAAgMREXwAAAAAAAIDERF8AAAAAAACAxERfAAAAAAAAgMREXwAAAAAAAIDERF8AAAAAAACAxERfAAAAAAAAgMREXwAAAAAAAIDERF8AAAAAAACAxERfAAAAAAAAgMREXwAAAAAAAIDERF8AAAAAAACAxERfAAAAAAAAgMREXwAAAAAAAIDERF8AAAAAAACAxERfAAAAAAAAgMREXwAAAAAAAIDERF8AAAAAAACAxERfAAAAAAAAgMREXwAAAAAAAIDERF8AAAAAAACAxERfAAAAAAAAgMREXwAAAAAAAIDERF8AAAAAAACAxERfAAAAAAAAgMREXwAAAAAAAIDERF8AAAAAAACAxERfAAAAAAAAgMREXwAAAAAAAIDERF8AAAAAAACAxERfAAAAAAAAgMREXwAAAAAAAIDERF8AAAAAAACAxERfAAAAAAAAgMREXwAAAAAAAIDERF8AAAAAAACAxERfAAAAAAAAgMREXwAAAAAAAIDERF8AAAAAAACAxERfAAAAAAAAgMREXwAAAAAAAIDERF8AAAAAAACAxERfAAAAAAAAgMREXwAAAAAAAIDERF8AAAAAAACAxERfAAAAAAAAgMREXwAAAAAAAIDERF8AAAAAAACAxERfAAAAAAAAgMREXwAAAAAAAIDERF8AAAAAAACAxERfAAAAAAAAgMREXwAAAAAAAIDERF8AAAAAAACAxERfAAAAAAAAgMREXwAAAAAAAIDERF8AAAAAAACAxERfAAAAAAAAgMREXwAAAAAAAIDERF8AAAAAAACAxERfAAAAAAAAgMREXwAAAAAAAIDERF8AAAAAAACAxERfAAAAAAAAgMREXwAAAAAAAIDERF8AAAAAAACAxERfAAAAAAAAgMREXwAAAAAAAIDERF8AAAAAAACAxERfAAAAAAAAgMREXwAAAAAAAIDERF8AAAAAAACAxERfAAAAAAAAgMREXwAAAAAAAIDERF8AAAAAAACAxERfAAAAAAAAgMREXwAAAAAAAIDERF8AAAAAAACAxERfAAAAAAAAgMREXwAAAAAAAIDERF8AAAAAAACAxERfAAAAAAAAgMREXwAAAAAAAIDERF8AAAAAAACAxERfAAAAAAAAgMREXwAAAAAAAIDERF8AAAAAAACAxERfAAAAAAAAgMREXwAAAAAAAIDERF8AAAAAAACAxERfAAAAAAAAgMREXwAAAAAAAIDERF8AAAAAAACAxERfAAAAAAAAgMREXwAAAAAAAIDERF8AAAAAAACAxERfAAAAAAAAgMREXwAAAAAAAIDERF8AAAAAAACAxERfAAAAAAAAgMREXwAAAAAAAIDERF8AAAAAAACAxERfAAAAAAAAgMREXwAAAAAAAIDERF8AAAAAAACAxERfAAAAAAAAgMREXwAAAAAAAIDERF8AAAAAAACAxERfAAAAAAAAgMREXwAAAAAAAIDERF8AAAAAAACAxERfAAAAAAAAgMREXwAAAAAAAIDERF8AAAAAAACAxERfAAAAAAAAgMREXwAAAAAAAIDERF8AAAAAAACAxERfAAAAAAAAgMREXwAAAAAAAIDERF8AAAAAAACAxERfAAAAAAAAgMREXwAAAAAAAIDERF8AAAAAAACAxERfAAAAAAAAgMREXwAAAAAAAIDERF8AAAAAAACAxERfAAAAAAAAgMREXwAAAAAAAIDERF8AAAAAAACAxERfAAAAAAAAgMREXwAAAAAAAIDERF8AAAAAAACAxERfAAAAAAAAgMREXwAAAAAAAIDERF8AAAAAAACAxERfAAAAAAAAgMREXwAAAAAAAIDERF8AAAAAAACAxERfAAAAAAAAgMREXwAAAAAAAIDERF8AAAAAAACAxERfAAAAAAAAgMREXwAAAAAAAIDERF8AAAAAAACAxERfAAAAAAAAgMREXwAAAAAAAIDERF8AAAAAAACAxERfAAAAAAAAgMREXwAAAAAAAIDERF8AAAAAAACAxERfAAAAAAAAgMREXwAAAAAAAIDERF8AAAAAAACAxERfAAAAAAAAgMREXwAAAAAAAIDERF8AAAAAAACAxERfAAAAAAAAgMREXwAAAAAAAIDERF8AAAAAAACAxERfAAAAAAAAgMREXwAAAAAAAIDERF8AAAAAAACAxERfAAAAAAAAgMREXwAAAAAAAIDERF8AAAAAAACAxERfAAAAAAAAgMREXwAAAAAAAIDERF8AAAAAAACAxERfAAAAAAAAgMREXwAAAAAAAIDERF8AAAAAAACAxERfAAAAAAAAgMREXwAAAAAAAIDERF8AAAAAAACAxERfAAAAAAAAgMREXwAAAAAAAIDERF8AAAAAAACAxERfAAAAAAAAgMREXwAAAAAAAIDERF8AAAAAAACAxERfAAAAAAAAgMREXwAAAAAAAIDERF8AAAAAAACAxERfAAAAAAAAgMREXwAAAAAAAIDERF8AAAAAAACAxERfAAAAAAAAgMREXwAAAAAAAIDERF8AAAAAAACAxERfAAAAAAAAgMREXwAAAAAAAIDERF8AAAAAAACAxERfAAAAAAAAgMREXwAAAAAAAIDERF8AAAAAAACAxERfAAAAAAAAgMREXwAAAAAAAIDERF8AAAAAAACAxERfAAAAAAAAgMREXwAAAAAAAIDERF8AAAAAAACAxERfAAAAAAAAgMREXwAAAAAAAIDERF8AAAAAAACAxERfAAAAAAAAgMREXwAAAAAAAIDERF8AAAAAAACAxERfAAAAAAAAgMREXwAAAAAAAIDERF8AAAAAAACAxERfAAAAAAAAgMREXwAAAAAAAIDERF8AAAAAAACAxERfAAAAAAAAgMREXwAAAAAAAIDERF8AAAAAAACAxERfAAAAAAAAgMREXwAAAAAAAIDERF8AAAAAAACAxERfAAAAAAAAgMREXwAAAAAAAIDERF8AAAAAAACAxERfAAAAAAAAgMREXwAAAAAAAIDERF8AAAAAAACAxERfAAAAAAAAgMREXwAAAAAAAIDERF8AAAAAAACAxERfAAAAAAAAgMREXwAAAAAAAIDERF8AAAAAAACAxERfAAAAAAAAgMREXwAAAAAAAIDERF8AAAAAAACAxERfAAAAAAAAgMREXwAAAAAAAIDERF8AAAAAAACAxERfAAAAAAAAgMREXwAAAAAAAIDERF8AAAAAAACAxERfAAAAAAAAgMREXwAAAAAAAIDERF8AAAAAAACAxERfAAAAAAAAgMREXwAAAAAAAIDERF8AAAAAAACAxERfAAAAAAAAgMREXwAAAAAAAIDERF8AAAAAAACAxERfAAAAAAAAgMREXwAAAAAAAIDERF8AAAAAAACAxERfAAAAAAAAgMREXwAAAAAAAIDERF8AAAAAAACAxERfAAAAAAAAgMREXwAAAAAAAIDERF8AAAAAAACAxERfAAAAAAAAgMREXwAAAAAAAIDERF8AAAAAAACAxERfAAAAAAAAgMREXwAAAAAAAIDERF8AAAAAAACAxERfAAAAAAAAgMREXwAAAAAAAIDERF8AAAAAAACAxERfAAAAAAAAgMREXwAAAAAAAIDERF8AAAAAAACAxERfAAAAAAAAgMREXwAAAAAAAIDERF8AAAAAAACAxERfAAAAAAAAgMREXwAAAAAAAIDERF8AAAAAAACAxERfAAAAAAAAgMREXwAAAAAAAIDERF8AAAAAAACAxERfAAAAAAAAgMREXwAAAAAAAIDERF8AAAAAAACAxERfAAAAAAAAgMREXwAAAAAAAIDERF8AAAAAAACAxERfAAAAAAAAgMREXwAAAAAAAIDERF8AAAAAAACAxERfAAAAAAAAgMREXwAAAAAAAIDERF8AAAAAAACAxERfAAAAAAAAgMREXwAAAAAAAIDERF8AAAAAAACAxERfAAAAAAAAgMREXwAAAAAAAIDERF8AAAAAAACAxERfAAAAAAAAgMREXwAAAAAAAIDERF8AAAAAAACAxERfAAAAAAAAgMREXwAAAAAAAIDERF8AAAAAAACAxERfAAAAAAAAgMREXwAAAAAAAIDERF8AAAAAAACAxERfAAAAAAAAgMREXwAAAAAAAIDERF8AAAAAAACAxERfAAAAAAAAgMREXwAAAAAAAIDERF8AAAAAAACAxERfAAAAAAAAgMREXwAAAAAAAIDERF8AAAAAAACAxERfAAAAAAAAgMREXwAAAAAAAIDERF8AAAAAAACAxERfAAAAAAAAgMREXwAAAAAAAIDERF8AAAAAAACAxERfAAAAAAAAgMREXwAAAAAAAIDERF8AAAAAAACAxERfAAAAAAAAgMREXwAAAAAAAIDERF8AAAAAAACAxERfAAAAAAAAgMREXwAAAAAAAIDERF8AAAAAAACAxERfAAAAAAAAgMREXwAAAAAAAIDERF8AAAAAAACAxERfAAAAAAAAgMREXwAAAAAAAIDERF8AAAAAAACAxERfAAAAAAAAgMREXwAAAAAAAIDERF8AAAAAAACAxERfAAAAAAAAgMREXwAAAAAAAIDERF8AAAAAAACAxERfAAAAAAAAgMREXwAAAAAAAIDERF8AAAAAAACAxERfAAAAAAAAgMREXwAAAAAAAIDERF8AAAAAAACAxERfAAAAAAAAgMREXwAAAAAAAIDERF8AAAAAAACAxERfAAAAAAAAgMREXwAAAAAAAIDERF8AAAAAAACAxERfAAAAAAAAgMREXwAAAAAAAIDERF8AAAAAAACAxERfAAAAAAAAgMREXwAAAAAAAIDERF8AAAAAAACAxERfAAAAAAAAgMREXwAAAAAAAIDERF8AAAAAAACAxERfAAAAAAAAgMREXwAAAAAAAIDERF8AAAAAAACAxERfAAAAAAAAgMREXwAAAAAAAIDERF8AAAAAAACAxERfAAAAAAAAgMREXwAAAAAAAIDERF8AAAAAAACAxERfAAAAAAAAgMREXwAAAAAAAIDERF8AAAAAAACAxERfAAAAAAAAgMREXwAAAAAAAIDERF8AAAAAAACAxERfAAAAAAAAgMREXwAAAAAAAIDERF8AAAAAAACAxERfAAAAAAAAgMREXwAAAAAAAIDERF8AAAAAAACAxERfAAAAAAAAgMREXwAAAAAAAIDERF8AAAAAAACAxERfAAAAAAAAgMREXwAAAAAAAIDERF8AAAAAAACAxERfAAAAAAAAgMREXwAAAAAAAIDERF8AAAAAAACAxERfAAAAAAAAgMREXwAAAAAAAIDERF8AAAAAAACAxERfAAAAAAAAgMREXwAAAAAAAIDERF8AAAAAAACAxERfAAAAAAAAgMREXwAAAAAAAIDERF8AAAAAAACAxERfAAAAAAAAgMREXwAAAAAAAIDERF8AAAAAAACAxERfAAAAAAAAgMREXwAAAAAAAIDERF8AAAAAAACAxERfAAAAAAAAgMREXwAAAAAAAIDERF8AAAAAAACAxERfAAAAAAAAgMREXwAAAAAAAIDERF8AAAAAAACAxERfAAAAAAAAgMREXwAAAAAAAIDERF8AAAAAAACAxERfAAAAAAAAgMREXwAAAAAAAIDERF8AAAAAAACAxERfAAAAAAAAgMREXwAAAAAAAIDERF8AAAAAAACAxERfAAAAAAAAgMREXwAAAAAAAIDERF8AAAAAAACAxERfAAAAAAAAgMREXwAAAAAAAIDERF8AAAAAAACAxERfAAAAAAAAgMREXwAAAAAAAIDERF8AAAAAAACAxERfAAAAAAAAgMREXwAAAAAAAIDERF8AAAAAAACAxERfAAAAAAAAgMREXwAAAAAAAIDERF8AAAAAAACAxERfAAAAAAAAgMREXwAAAAAAAIDERF8AAAAAAACAxERfAAAAAAAAgMREXwAAAAAAAIDERF8AAAAAAACAxERfAAAAAAAAgMREXwAAAAAAAIDERF8AAAAAAACAxERfAAAAAAAAgMREXwAAAAAAAIDERF8AAAAAAACAxERfAAAAAAAAgMREXwAAAAAAAIDERF8AAAAAAACAxERfAAAAAAAAgMREXwAAAAAAAIDERF8AAAAAAACAxERfAAAAAAAAgMREXwAAAAAAAIDERF8AAAAAAACAxERfAAAAAAAAgMREXwAAAAAAAIDERF8AAAAAAACAxERfAAAAAAAAgMREXwAAAAAAAIDERF8AAAAAAACAxERfAAAAAAAAgMREXwAAAAAAAIDERF8AAAAAAACAxERfAAAAAAAAgMREXwAAAAAAAIDERF8AAAAAAACAxERfAAAAAAAAgMREXwAAAAAAAIDERF8AAAAAAACAxERfAAAAAAAAgMREXwAAAAAAAIDERF8AAAAAAACAxERfAAAAAAAAgMRW22233f6vWAYAAAAAAAAgmdU22mgj0RcAAAAAAAAgpYj/D44DzP+1F3dhAAAAAElFTkSuQmCC;rounded=1;" vertex="1" parent="-7DQYjudDjOqLOXsnFPr-1">
                    <mxGeometry x="4840" y="100" width="2090" height="1101.15" as="geometry"/>
                </mxCell>
                <mxCell id="M4OnXBKx6eY-3PvfYXCy-6" value="" style="strokeWidth=1;shadow=0;dashed=0;align=center;html=1;shape=mxgraph.mockup.containers.browserWindow;rSize=0;strokeColor=#666666;strokeColor2=#008cff;strokeColor3=#c4c4c4;mainText=,;recursiveResize=0;hachureGap=4;fontFamily=Architects Daughter;fontSource=https%3A%2F%2Ffonts.googleapis.com%2Fcss%3Ffamily%3DArchitects%2BDaughter;fontSize=37;rounded=1;fillColor=#f5f5f5;fontColor=#333333;" vertex="1" parent="-7DQYjudDjOqLOXsnFPr-1">
                    <mxGeometry x="2470" y="90" width="2120" height="1360" as="geometry"/>
                </mxCell>
                <mxCell id="M4OnXBKx6eY-3PvfYXCy-7" value="Page 1" style="strokeWidth=1;shadow=0;dashed=0;align=center;html=1;shape=mxgraph.mockup.containers.anchor;fontSize=17;fontColor=#666666;align=left;hachureGap=4;fontFamily=Architects Daughter;fontSource=https%3A%2F%2Ffonts.googleapis.com%2Fcss%3Ffamily%3DArchitects%2BDaughter;rounded=1;" vertex="1" parent="M4OnXBKx6eY-3PvfYXCy-6">
                    <mxGeometry x="60" y="12" width="110" height="26" as="geometry"/>
                </mxCell>
                <mxCell id="M4OnXBKx6eY-3PvfYXCy-8" value="https://www.draw.io" style="strokeWidth=1;shadow=0;dashed=0;align=center;html=1;shape=mxgraph.mockup.containers.anchor;rSize=0;fontSize=17;fontColor=#666666;align=left;hachureGap=4;fontFamily=Architects Daughter;fontSource=https%3A%2F%2Ffonts.googleapis.com%2Fcss%3Ffamily%3DArchitects%2BDaughter;rounded=1;" vertex="1" parent="M4OnXBKx6eY-3PvfYXCy-6">
                    <mxGeometry x="130" y="60" width="250" height="26" as="geometry"/>
                </mxCell>
                <mxCell id="fOQGBBFUTsgOoVbuyJ3R-12" value="" style="strokeWidth=1;shadow=0;dashed=0;align=center;html=1;shape=mxgraph.mockup.forms.rrect;rSize=0;strokeColor=#999999;fillColor=#ffffff;rounded=1;fillStyle=auto;" vertex="1" parent="M4OnXBKx6eY-3PvfYXCy-6">
                    <mxGeometry x="850" y="460" width="240" height="370" as="geometry"/>
                </mxCell>
                <mxCell id="fOQGBBFUTsgOoVbuyJ3R-13" value="Sign In" style="strokeWidth=1;shadow=0;dashed=0;align=center;html=1;shape=mxgraph.mockup.forms.anchor;fontSize=12;fontColor=#666666;align=left;resizeWidth=1;spacingLeft=0;rounded=1;" vertex="1" parent="fOQGBBFUTsgOoVbuyJ3R-12">
                    <mxGeometry width="119.99999999999999" height="20" relative="1" as="geometry">
                        <mxPoint x="10" y="10" as="offset"/>
                    </mxGeometry>
                </mxCell>
                <mxCell id="fOQGBBFUTsgOoVbuyJ3R-14" value="" style="shape=line;strokeColor=#ddeeff;strokeWidth=2;html=1;resizeWidth=1;rounded=1;" vertex="1" parent="fOQGBBFUTsgOoVbuyJ3R-12">
                    <mxGeometry width="215.99999999999997" height="10" relative="1" as="geometry">
                        <mxPoint x="10" y="30" as="offset"/>
                    </mxGeometry>
                </mxCell>
                <mxCell id="fOQGBBFUTsgOoVbuyJ3R-15" value="User Name:" style="strokeWidth=1;shadow=0;dashed=0;align=center;html=1;shape=mxgraph.mockup.forms.anchor;fontSize=12;fontColor=#666666;align=left;resizeWidth=1;spacingLeft=0;rounded=1;" vertex="1" parent="fOQGBBFUTsgOoVbuyJ3R-12">
                    <mxGeometry width="119.99999999999999" height="20" relative="1" as="geometry">
                        <mxPoint x="10" y="40" as="offset"/>
                    </mxGeometry>
                </mxCell>
                <mxCell id="fOQGBBFUTsgOoVbuyJ3R-16" value="johndoe" style="strokeWidth=1;shadow=0;dashed=0;align=center;html=1;shape=mxgraph.mockup.forms.rrect;rSize=0;strokeColor=#999999;fontColor=#666666;align=left;spacingLeft=5;resizeWidth=1;rounded=1;" vertex="1" parent="fOQGBBFUTsgOoVbuyJ3R-12">
                    <mxGeometry width="179.99999999999997" height="25" relative="1" as="geometry">
                        <mxPoint x="10" y="60" as="offset"/>
                    </mxGeometry>
                </mxCell>
                <mxCell id="fOQGBBFUTsgOoVbuyJ3R-17" value="Password:" style="strokeWidth=1;shadow=0;dashed=0;align=center;html=1;shape=mxgraph.mockup.forms.anchor;fontSize=12;fontColor=#666666;align=left;resizeWidth=1;spacingLeft=0;rounded=1;" vertex="1" parent="fOQGBBFUTsgOoVbuyJ3R-12">
                    <mxGeometry width="119.99999999999999" height="20" relative="1" as="geometry">
                        <mxPoint x="10" y="95" as="offset"/>
                    </mxGeometry>
                </mxCell>
                <mxCell id="fOQGBBFUTsgOoVbuyJ3R-18" value="********" style="strokeWidth=1;shadow=0;dashed=0;align=center;html=1;shape=mxgraph.mockup.forms.rrect;rSize=0;strokeColor=#999999;fontColor=#666666;align=left;spacingLeft=5;resizeWidth=1;rounded=1;" vertex="1" parent="fOQGBBFUTsgOoVbuyJ3R-12">
                    <mxGeometry width="179.99999999999997" height="25" relative="1" as="geometry">
                        <mxPoint x="10" y="115" as="offset"/>
                    </mxGeometry>
                </mxCell>
                <mxCell id="fOQGBBFUTsgOoVbuyJ3R-19" value="SIGN IN" style="strokeWidth=1;shadow=0;dashed=0;align=center;html=1;shape=mxgraph.mockup.forms.rrect;rSize=5;strokeColor=none;fontColor=#ffffff;fillColor=#66bbff;fontSize=16;fontStyle=1;rounded=1;" vertex="1" parent="fOQGBBFUTsgOoVbuyJ3R-12">
                    <mxGeometry y="1" width="80" height="30" relative="1" as="geometry">
                        <mxPoint x="20" y="-150" as="offset"/>
                    </mxGeometry>
                </mxCell>
                <mxCell id="fOQGBBFUTsgOoVbuyJ3R-20" value="Forgot Password?" style="strokeWidth=1;shadow=0;dashed=0;align=center;html=1;shape=mxgraph.mockup.forms.anchor;fontSize=12;fontColor=#9999ff;align=left;spacingLeft=0;fontStyle=4;resizeWidth=1;rounded=1;" vertex="1" parent="fOQGBBFUTsgOoVbuyJ3R-12">
                    <mxGeometry y="1" width="179.99999999999997" height="20" relative="1" as="geometry">
                        <mxPoint x="10" y="-110" as="offset"/>
                    </mxGeometry>
                </mxCell>
                <mxCell id="fOQGBBFUTsgOoVbuyJ3R-21" value="" style="shape=line;strokeColor=#ddeeff;strokeWidth=2;html=1;resizeWidth=1;rounded=1;" vertex="1" parent="fOQGBBFUTsgOoVbuyJ3R-12">
                    <mxGeometry y="1" width="215.99999999999997" height="10" relative="1" as="geometry">
                        <mxPoint x="10" y="-90" as="offset"/>
                    </mxGeometry>
                </mxCell>
                <mxCell id="fOQGBBFUTsgOoVbuyJ3R-22" value="New User" style="strokeWidth=1;shadow=0;dashed=0;align=center;html=1;shape=mxgraph.mockup.forms.anchor;fontSize=12;fontColor=#666666;align=left;spacingLeft=0;resizeWidth=1;rounded=1;" vertex="1" parent="fOQGBBFUTsgOoVbuyJ3R-12">
                    <mxGeometry y="1" width="179.99999999999997" height="20" relative="1" as="geometry">
                        <mxPoint x="10" y="-70" as="offset"/>
                    </mxGeometry>
                </mxCell>
                <mxCell id="fOQGBBFUTsgOoVbuyJ3R-23" value="SIGN UP" style="strokeWidth=1;shadow=0;dashed=0;align=center;html=1;shape=mxgraph.mockup.forms.rrect;rSize=5;strokeColor=none;fontColor=#ffffff;fillColor=#66bbff;fontSize=16;fontStyle=1;rounded=1;" vertex="1" parent="fOQGBBFUTsgOoVbuyJ3R-12">
                    <mxGeometry y="1" width="80" height="30" relative="1" as="geometry">
                        <mxPoint x="83" y="-40" as="offset"/>
                    </mxGeometry>
                </mxCell>
            </root>
        </mxGraphModel>
    </diagram>
    <diagram name="Backend" id="FnkjyvJ4f86FPR9UOOV4">
        <mxGraphModel dx="3928" dy="3488" grid="1" gridSize="10" guides="1" tooltips="1" connect="1" arrows="1" fold="1" page="1" pageScale="1" pageWidth="4681" pageHeight="3300" background="none" math="0" shadow="1">
            <root>
                <mxCell id="9RH_FhfFspoUtDbsHKwX-0"/>
                <mxCell id="9RH_FhfFspoUtDbsHKwX-1" parent="9RH_FhfFspoUtDbsHKwX-0"/>
                <mxCell id="9RH_FhfFspoUtDbsHKwX-2" value="" style="edgeStyle=none;hachureGap=4;html=1;fontFamily=Architects Daughter;fontSource=https%3A%2F%2Ffonts.googleapis.com%2Fcss%3Ffamily%3DArchitects%2BDaughter;fontSize=40;sketch=1;curveFitting=1;jiggle=2;" edge="1" parent="9RH_FhfFspoUtDbsHKwX-1" source="9RH_FhfFspoUtDbsHKwX-3" target="9RH_FhfFspoUtDbsHKwX-4">
                    <mxGeometry relative="1" as="geometry"/>
                </mxCell>
                <mxCell id="9RH_FhfFspoUtDbsHKwX-3" value="&lt;h1 style=&quot;font-size: 59px;&quot;&gt;&lt;font style=&quot;font-size: 59px;&quot;&gt;ft_transcendence&lt;/font&gt;&lt;/h1&gt;" style="text;html=1;strokeColor=#001DBC;fillColor=#0050ef;align=center;verticalAlign=middle;whiteSpace=wrap;rounded=1;fontColor=#ffffff;fontSize=59;horizontal=1;labelBorderColor=none;spacing=2;sketch=1;curveFitting=1;jiggle=2;" vertex="1" parent="9RH_FhfFspoUtDbsHKwX-1">
                    <mxGeometry x="2037.5" y="70" width="565" height="120" as="geometry"/>
                </mxCell>
                <mxCell id="9RH_FhfFspoUtDbsHKwX-4" value="&lt;h1 style=&quot;font-size: 40px;&quot;&gt;&lt;font face=&quot;Helvetica&quot; style=&quot;font-size: 40px;&quot;&gt;Docker&lt;/font&gt;&lt;/h1&gt;" style="text;html=1;strokeColor=#B09500;fillColor=#e3c800;align=center;verticalAlign=middle;whiteSpace=wrap;rounded=1;fontColor=#FFFFFF;fontSize=40;horizontal=1;labelBorderColor=none;spacing=2;hachureGap=4;fontFamily=Architects Daughter;fontSource=https%3A%2F%2Ffonts.googleapis.com%2Fcss%3Ffamily%3DArchitects%2BDaughter;sketch=1;curveFitting=1;jiggle=2;" vertex="1" parent="9RH_FhfFspoUtDbsHKwX-1">
                    <mxGeometry x="2130" y="240" width="380" height="70" as="geometry"/>
                </mxCell>
                <mxCell id="9RH_FhfFspoUtDbsHKwX-5" value="" style="edgeStyle=none;sketch=1;hachureGap=4;jiggle=2;curveFitting=1;html=1;fontFamily=Verdana;fontSize=16;endSize=20;startSize=20;strokeWidth=6;" edge="1" parent="9RH_FhfFspoUtDbsHKwX-1" source="9RH_FhfFspoUtDbsHKwX-6">
                    <mxGeometry relative="1" as="geometry">
                        <mxPoint x="2320" y="840" as="targetPoint"/>
                    </mxGeometry>
                </mxCell>
                <mxCell id="9RH_FhfFspoUtDbsHKwX-6" value="&lt;h1 style=&quot;font-size: 40px;&quot;&gt;&lt;font face=&quot;Helvetica&quot; style=&quot;font-size: 40px;&quot;&gt;Backend&lt;/font&gt;&lt;/h1&gt;&lt;div&gt;&lt;font face=&quot;Helvetica&quot;&gt;nest.js&lt;/font&gt;&lt;/div&gt;" style="text;html=1;strokeColor=#B09500;fillColor=#e3c800;align=center;verticalAlign=middle;whiteSpace=wrap;rounded=1;fontColor=#FFFFFF;fontSize=40;horizontal=1;labelBorderColor=none;spacing=2;hachureGap=4;fontFamily=Architects Daughter;fontSource=https%3A%2F%2Ffonts.googleapis.com%2Fcss%3Ffamily%3DArchitects%2BDaughter;sketch=1;curveFitting=1;jiggle=2;" vertex="1" parent="9RH_FhfFspoUtDbsHKwX-1">
                    <mxGeometry x="2130" y="390" width="380" height="230" as="geometry"/>
                </mxCell>
                <mxCell id="9RH_FhfFspoUtDbsHKwX-7" value="" style="whiteSpace=wrap;html=1;hachureGap=4;fontFamily=Architects Daughter;fontSource=https%3A%2F%2Ffonts.googleapis.com%2Fcss%3Ffamily%3DArchitects%2BDaughter;fontSize=20;fillColor=#a20025;fontColor=#ffffff;strokeColor=#6F0000;sketch=1;curveFitting=1;jiggle=2;" vertex="1" parent="9RH_FhfFspoUtDbsHKwX-1">
                    <mxGeometry x="140" y="140" width="820" height="1470" as="geometry"/>
                </mxCell>
                <mxCell id="9RH_FhfFspoUtDbsHKwX-8" value="&lt;pre style=&quot;font-size: 20px;&quot;&gt;&lt;br&gt;&lt;/pre&gt;" style="text;html=1;strokeColor=#2D7600;fillColor=#60a917;align=center;verticalAlign=top;whiteSpace=wrap;rounded=1;fontColor=#ffffff;fontSize=20;horizontal=1;labelBorderColor=none;spacing=2;hachureGap=4;fontFamily=Architects Daughter;fontSource=https%3A%2F%2Ffonts.googleapis.com%2Fcss%3Ffamily%3DArchitects%2BDaughter;sketch=1;curveFitting=1;jiggle=2;" vertex="1" parent="9RH_FhfFspoUtDbsHKwX-1">
                    <mxGeometry x="2060" y="840" width="520" height="540" as="geometry"/>
                </mxCell>
                <mxCell id="XZfso3zBUpXvtrGHzKSD-0" value="Mécanique du jeu pong.&lt;br&gt;&lt;br&gt;Mécanique d'authentification avec api et hashage de mot de passe.&lt;br&gt;&lt;br&gt;Mécanique du tchat&lt;br&gt;" style="text;strokeColor=none;align=center;fillColor=none;html=1;verticalAlign=top;whiteSpace=wrap;rounded=0;sketch=1;hachureGap=4;jiggle=2;curveFitting=1;fontFamily=Verdana;fontSize=20;" vertex="1" parent="9RH_FhfFspoUtDbsHKwX-1">
                    <mxGeometry x="2080" y="855" width="490" height="510" as="geometry"/>
                </mxCell>
            </root>
        </mxGraphModel>
    </diagram>
    <diagram name="Server" id="dDpA58bLws05LAVD23_D">
        <mxGraphModel dx="3273" dy="2907" grid="1" gridSize="10" guides="1" tooltips="1" connect="1" arrows="1" fold="1" page="1" pageScale="1" pageWidth="4681" pageHeight="3300" background="none" math="0" shadow="1">
            <root>
                <mxCell id="7sBMtokpVWZ9o5FrSynr-0"/>
                <mxCell id="7sBMtokpVWZ9o5FrSynr-1" parent="7sBMtokpVWZ9o5FrSynr-0"/>
                <mxCell id="7sBMtokpVWZ9o5FrSynr-2" value="" style="edgeStyle=none;hachureGap=4;html=1;fontFamily=Architects Daughter;fontSource=https%3A%2F%2Ffonts.googleapis.com%2Fcss%3Ffamily%3DArchitects%2BDaughter;fontSize=40;sketch=1;curveFitting=1;jiggle=2;" edge="1" parent="7sBMtokpVWZ9o5FrSynr-1" source="7sBMtokpVWZ9o5FrSynr-3" target="7sBMtokpVWZ9o5FrSynr-4">
                    <mxGeometry relative="1" as="geometry"/>
                </mxCell>
                <mxCell id="7sBMtokpVWZ9o5FrSynr-3" value="&lt;h1 style=&quot;font-size: 59px;&quot;&gt;&lt;font style=&quot;font-size: 59px;&quot;&gt;ft_transcendence&lt;/font&gt;&lt;/h1&gt;" style="text;html=1;strokeColor=#001DBC;fillColor=#0050ef;align=center;verticalAlign=middle;whiteSpace=wrap;rounded=1;fontColor=#ffffff;fontSize=59;horizontal=1;labelBorderColor=none;spacing=2;sketch=1;curveFitting=1;jiggle=2;" vertex="1" parent="7sBMtokpVWZ9o5FrSynr-1">
                    <mxGeometry x="2037.5" y="70" width="565" height="120" as="geometry"/>
                </mxCell>
                <mxCell id="7sBMtokpVWZ9o5FrSynr-4" value="&lt;h1 style=&quot;font-size: 40px;&quot;&gt;&lt;font face=&quot;Helvetica&quot; style=&quot;font-size: 40px;&quot;&gt;Docker&lt;/font&gt;&lt;/h1&gt;" style="text;html=1;strokeColor=#B09500;fillColor=#e3c800;align=center;verticalAlign=middle;whiteSpace=wrap;rounded=1;fontColor=#FFFFFF;fontSize=40;horizontal=1;labelBorderColor=none;spacing=2;hachureGap=4;fontFamily=Architects Daughter;fontSource=https%3A%2F%2Ffonts.googleapis.com%2Fcss%3Ffamily%3DArchitects%2BDaughter;sketch=1;curveFitting=1;jiggle=2;" vertex="1" parent="7sBMtokpVWZ9o5FrSynr-1">
                    <mxGeometry x="2130" y="240" width="380" height="70" as="geometry"/>
                </mxCell>
                <mxCell id="7sBMtokpVWZ9o5FrSynr-5" value="" style="edgeStyle=none;sketch=1;hachureGap=4;jiggle=2;curveFitting=1;html=1;fontFamily=Verdana;fontSize=16;endSize=20;startSize=20;strokeWidth=6;" edge="1" parent="7sBMtokpVWZ9o5FrSynr-1" source="7sBMtokpVWZ9o5FrSynr-6">
                    <mxGeometry relative="1" as="geometry">
                        <mxPoint x="2320" y="840" as="targetPoint"/>
                    </mxGeometry>
                </mxCell>
                <mxCell id="7sBMtokpVWZ9o5FrSynr-6" value="&lt;h1 style=&quot;font-size: 40px;&quot;&gt;&lt;font face=&quot;Helvetica&quot;&gt;Server&lt;/font&gt;&lt;/h1&gt;&lt;div&gt;&lt;font face=&quot;Helvetica&quot;&gt;nginx&lt;/font&gt;&lt;/div&gt;" style="text;html=1;strokeColor=#B09500;fillColor=#e3c800;align=center;verticalAlign=middle;whiteSpace=wrap;rounded=1;fontColor=#FFFFFF;fontSize=40;horizontal=1;labelBorderColor=none;spacing=2;hachureGap=4;fontFamily=Architects Daughter;fontSource=https%3A%2F%2Ffonts.googleapis.com%2Fcss%3Ffamily%3DArchitects%2BDaughter;sketch=1;curveFitting=1;jiggle=2;" vertex="1" parent="7sBMtokpVWZ9o5FrSynr-1">
                    <mxGeometry x="2130" y="390" width="380" height="230" as="geometry"/>
                </mxCell>
                <mxCell id="7sBMtokpVWZ9o5FrSynr-7" value="" style="whiteSpace=wrap;html=1;hachureGap=4;fontFamily=Architects Daughter;fontSource=https%3A%2F%2Ffonts.googleapis.com%2Fcss%3Ffamily%3DArchitects%2BDaughter;fontSize=20;fillColor=#a20025;fontColor=#ffffff;strokeColor=#6F0000;sketch=1;curveFitting=1;jiggle=2;" vertex="1" parent="7sBMtokpVWZ9o5FrSynr-1">
                    <mxGeometry x="140" y="140" width="820" height="1470" as="geometry"/>
                </mxCell>
                <mxCell id="7sBMtokpVWZ9o5FrSynr-8" value="&lt;pre style=&quot;font-size: 20px;&quot;&gt;Création de du design du site monopage&lt;/pre&gt;&lt;pre style=&quot;font-size: 20px;&quot;&gt;avec page de login.&lt;/pre&gt;" style="text;html=1;strokeColor=#2D7600;fillColor=#60a917;align=center;verticalAlign=top;whiteSpace=wrap;rounded=1;fontColor=#ffffff;fontSize=20;horizontal=1;labelBorderColor=none;spacing=2;hachureGap=4;fontFamily=Architects Daughter;fontSource=https%3A%2F%2Ffonts.googleapis.com%2Fcss%3Ffamily%3DArchitects%2BDaughter;sketch=1;curveFitting=1;jiggle=2;" vertex="1" parent="7sBMtokpVWZ9o5FrSynr-1">
                    <mxGeometry x="2060" y="840" width="520" height="540" as="geometry"/>
                </mxCell>
            </root>
        </mxGraphModel>
    </diagram>
    <diagram name="Database" id="hwZKizbyYwxqMcTtzIBE">
        <mxGraphModel dx="4910" dy="4360" grid="1" gridSize="10" guides="1" tooltips="1" connect="1" arrows="1" fold="1" page="1" pageScale="1" pageWidth="4681" pageHeight="3300" background="none" math="0" shadow="1">
            <root>
                <mxCell id="2IJjND5Lewd5Ow0aQ8cG-0"/>
                <mxCell id="2IJjND5Lewd5Ow0aQ8cG-1" parent="2IJjND5Lewd5Ow0aQ8cG-0"/>
                <mxCell id="2IJjND5Lewd5Ow0aQ8cG-2" value="" style="edgeStyle=none;hachureGap=4;html=1;fontFamily=Architects Daughter;fontSource=https%3A%2F%2Ffonts.googleapis.com%2Fcss%3Ffamily%3DArchitects%2BDaughter;fontSize=40;sketch=1;curveFitting=1;jiggle=2;" edge="1" parent="2IJjND5Lewd5Ow0aQ8cG-1" source="2IJjND5Lewd5Ow0aQ8cG-3" target="2IJjND5Lewd5Ow0aQ8cG-4">
                    <mxGeometry relative="1" as="geometry"/>
                </mxCell>
                <mxCell id="2IJjND5Lewd5Ow0aQ8cG-3" value="&lt;h1 style=&quot;font-size: 59px;&quot;&gt;&lt;font style=&quot;font-size: 59px;&quot;&gt;ft_transcendence&lt;/font&gt;&lt;/h1&gt;" style="text;html=1;strokeColor=#001DBC;fillColor=#0050ef;align=center;verticalAlign=middle;whiteSpace=wrap;rounded=1;fontColor=#ffffff;fontSize=59;horizontal=1;labelBorderColor=none;spacing=2;sketch=1;curveFitting=1;jiggle=2;" vertex="1" parent="2IJjND5Lewd5Ow0aQ8cG-1">
                    <mxGeometry x="2037.5" y="70" width="565" height="120" as="geometry"/>
                </mxCell>
                <mxCell id="2IJjND5Lewd5Ow0aQ8cG-4" value="&lt;h1 style=&quot;font-size: 40px;&quot;&gt;&lt;font face=&quot;Helvetica&quot; style=&quot;font-size: 40px;&quot;&gt;Docker&lt;/font&gt;&lt;/h1&gt;" style="text;html=1;strokeColor=#B09500;fillColor=#e3c800;align=center;verticalAlign=middle;whiteSpace=wrap;rounded=1;fontColor=#FFFFFF;fontSize=40;horizontal=1;labelBorderColor=none;spacing=2;hachureGap=4;fontFamily=Architects Daughter;fontSource=https%3A%2F%2Ffonts.googleapis.com%2Fcss%3Ffamily%3DArchitects%2BDaughter;sketch=1;curveFitting=1;jiggle=2;" vertex="1" parent="2IJjND5Lewd5Ow0aQ8cG-1">
                    <mxGeometry x="2130" y="240" width="380" height="70" as="geometry"/>
                </mxCell>
                <mxCell id="2IJjND5Lewd5Ow0aQ8cG-5" value="" style="edgeStyle=none;sketch=1;hachureGap=4;jiggle=2;curveFitting=1;html=1;fontFamily=Verdana;fontSize=16;endSize=20;startSize=20;strokeWidth=6;" edge="1" parent="2IJjND5Lewd5Ow0aQ8cG-1" source="2IJjND5Lewd5Ow0aQ8cG-6">
                    <mxGeometry relative="1" as="geometry">
                        <mxPoint x="2320" y="840" as="targetPoint"/>
                    </mxGeometry>
                </mxCell>
                <mxCell id="2IJjND5Lewd5Ow0aQ8cG-6" value="&lt;h1 style=&quot;font-size: 40px;&quot;&gt;&lt;font face=&quot;Helvetica&quot; style=&quot;font-size: 40px;&quot;&gt;Database&lt;/font&gt;&lt;/h1&gt;&lt;div&gt;&lt;font face=&quot;Helvetica&quot;&gt;PostgreSQL&lt;/font&gt;&lt;/div&gt;" style="text;html=1;strokeColor=#B09500;fillColor=#e3c800;align=center;verticalAlign=middle;whiteSpace=wrap;rounded=1;fontColor=#FFFFFF;fontSize=40;horizontal=1;labelBorderColor=none;spacing=2;hachureGap=4;fontFamily=Architects Daughter;fontSource=https%3A%2F%2Ffonts.googleapis.com%2Fcss%3Ffamily%3DArchitects%2BDaughter;sketch=1;curveFitting=1;jiggle=2;" vertex="1" parent="2IJjND5Lewd5Ow0aQ8cG-1">
                    <mxGeometry x="2130" y="390" width="380" height="230" as="geometry"/>
                </mxCell>
                <mxCell id="2IJjND5Lewd5Ow0aQ8cG-7" value="" style="whiteSpace=wrap;html=1;hachureGap=4;fontFamily=Architects Daughter;fontSource=https%3A%2F%2Ffonts.googleapis.com%2Fcss%3Ffamily%3DArchitects%2BDaughter;fontSize=20;fillColor=#a20025;fontColor=#ffffff;strokeColor=#6F0000;sketch=1;curveFitting=1;jiggle=2;" vertex="1" parent="2IJjND5Lewd5Ow0aQ8cG-1">
                    <mxGeometry x="140" y="140" width="820" height="1470" as="geometry"/>
                </mxCell>
                <mxCell id="2IJjND5Lewd5Ow0aQ8cG-8" value="&lt;pre style=&quot;font-size: 20px;&quot;&gt;&lt;br&gt;&lt;/pre&gt;" style="text;html=1;strokeColor=#2D7600;fillColor=#60a917;align=center;verticalAlign=top;whiteSpace=wrap;rounded=1;fontColor=#ffffff;fontSize=20;horizontal=1;labelBorderColor=none;spacing=2;hachureGap=4;fontFamily=Architects Daughter;fontSource=https%3A%2F%2Ffonts.googleapis.com%2Fcss%3Ffamily%3DArchitects%2BDaughter;sketch=1;curveFitting=1;jiggle=2;" vertex="1" parent="2IJjND5Lewd5Ow0aQ8cG-1">
                    <mxGeometry x="2060" y="840" width="520" height="540" as="geometry"/>
                </mxCell>
            </root>
        </mxGraphModel>
    </diagram>
</mxfile>